<svg xmlns="http://www.w3.org/2000/svg" xmlns:xlink="http://www.w3.org/1999/xlink" x="0" y="0" width="661.2666625976562" height="347.066650390625" style="
        width:661.2666625976562px;
        height:347.066650390625px;
        background: #FFF;
        fill: none;
">
        
        
        <svg xmlns="http://www.w3.org/2000/svg" class="role-diagram-draw-area"><g class="shapes-region" style="stroke: black; fill: none;"><g class="composite-shape"><path class="real" d=" M171.98,49.44 C171.98,30.97 187.33,16 206.28,16 C225.22,16 240.58,30.97 240.58,49.44 C240.58,67.91 225.22,82.89 206.28,82.89 C187.33,82.89 171.98,67.91 171.98,49.44 Z" style="stroke-width: 1px; stroke: rgb(74, 144, 226); stroke-opacity: 1; fill: rgb(207, 231, 255); fill-opacity: 1;"/></g><g class="composite-shape"><path class="real" d=" M171.98,144.42 C171.98,125.95 187.33,110.98 206.28,110.98 C225.22,110.98 240.58,125.95 240.58,144.42 C240.58,162.89 225.22,177.87 206.28,177.87 C187.33,177.87 171.98,162.89 171.98,144.42 Z" style="stroke-width: 1px; stroke: rgb(208, 2, 27); stroke-opacity: 1; fill: rgb(232, 117, 132); fill-opacity: 1;"/></g><g class="composite-shape"><path class="real" d=" M170.6,235.39 C170.6,216.92 185.96,201.95 204.91,201.95 C223.85,201.95 239.21,216.92 239.21,235.39 C239.21,253.86 223.85,268.83 204.91,268.83 C185.96,268.83 170.6,253.86 170.6,235.39 Z" style="stroke-width: 1px; stroke: rgb(126, 211, 33); stroke-opacity: 1; fill: rgb(188, 244, 129); fill-opacity: 1;"/></g><g class="arrow-line"><path class="connection real" stroke-dasharray="" d="  M110.74,49.22 L171.98,49.44" style="stroke: rgb(0, 0, 0); stroke-width: 1px; fill: none; fill-opacity: 1;"/></g><g class="arrow-line"><path class="connection real" stroke-dasharray="" d="  M110.74,144.2 L171.98,144.42" style="stroke: rgb(0, 0, 0); stroke-width: 1px; fill: none; fill-opacity: 1;"/></g><g class="arrow-line"><path class="connection real" stroke-dasharray="" d="  M109.37,235.17 L170.6,235.39" style="stroke: rgb(0, 0, 0); stroke-width: 1px; fill: none; fill-opacity: 1;"/></g><g class="composite-shape"><path class="real" d=" M332.5,89.58 C332.5,71.11 347.86,56.13 366.8,56.13 C385.75,56.13 401.1,71.11 401.1,89.58 C401.1,108.05 385.75,123.02 366.8,123.02 C347.86,123.02 332.5,108.05 332.5,89.58 Z" style="stroke-width: 1px; stroke: rgb(245, 166, 35); stroke-opacity: 1; fill: rgb(249, 218, 164); fill-opacity: 1;"/></g><g class="composite-shape"><path class="real" d=" M331.13,180.54 C331.13,162.07 346.49,147.1 365.43,147.1 C384.38,147.1 399.73,162.07 399.73,180.54 C399.73,199.01 384.38,213.99 365.43,213.99 C346.49,213.99 331.13,199.01 331.13,180.54 Z" style="stroke-width: 1px; stroke: rgb(232, 216, 30); stroke-opacity: 1; fill: rgb(255, 250, 162); fill-opacity: 1;"/></g><g class="arrow-line"><path class="connection real" stroke-dasharray="" d="  M240.58,49.44 L332.5,89.58" style="stroke: rgb(74, 144, 226); stroke-width: 1px; fill: none; fill-opacity: 1; stroke-opacity: 1;"/></g><g class="arrow-line"><path class="connection real" stroke-dasharray="" d="  M240.58,144.42 L332.5,89.58" style="stroke: rgb(208, 2, 27); stroke-width: 1px; fill: none; fill-opacity: 1; stroke-opacity: 1;"/></g><g class="arrow-line"><path class="connection real" stroke-dasharray="" d="  M239.21,235.39 L332.5,89.58" style="stroke: rgb(126, 211, 33); stroke-width: 1px; fill: none; fill-opacity: 1; stroke-opacity: 1;"/></g><g class="arrow-line"><path class="connection real" stroke-dasharray="" d="  M240.58,49.44 L331.13,180.54" style="stroke: rgb(74, 144, 226); stroke-width: 1px; fill: none; fill-opacity: 1; stroke-opacity: 1;"/></g><g class="arrow-line"><path class="connection real" stroke-dasharray="" d="  M240.58,144.42 L331.82,182.55" style="stroke: rgb(208, 2, 27); stroke-width: 1px; fill: none; fill-opacity: 1; stroke-opacity: 1;"/></g><g class="arrow-line"><path class="connection real" stroke-dasharray="" d="  M239.21,235.39 L331.82,182.55" style="stroke: rgb(126, 211, 33); stroke-width: 1px; fill: none; fill-opacity: 1; stroke-opacity: 1;"/></g><g class="composite-shape"><path class="real" d=" M431.29,135.06 C431.29,116.59 446.65,101.62 465.59,101.62 C484.53,101.62 499.89,116.59 499.89,135.06 C499.89,153.53 484.53,168.5 465.59,168.5 C446.65,168.5 431.29,153.53 431.29,135.06 Z" style="stroke-width: 1px; stroke: rgb(0, 0, 0); fill: none; fill-opacity: 1;"/></g><g class="arrow-line"><path class="connection real" stroke-dasharray="" d="  M401.1,89.58 L431.29,135.06" style="stroke: rgb(245, 166, 35); stroke-width: 1px; fill: none; fill-opacity: 1; stroke-opacity: 1;"/></g><g class="arrow-line"><path class="connection real" stroke-dasharray="" d="  M431.29,135.06 L399.73,180.54" style="stroke: rgb(248, 231, 28); stroke-width: 1px; fill: none; fill-opacity: 1; stroke-opacity: 1;"/></g><g class="arrow-line"><path class="connection real" stroke-dasharray="" d="  M499.89,135.06 L570.37,136.17" style="stroke: rgb(0, 0, 0); stroke-width: 1px; fill: none; fill-opacity: 1;"/></g><g class="composite-shape"><path class="real" d=" M164.37,316.63 C164.37,321.82 168.58,326.03 173.77,326.03 L238.96,326.03 C244.16,326.03 248.37,321.82 248.37,316.63 L248.37,279 C248.37,279 248.37,279 248.37,279 L164.37,279 C164.37,279 164.37,279 164.37,279 Z" style="stroke-width: 1px; stroke: rgb(0, 0, 0); fill: none; fill-opacity: 1;"/></g><g class="composite-shape"><path class="real" d=" M321.37,317.63 C321.37,322.82 325.58,327.03 330.77,327.03 L409.96,327.03 C415.16,327.03 419.37,322.82 419.37,317.63 L419.37,280 C419.37,280 419.37,280 419.37,280 L321.37,280 C321.37,280 321.37,280 321.37,280 Z" style="stroke-width: 1px; stroke: rgb(0, 0, 0); fill: none; fill-opacity: 1;"/></g><g class="composite-shape"><path class="real" d=" M417.37,217.63 C417.37,222.82 421.58,227.03 426.77,227.03 L505.96,227.03 C511.16,227.03 515.37,222.82 515.37,217.63 L515.37,180 C515.37,180 515.37,180 515.37,180 L417.37,180 C417.37,180 417.37,180 417.37,180 Z" style="stroke-width: 1px; stroke: rgb(0, 0, 0); fill: none; fill-opacity: 1;"/></g><g/></g><g/><g/><g/></svg>
        <svg xmlns="http://www.w3.org/2000/svg" xmlns:xlink="http://www.w3.org/1999/xlink" width="660" height="345.79998779296875" style="width:660px;height:345.79998779296875px;font-family:Asana-Math, Asana;background:#FFF;"><g><g><g><text x="171.63333129882812" y="295.2666778564453" style="white-space:pre;stroke:none;fill:rgb(0,0,0);fill-opacity:1;font-size:15px;font-family:Arial, Helvetica, sans-serif;font-weight:400;font-style:normal;dominant-baseline:text-before-edge;text-decoration:none;">Input layer</text></g></g></g><g><g><g><text x="328.6333312988281" y="296.2666778564453" style="white-space:pre;stroke:none;fill:rgb(0,0,0);fill-opacity:1;font-size:15px;font-family:Arial, Helvetica, sans-serif;font-weight:400;font-style:normal;dominant-baseline:text-before-edge;text-decoration:none;">Hidden layer</text></g></g></g><g><g><g><text x="424.6333312988281" y="196.2666778564453" style="white-space:pre;stroke:none;fill:rgb(0,0,0);fill-opacity:1;font-size:15px;font-family:Arial, Helvetica, sans-serif;font-weight:400;font-style:normal;dominant-baseline:text-before-edge;text-decoration:none;">Output layer</text></g></g></g></svg>
</svg>
