<svg xmlns="http://www.w3.org/2000/svg" xmlns:xlink="http://www.w3.org/1999/xlink" x="0" y="0" width="661.1666870117188" height="301.1666564941406" style="
        width:661.1666870117188px;
        height:301.1666564941406px;
        background: #FFF;
        fill: none;
">
        
        
        <svg xmlns="http://www.w3.org/2000/svg" class="role-diagram-draw-area"><g class="shapes-region" style="stroke: black; fill: none;"><g class="composite-shape"><path class="real" d=" M281.45,118.43 C281.45,98.55 297.57,82.43 317.45,82.43 C337.33,82.43 353.45,98.55 353.45,118.43 C353.45,138.32 337.33,154.43 317.45,154.43 C297.57,154.43 281.45,138.32 281.45,118.43 Z" style="stroke-width: 1px; stroke: rgb(0, 0, 0); fill: none; fill-opacity: 1;"/></g><g class="composite-shape"><path class="real" d=" M146.37,66.68 C146.37,47.18 162.18,31.37 181.68,31.37 C201.19,31.37 217,47.18 217,66.68 C217,86.19 201.19,102 181.68,102 C162.18,102 146.37,86.19 146.37,66.68 Z" style="stroke-width: 1px; stroke: rgb(0, 0, 0); fill: none; fill-opacity: 1;"/></g><g class="composite-shape"><path class="real" d=" M146.37,164.68 C146.37,145.18 162.18,129.37 181.68,129.37 C201.19,129.37 217,145.18 217,164.68 C217,184.19 201.19,200 181.68,200 C162.18,200 146.37,184.19 146.37,164.68 Z" style="stroke-width: 1px; stroke: rgb(0, 0, 0); fill: none; fill-opacity: 1;"/></g><g class="arrow-line"><path class="connection real" stroke-dasharray="" d="  M216,60 L265.57,103.74 L279.95,116.43" style="stroke: rgb(0, 0, 0); stroke-width: 1px; fill: none; fill-opacity: 1;"/><g stroke="#000" transform="matrix(-0.74988018254712,-0.6615736631873264,0.6615736631873264,-0.74988018254712,281.45001220703125,117.75)" style="stroke: rgb(0, 0, 0); stroke-width: 1px;"><path d=" M10.93,-3.29 Q4.96,-0.45 0,0 Q4.96,0.45 10.93,3.29"/></g></g><g class="arrow-line"><path class="connection real" stroke-dasharray="" d="  M217,164.68 L279.83,118.93" style="stroke: rgb(0, 0, 0); stroke-width: 1px; fill: none; fill-opacity: 1;"/><g stroke="#000" transform="matrix(-0.8084010236174529,0.588632130463717,-0.588632130463717,-0.8084010236174529,281.4500122070313,117.75)" style="stroke: rgb(0, 0, 0); stroke-width: 1px;"><path d=" M10.93,-3.29 Q4.96,-0.45 0,0 Q4.96,0.45 10.93,3.29"/></g></g><g class="composite-shape"><path class="real" d=" M281.45,233.75 C281.45,214.25 297.26,198.43 316.77,198.43 C336.27,198.43 352.08,214.25 352.08,233.75 C352.08,253.25 336.27,269.07 316.77,269.07 C297.26,269.07 281.45,253.25 281.45,233.75 Z" style="stroke-width: 1px; stroke: rgb(0, 0, 0); fill: none; fill-opacity: 1;"/></g><g class="composite-shape"><path class="real" d=" M418.45,183.75 C418.45,164.25 434.26,148.43 453.77,148.43 C473.27,148.43 489.08,164.25 489.08,183.75 C489.08,203.25 473.27,219.07 453.77,219.07 C434.26,219.07 418.45,203.25 418.45,183.75 Z" style="stroke-width: 1px; stroke: rgb(0, 0, 0); fill: none; fill-opacity: 1;"/></g><g class="arrow-line"><path class="connection real" stroke-dasharray="" d="  M353.45,118.43 L398.45,165.75 L418.1,187.27" style="stroke: rgb(0, 0, 0); stroke-width: 1px; fill: none; fill-opacity: 1;"/><g stroke="#000" transform="matrix(-0.6743023875837236,-0.7384553406258836,0.7384553406258836,-0.6743023875837236,419.45001220703125,188.75)" style="stroke: rgb(0, 0, 0); stroke-width: 1px;"><path d=" M10.93,-3.29 Q4.96,-0.45 0,0 Q4.96,0.45 10.93,3.29"/></g></g><g class="arrow-line"><path class="connection real" stroke-dasharray="" d="  M355,235.68 L417.83,189.93" style="stroke: rgb(0, 0, 0); stroke-width: 1px; fill: none; fill-opacity: 1;"/><g stroke="#000" transform="matrix(-0.8084010236174529,0.588632130463717,-0.588632130463717,-0.8084010236174529,419.45001220703125,188.75)" style="stroke: rgb(0, 0, 0); stroke-width: 1px;"><path d=" M10.93,-3.29 Q4.96,-0.45 0,0 Q4.96,0.45 10.93,3.29"/></g></g><g/></g><g/><g/><g/></svg>
        <svg xmlns="http://www.w3.org/2000/svg" xmlns:xlink="http://www.w3.org/1999/xlink" width="660" height="300" style="width:660px;height:300px;font-family:Asana-Math, Asana;background:#FFF;"><g><g><g><text x="178.26666259765625" y="33.70001220703125" style="white-space:pre;stroke:none;fill:rgb(0,0,0);fill-opacity:1;font-size:15px;font-family:Arial, Helvetica, sans-serif;font-weight:700;font-style:normal;dominant-baseline:text-before-edge;text-decoration:none;">a</text></g></g></g><g><g><g><text x="178.5833740234375" y="134.33331298828125" style="white-space:pre;stroke:none;fill:rgb(0,0,0);fill-opacity:1;font-size:15px;font-family:Arial, Helvetica, sans-serif;font-weight:700;font-style:normal;dominant-baseline:text-before-edge;text-decoration:none;">b</text></g></g></g><g><g><g><text x="312.5833740234375" y="86.33331298828125" style="white-space:pre;stroke:none;fill:rgb(0,0,0);fill-opacity:1;font-size:15px;font-family:Arial, Helvetica, sans-serif;font-weight:700;font-style:normal;dominant-baseline:text-before-edge;text-decoration:none;">d</text></g></g></g><g><g><g><text x="172.5833740234375" y="56.33331298828125" style="white-space:pre;stroke:none;fill:rgb(0,0,0);fill-opacity:1;font-size:15px;font-family:Arial, Helvetica, sans-serif;font-weight:400;font-style:normal;dominant-baseline:text-before-edge;text-decoration:none;">2.0</text></g></g></g><g><g><g><text x="171.5833740234375" y="157.33331298828125" style="white-space:pre;stroke:none;fill:rgb(0,0,0);fill-opacity:1;font-size:15px;font-family:Arial, Helvetica, sans-serif;font-weight:400;font-style:normal;dominant-baseline:text-before-edge;text-decoration:none;">3.0</text></g></g></g><g><g><g><text x="306.5833740234375" y="107.33331298828125" style="white-space:pre;stroke:none;fill:rgb(0,0,0);fill-opacity:1;font-size:15px;font-family:Arial, Helvetica, sans-serif;font-weight:400;font-style:normal;dominant-baseline:text-before-edge;text-decoration:none;">5.0</text></g></g></g><g><g><g><text x="312.5833740234375" y="202.33331298828125" style="white-space:pre;stroke:none;fill:rgb(0,0,0);fill-opacity:1;font-size:15px;font-family:Arial, Helvetica, sans-serif;font-weight:700;font-style:normal;dominant-baseline:text-before-edge;text-decoration:none;">c</text></g></g></g><g><g><g><text x="306.5833740234375" y="226.33331298828125" style="white-space:pre;stroke:none;fill:rgb(0,0,0);fill-opacity:1;font-size:15px;font-family:Arial, Helvetica, sans-serif;font-weight:400;font-style:normal;dominant-baseline:text-before-edge;text-decoration:none;">4.0</text></g></g></g><g><g><g><text x="449.5833740234375" y="152.33331298828125" style="white-space:pre;stroke:none;fill:rgb(0,0,0);fill-opacity:1;font-size:15px;font-family:Arial, Helvetica, sans-serif;font-weight:700;font-style:normal;dominant-baseline:text-before-edge;text-decoration:none;">e</text></g></g></g><g><g><g><text x="439.5833740234375" y="176.33331298828125" style="white-space:pre;stroke:none;fill:rgb(0,0,0);fill-opacity:1;font-size:15px;font-family:Arial, Helvetica, sans-serif;font-weight:400;font-style:normal;dominant-baseline:text-before-edge;text-decoration:none;">20.0</text></g></g></g><g><g><g><text x="252.5833740234375" y="106.33331298828125" style="white-space:pre;stroke:none;fill:rgb(0,0,0);fill-opacity:1;font-size:15px;font-family:Arial, Helvetica, sans-serif;font-weight:700;font-style:normal;dominant-baseline:text-before-edge;text-decoration:none;">+</text></g></g></g><g><g><g><text x="394.5833740234375" y="180.33331298828125" style="white-space:pre;stroke:none;fill:rgb(0,0,0);fill-opacity:1;font-size:15px;font-family:Arial, Helvetica, sans-serif;font-weight:400;font-style:normal;dominant-baseline:text-before-edge;text-decoration:none;">*</text></g></g></g></svg>
</svg>
