<svg xmlns="http://www.w3.org/2000/svg" xmlns:xlink="http://www.w3.org/1999/xlink" x="0" y="0" width="661.3333129882812" height="301.66668701171875" style="
        width:661.3333129882812px;
        height:301.66668701171875px;
        background: #FFF;
        fill: none;
">
        
        
        <svg xmlns="http://www.w3.org/2000/svg" class="role-diagram-draw-area"><g class="shapes-region" style="stroke: black; fill: none;"><g class="arrow-line"><path class="connection real" stroke-dasharray="" d="  M181.42,10.35 L180.42,298.35" style="stroke: rgb(0, 0, 0); stroke-width: 1px; fill: none; fill-opacity: 1;"/></g><g class="arrow-line"><path class="connection real" stroke-dasharray="" d="  M134.45,254.58 L330.44,255.47 L581,256.6" style="stroke: rgb(0, 0, 0); stroke-width: 1px; fill: none; fill-opacity: 1;"/></g><g class="arrow-line"><path class="connection real" stroke-dasharray="" d="  M187.45,67.58 C227.45,37.58 241.45,233.58 281.45,203.58" style="stroke: rgb(74, 144, 226); stroke-width: 4px; fill: none; fill-opacity: 1; stroke-opacity: 1;"/></g><g class="arrow-line"><path class="connection real" stroke-dasharray="" d="  M281.45,203.58 C321.45,173.58 304.45,256.58 344.45,226.58" style="stroke: rgb(74, 144, 226); stroke-width: 4px; fill: none; fill-opacity: 1; stroke-opacity: 1;"/></g><g class="arrow-line"><path class="connection real" stroke-dasharray="" d="  M344.45,226.58 C384.45,196.58 397.45,277.58 437.45,247.58" style="stroke: rgb(74, 144, 226); stroke-width: 4px; fill: none; fill-opacity: 1; stroke-opacity: 1;"/></g><g class="arrow-line"><path class="connection real" stroke-dasharray="" d="  M437.45,247.58 C477.45,217.58 450.45,168.58 490.45,138.58" style="stroke: rgb(74, 144, 226); stroke-width: 4px; fill: none; fill-opacity: 1; stroke-opacity: 1;"/></g><g class="composite-shape"><path class="real" d=" M415.74,256.1 C414.9,253.31 416.48,250.38 419.26,249.54 C422.04,248.71 424.98,250.28 425.82,253.07 C426.65,255.85 425.07,258.79 422.29,259.62 C419.51,260.46 416.57,258.88 415.74,256.1 Z" style="stroke-width: 1px; stroke: rgb(0, 0, 0); fill: rgb(126, 211, 33); fill-opacity: 1;"/></g><g class="composite-shape"><path class="real" d=" M190.95,65.58 C190.11,62.8 191.69,59.87 194.48,59.03 C197.26,58.19 200.19,59.77 201.03,62.56 C201.87,65.34 200.29,68.27 197.5,69.11 C194.72,69.95 191.79,68.37 190.95,65.58 Z" style="stroke-width: 1px; stroke: rgb(0, 0, 0); fill: rgb(208, 2, 27); fill-opacity: 1;"/></g><g class="arrow-line"><path class="connection real" stroke-dasharray="" d="  M201.03,62.56 C242.33,60.37 234.33,80.37 228.33,116.37" style="stroke: rgb(0, 0, 0); stroke-width: 1px; fill: none; fill-opacity: 1;"/></g><g class="arrow-line"><path class="connection real" stroke-dasharray="" d="  M228.33,116.37 C269.64,114.18 253.33,133.37 247.33,169.37" style="stroke: rgb(0, 0, 0); stroke-width: 1px; fill: none; fill-opacity: 1;"/></g><g class="arrow-line"><path class="connection real" stroke-dasharray="" d="  M247.33,169.37 C265.33,174.37 284.33,145.37 300.33,194.37" style="stroke: rgb(0, 0, 0); stroke-width: 1px; fill: none; fill-opacity: 1;"/></g><g class="arrow-line"><path class="connection real" stroke-dasharray="" d="  M300.33,194.37 C318.33,199.37 338.33,171.37 356.33,220.37" style="stroke: rgb(0, 0, 0); stroke-width: 1px; fill: none; fill-opacity: 1;"/></g><g class="arrow-line"><path class="connection real" stroke-dasharray="" d="  M356.33,220.37 C374.33,225.37 388.33,164.37 419.26,249.54" style="stroke: rgb(0, 0, 0); stroke-width: 1px; fill: none; fill-opacity: 1;"/></g><g class="composite-shape"><path class="real" d=" M223.29,117.88 C222.46,115.1 224.04,112.16 226.82,111.33 C229.6,110.49 232.54,112.07 233.37,114.85 C234.21,117.64 232.63,120.57 229.85,121.41 C227.06,122.24 224.13,120.66 223.29,117.88 Z" style="stroke-width: 1px; stroke: rgb(0, 0, 0); fill: rgb(208, 2, 27); fill-opacity: 1;"/></g><g class="composite-shape"><path class="real" d=" M240.78,165.84 C239.94,163.06 241.52,160.12 244.31,159.29 C247.09,158.45 250.02,160.03 250.86,162.81 C251.7,165.6 250.12,168.53 247.33,169.37 C244.55,170.2 241.62,168.62 240.78,165.84 Z" style="stroke-width: 1px; stroke: rgb(0, 0, 0); fill: rgb(208, 2, 27); fill-opacity: 1;"/></g><g class="composite-shape"><path class="real" d=" M295.29,195.88 C294.46,193.1 296.04,190.16 298.82,189.33 C301.6,188.49 304.54,190.07 305.37,192.85 C306.21,195.64 304.63,198.57 301.85,199.41 C299.06,200.24 296.13,198.66 295.29,195.88 Z" style="stroke-width: 1px; stroke: rgb(0, 0, 0); fill: rgb(208, 2, 27); fill-opacity: 1;"/></g><g class="composite-shape"><path class="real" d=" M356.33,220.37 C355.5,217.58 357.08,214.65 359.86,213.81 C362.64,212.98 365.58,214.56 366.41,217.34 C367.25,220.12 365.67,223.06 362.89,223.89 C360.1,224.73 357.17,223.15 356.33,220.37 Z" style="stroke-width: 1px; stroke: rgb(0, 0, 0); fill: rgb(208, 2, 27); fill-opacity: 1;"/></g><g class="composite-shape"><path class="real" d=" M363.65,146.83 L369.96,169.77 L346.4,166.42" style="stroke-width: 1px; stroke: rgb(0, 0, 0); fill: none; fill-opacity: 1;"/></g><g class="arrow-line"><path class="connection real" stroke-dasharray="" d="  M258.33,66.57 C270.33,81.57 335.33,139.57 368.33,168.57" style="stroke: rgb(0, 0, 0); stroke-width: 1px; fill: none; fill-opacity: 1;"/></g><g/></g><g/><g/><g/></svg>
        <svg xmlns="http://www.w3.org/2000/svg" xmlns:xlink="http://www.w3.org/1999/xlink" width="660" height="300.33331298828125" style="width:660px;height:300.33331298828125px;font-family:Asana-Math, Asana;background:#FFF;"><g transform="matrix(0.9987281721066018,-0.05041862989616085,0.05041862989616085,0.9987281721066018,-9.65804484027791,20.862832006042538)"><g><g><g><g><g><g transform="matrix(1,0,0,1,403.64996337890625,207.5500030517578)"><path transform="matrix(0.017,0,0,-0.017,0,0)" d="M400 -16C446 -16 513 54 545 84L545 97L532 97C513 79 489 55 462 55C417 55 424 184 424 216C474 278 520 343 558 413C551 428 544 444 536 459L525 459C511 391 456 315 420 257C422 336 445 472 332 473C164 473 27 243 24 93C23 33 43 -16 111 -16C203 -16 297 64 357 131C357 96 348 -15 400 -16ZM284 437C371 437 358 224 357 164C314 113 233 28 162 28C109 28 98 70 99 115C100 202 175 437 284 437Z" stroke="rgb(0,0,0)" stroke-opacity="1" stroke-width="8" fill="rgb(0,0,0)" fill-opacity="1"></path></g></g></g></g></g></g></g><g><g><g><g><g><g><g transform="matrix(1,0,0,1,146.6666259765625,23.5333251953125)"><path transform="matrix(0.017,0,0,-0.017,0,0)" d="M251 722L239 733C187 707 151 698 79 691L75 670L123 670C147 670 157 663 157 648C157 645 157 640 154 622C143 567 70 182 55 132C42 82 36 52 36 31C36 6 47 -9 66 -9C92 -9 128 12 226 85L216 103L190 86C161 67 139 56 129 56C122 56 116 66 116 76C116 82 117 89 120 104ZM294 152C294 46 339 -11 422 -11C477 -11 537 15 582 57C644 116 688 230 688 331C688 425 638 482 555 482C451 482 294 382 294 152ZM518 444C579 444 612 399 612 315C612 219 581 113 537 60C519 39 493 27 462 27C404 27 370 72 370 151C370 264 409 387 458 427C471 438 494 444 518 444ZM751 148C746 97 740 62 729 16C767 -2 801 -11 836 -11C885 -11 931 7 982 47C1033 87 1054 124 1054 174C1054 228 1022 257 948 271L905 279C845 290 826 307 826 348C826 401 871 442 928 442C969 442 1007 424 1023 397L1023 342L1046 342C1050 377 1054 404 1065 455C1026 474 998 482 965 482C913 482 852 452 804 404C778 377 767 352 767 316C767 260 798 228 864 215L927 203C971 195 987 177 987 138C987 73 941 29 870 29C835 29 804 40 776 64L776 148ZM1139 148C1134 97 1128 62 1117 16C1155 -2 1189 -11 1224 -11C1273 -11 1319 7 1370 47C1421 87 1442 124 1442 174C1442 228 1410 257 1336 271L1293 279C1233 290 1214 307 1214 348C1214 401 1259 442 1316 442C1357 442 1395 424 1411 397L1411 342L1434 342C1438 377 1442 404 1453 455C1414 474 1386 482 1353 482C1301 482 1240 452 1192 404C1166 377 1155 352 1155 316C1155 260 1186 228 1252 215L1315 203C1359 195 1375 177 1375 138C1375 73 1329 29 1258 29C1223 29 1192 40 1164 64L1164 148Z" stroke="rgb(0,0,0)" stroke-opacity="1" stroke-width="8" fill="rgb(0,0,0)" fill-opacity="1"></path></g></g></g></g></g></g></g><g><g><g><g><g><g><g transform="matrix(1,0,0,1,560.6666259765625,274.53334045410156)"><path transform="matrix(0.017,0,0,-0.017,0,0)" d="M167 420C188 420 201 421 226 424C171 350 72 266 72 126C72 44 107 -11 160 -11C224 -11 276 44 350 187C341 143 338 118 338 95C338 32 367 -11 412 -11C546 -11 699 238 699 384C699 441 673 482 637 482C624 482 612 478 604 470L554 423L565 404C574 410 583 413 592 413C619 413 635 390 635 350C635 205 538 39 453 39C424 39 403 79 403 134C403 181 412 247 424 290L476 474L469 482L395 460L366 311C354 249 340 209 311 155C271 80 233 39 203 39C168 39 145 78 145 136C145 255 186 352 285 464L275 482C255 473 242 470 214 470C186 470 144 472 115 475L103 476C97 477 92 477 91 477C79 477 70 475 59 470C45 443 34 407 21 352L43 352L60 394C67 411 87 422 111 422C145 422 128 420 167 420Z" stroke="rgb(0,0,0)" stroke-opacity="1" stroke-width="8" fill="rgb(0,0,0)" fill-opacity="1"></path></g></g></g></g></g></g></g></svg>
</svg>
