<svg xmlns="http://www.w3.org/2000/svg" xmlns:xlink="http://www.w3.org/1999/xlink" x="0" y="0" width="661.433349609375" height="301.433349609375" style="
        width:661.433349609375px;
        height:301.433349609375px;
        background: #FFF;
        fill: none;
">
        
        
        <svg xmlns="http://www.w3.org/2000/svg" class="role-diagram-draw-area"><g class="shapes-region" style="stroke: black; fill: none;"><g class="composite-shape"><path class="real" d=" M247.3,155.35 C247.3,112.08 282.38,77 325.65,77 C368.92,77 404,112.08 404,155.35 C404,198.62 368.92,233.7 325.65,233.7 C282.38,233.7 247.3,198.62 247.3,155.35 Z" style="stroke-width: 1px; stroke: rgb(0, 0, 0); fill: none; fill-opacity: 1;"/></g><g class="arrow-line"><path class="connection real" stroke-dasharray="" d="  M142.28,157.85 L507.28,159.85" style="stroke: rgb(0, 0, 0); stroke-width: 1px; fill: none; fill-opacity: 1;"/></g><g/></g><g/><g/><g/></svg>
        <svg xmlns="http://www.w3.org/2000/svg" xmlns:xlink="http://www.w3.org/1999/xlink" width="660" height="300" style="width:660px;height:300px;font-family:Asana-Math, Asana;background:#FFF;"><g><g><g><g transform="matrix(1,0,0,1,152.7166748046875,150.53335571289062)"><path transform="matrix(0.017,0,0,-0.017,0,0)" d="M34 388L41 368L73 389C110 412 113 414 120 414C130 414 138 404 138 391C138 384 134 361 130 347L64 107C56 76 51 49 51 30C51 6 62 -9 81 -9C107 -9 143 12 241 85L231 103L205 86C176 67 153 56 144 56C137 56 131 66 131 76C131 86 133 95 138 116L215 420C219 437 221 448 221 456C221 473 212 482 196 482C174 482 137 461 62 408ZM228 712C199 712 170 679 170 645C170 620 185 604 209 604C240 604 264 633 264 671C264 695 249 712 228 712ZM301 388L308 368L340 389C377 412 380 414 387 414C398 414 405 404 405 389C405 338 364 145 323 2L330 -9C355 -2 378 4 400 8C419 134 440 199 486 268C540 352 615 414 660 414C671 414 677 405 677 390C677 372 674 351 666 319L614 107C605 70 601 47 601 31C601 6 612 -9 631 -9C657 -9 693 12 791 85L781 103L755 86C726 67 704 56 694 56C687 56 681 65 681 76C681 81 682 92 683 96L749 372C756 401 760 429 760 446C760 469 749 482 729 482C687 482 618 444 559 389C521 354 493 320 441 247L479 408C483 426 485 438 485 449C485 470 477 482 462 482C441 482 402 460 329 408ZM1008 -11C1064 -11 1179 62 1222 125C1263 186 1297 296 1297 371C1297 438 1274 482 1238 482C1196 482 1143 456 1091 409C1050 374 1030 348 994 289L1018 408C1021 425 1023 440 1023 452C1023 471 1015 482 1001 482C980 482 942 461 868 408L840 388L847 368L879 389C907 407 918 412 927 412C937 412 944 403 944 389C944 381 942 361 940 351L882 8C872 -52 853 -143 833 -233L825 -270L832 -276C853 -269 873 -264 905 -259L947 3C968 -4 990 -11 1008 -11ZM975 165C997 293 1104 424 1187 424C1213 424 1225 402 1225 356C1225 275 1185 156 1132 80C1112 51 1080 36 1039 36C1008 36 983 43 957 59ZM1823 473L1816 482L1748 465L1738 414C1723 336 1698 268 1667 221C1608 130 1530 59 1490 59C1482 59 1477 68 1477 85C1477 99 1479 112 1484 137L1541 408C1544 424 1546 438 1546 451C1546 470 1537 482 1523 482C1503 482 1465 461 1391 408L1363 388L1370 368L1402 389C1430 407 1441 412 1450 412C1459 412 1467 403 1467 392C1467 388 1466 378 1465 374L1402 77C1400 68 1398 44 1398 30C1398 7 1413 -11 1433 -11C1496 -11 1617 101 1701 239L1664 97C1657 73 1653 46 1653 31C1653 6 1664 -9 1683 -9C1709 -9 1745 12 1843 85L1833 103L1807 86C1783 70 1757 59 1746 59C1738 59 1733 66 1733 76C1733 112 1808 416 1823 473ZM2011 390L1955 107C1954 99 1942 61 1942 31C1942 6 1953 -9 1972 -9C2007 -9 2042 11 2120 74L2151 99L2141 117L2096 86C2067 66 2047 56 2036 56C2027 56 2022 64 2022 76C2022 102 2036 183 2065 328L2078 390L2185 390L2196 440C2158 436 2124 434 2086 434C2102 528 2113 577 2131 631L2120 646C2100 634 2073 622 2042 610L2017 440C1973 419 1947 408 1929 403L1927 390Z" stroke="rgb(0,0,0)" stroke-opacity="1" stroke-width="8" fill="rgb(0,0,0)" fill-opacity="1"></path></g></g><g><g transform="matrix(1,0,0,1,199.76666259765625,150.53335571289062)"><path transform="matrix(0.017,0,0,-0.017,0,0)" d="M604 347L604 406L65 406L65 347ZM604 134L604 193L65 193L65 134Z" stroke="rgb(0,0,0)" stroke-opacity="1" stroke-width="8" fill="rgb(0,0,0)" fill-opacity="1"></path></g></g><g><g transform="matrix(1,0,0,1,216.2166748046875,150.53335571289062)"><path transform="matrix(0.017,0,0,-0.017,0,0)" d="M265 23L265 -3C452 -3 452 0 488 0C524 0 524 -3 717 -3L717 82C602 77 556 81 371 77L553 270C650 373 680 428 680 503C680 618 602 689 475 689C403 689 354 669 305 619L288 483L317 483L330 529C346 587 382 612 449 612C535 612 590 558 590 473C590 398 548 324 435 204Z" stroke="rgb(0,0,0)" stroke-opacity="1" stroke-width="8" fill="rgb(0,0,0)" fill-opacity="1"></path></g></g></g></g><g><g><g><g transform="matrix(1,0,0,1,301.7166748046875,110.53335571289062)"><path transform="matrix(0.017,0,0,-0.017,0,0)" d="M167 420C188 420 201 421 226 424C171 350 72 266 72 126C72 44 107 -11 160 -11C224 -11 276 44 350 187C341 143 338 118 338 95C338 32 367 -11 412 -11C546 -11 699 238 699 384C699 441 673 482 637 482C624 482 612 478 604 470L554 423L565 404C574 410 583 413 592 413C619 413 635 390 635 350C635 205 538 39 453 39C424 39 403 79 403 134C403 181 412 247 424 290L476 474L469 482L395 460L366 311C354 249 340 209 311 155C271 80 233 39 203 39C168 39 145 78 145 136C145 255 186 352 285 464L275 482C255 473 242 470 214 470C186 470 144 472 115 475L103 476C97 477 92 477 91 477C79 477 70 475 59 470C45 443 34 407 21 352L43 352L60 394C67 411 87 422 111 422C145 422 128 420 167 420Z" stroke="rgb(0,0,0)" stroke-opacity="1" stroke-width="8" fill="rgb(0,0,0)" fill-opacity="1"></path></g></g><g><g transform="matrix(1,0,0,1,323.29998779296875,110.53335571289062)"><path transform="matrix(0.017,0,0,-0.017,0,0)" d="M604 347L604 406L65 406L65 347ZM604 134L604 193L65 193L65 134Z" stroke="rgb(0,0,0)" stroke-opacity="1" stroke-width="8" fill="rgb(0,0,0)" fill-opacity="1"></path></g></g><g><g transform="matrix(1,0,0,1,339.75,110.53335571289062)"><path transform="matrix(0.017,0,0,-0.017,0,0)" d="M667 -3L667 27L615 30C560 33 550 44 550 96L550 700L309 598L316 548L466 614L466 96C466 44 455 33 401 30L345 27L345 -3C499 0 499 0 510 0C541 0 651 -3 667 -3Z" stroke="rgb(0,0,0)" stroke-opacity="1" stroke-width="8" fill="rgb(0,0,0)" fill-opacity="1"></path></g></g></g></g><g><g><g><g transform="matrix(1,0,0,1,293.7166748046875,151.53335571289062)"><path transform="matrix(0.017,0,0,-0.017,0,0)" d="M34 388L41 368L73 389C110 412 113 414 120 414C130 414 138 404 138 391C138 384 134 361 130 347L64 107C56 76 51 49 51 30C51 6 62 -9 81 -9C107 -9 143 12 241 85L231 103L205 86C176 67 153 56 144 56C137 56 131 66 131 76C131 86 133 95 138 116L215 420C219 437 221 448 221 456C221 473 212 482 196 482C174 482 137 461 62 408ZM228 712C199 712 170 679 170 645C170 620 185 604 209 604C240 604 264 633 264 671C264 695 249 712 228 712ZM301 388L308 368L340 389C377 412 380 414 387 414C398 414 405 404 405 389C405 338 364 145 323 2L330 -9C355 -2 378 4 400 8C419 134 440 199 486 268C540 352 615 414 660 414C671 414 677 405 677 390C677 372 674 351 666 319L614 107C605 70 601 47 601 31C601 6 612 -9 631 -9C657 -9 693 12 791 85L781 103L755 86C726 67 704 56 694 56C687 56 681 65 681 76C681 81 682 92 683 96L749 372C756 401 760 429 760 446C760 469 749 482 729 482C687 482 618 444 559 389C521 354 493 320 441 247L479 408C483 426 485 438 485 449C485 470 477 482 462 482C441 482 402 460 329 408ZM1008 -11C1064 -11 1179 62 1222 125C1263 186 1297 296 1297 371C1297 438 1274 482 1238 482C1196 482 1143 456 1091 409C1050 374 1030 348 994 289L1018 408C1021 425 1023 440 1023 452C1023 471 1015 482 1001 482C980 482 942 461 868 408L840 388L847 368L879 389C907 407 918 412 927 412C937 412 944 403 944 389C944 381 942 361 940 351L882 8C872 -52 853 -143 833 -233L825 -270L832 -276C853 -269 873 -264 905 -259L947 3C968 -4 990 -11 1008 -11ZM975 165C997 293 1104 424 1187 424C1213 424 1225 402 1225 356C1225 275 1185 156 1132 80C1112 51 1080 36 1039 36C1008 36 983 43 957 59ZM1823 473L1816 482L1748 465L1738 414C1723 336 1698 268 1667 221C1608 130 1530 59 1490 59C1482 59 1477 68 1477 85C1477 99 1479 112 1484 137L1541 408C1544 424 1546 438 1546 451C1546 470 1537 482 1523 482C1503 482 1465 461 1391 408L1363 388L1370 368L1402 389C1430 407 1441 412 1450 412C1459 412 1467 403 1467 392C1467 388 1466 378 1465 374L1402 77C1400 68 1398 44 1398 30C1398 7 1413 -11 1433 -11C1496 -11 1617 101 1701 239L1664 97C1657 73 1653 46 1653 31C1653 6 1664 -9 1683 -9C1709 -9 1745 12 1843 85L1833 103L1807 86C1783 70 1757 59 1746 59C1738 59 1733 66 1733 76C1733 112 1808 416 1823 473ZM2011 390L1955 107C1954 99 1942 61 1942 31C1942 6 1953 -9 1972 -9C2007 -9 2042 11 2120 74L2151 99L2141 117L2096 86C2067 66 2047 56 2036 56C2027 56 2022 64 2022 76C2022 102 2036 183 2065 328L2078 390L2185 390L2196 440C2158 436 2124 434 2086 434C2102 528 2113 577 2131 631L2120 646C2100 634 2073 622 2042 610L2017 440C1973 419 1947 408 1929 403L1927 390ZM2635 267L2504 213L2499 204L2535 153L2545 153L2651 241L2669 99L2679 95L2747 121L2747 131L2679 253L2817 233L2826 241L2826 303L2820 307L2681 283L2750 408L2747 423L2685 442L2676 438L2650 295L2555 393L2545 393L2501 341L2504 331ZM3271 420C3292 420 3305 421 3330 424C3275 350 3176 266 3176 126C3176 44 3211 -11 3264 -11C3328 -11 3380 44 3454 187C3445 143 3442 118 3442 95C3442 32 3471 -11 3516 -11C3650 -11 3803 238 3803 384C3803 441 3777 482 3741 482C3728 482 3716 478 3708 470L3658 423L3669 404C3678 410 3687 413 3696 413C3723 413 3739 390 3739 350C3739 205 3642 39 3557 39C3528 39 3507 79 3507 134C3507 181 3516 247 3528 290L3580 474L3573 482L3499 460L3470 311C3458 249 3444 209 3415 155C3375 80 3337 39 3307 39C3272 39 3249 78 3249 136C3249 255 3290 352 3389 464L3379 482C3359 473 3346 470 3318 470C3290 470 3248 472 3219 475L3207 476C3201 477 3196 477 3195 477C3183 477 3174 475 3163 470C3149 443 3138 407 3125 352L3147 352L3164 394C3171 411 3191 422 3215 422C3249 422 3232 420 3271 420Z" stroke="rgb(0,0,0)" stroke-opacity="1" stroke-width="8" fill="rgb(0,0,0)" fill-opacity="1"></path></g></g></g></g><g><g><g><g transform="matrix(1,0,0,1,413.7166748046875,151.53335571289062)"><path transform="matrix(0.017,0,0,-0.017,0,0)" d="M17 152C17 46 62 -11 145 -11C200 -11 260 15 305 57C367 116 411 230 411 331C411 425 361 482 278 482C174 482 17 382 17 152ZM241 444C302 444 335 399 335 315C335 219 304 113 260 60C242 39 216 27 185 27C127 27 93 72 93 151C93 264 132 387 181 427C194 438 217 444 241 444ZM935 473L928 482L860 465L850 414C835 336 810 268 779 221C720 130 642 59 602 59C594 59 589 68 589 85C589 99 591 112 596 137L653 408C656 424 658 438 658 451C658 470 649 482 635 482C615 482 577 461 503 408L475 388L482 368L514 389C542 407 553 412 562 412C571 412 579 403 579 392C579 388 578 378 577 374L514 77C512 68 510 44 510 30C510 7 525 -11 545 -11C608 -11 729 101 813 239L776 97C769 73 765 46 765 31C765 6 776 -9 795 -9C821 -9 857 12 955 85L945 103L919 86C895 70 869 59 858 59C850 59 845 66 845 76C845 112 920 416 935 473ZM1123 390L1067 107C1066 99 1054 61 1054 31C1054 6 1065 -9 1084 -9C1119 -9 1154 11 1232 74L1263 99L1253 117L1208 86C1179 66 1159 56 1148 56C1139 56 1134 64 1134 76C1134 102 1148 183 1177 328L1190 390L1297 390L1308 440C1270 436 1236 434 1198 434C1214 528 1225 577 1243 631L1232 646C1212 634 1185 622 1154 610L1129 440C1085 419 1059 408 1041 403L1039 390ZM1506 -11C1562 -11 1677 62 1720 125C1761 186 1795 296 1795 371C1795 438 1772 482 1736 482C1694 482 1641 456 1589 409C1548 374 1528 348 1492 289L1516 408C1519 425 1521 440 1521 452C1521 471 1513 482 1499 482C1478 482 1440 461 1366 408L1338 388L1345 368L1377 389C1405 407 1416 412 1425 412C1435 412 1442 403 1442 389C1442 381 1440 361 1438 351L1380 8C1370 -52 1351 -143 1331 -233L1323 -270L1330 -276C1351 -269 1371 -264 1403 -259L1445 3C1466 -4 1488 -11 1506 -11ZM1473 165C1495 293 1602 424 1685 424C1711 424 1723 402 1723 356C1723 275 1683 156 1630 80C1610 51 1578 36 1537 36C1506 36 1481 43 1455 59ZM2321 473L2314 482L2246 465L2236 414C2221 336 2196 268 2165 221C2106 130 2028 59 1988 59C1980 59 1975 68 1975 85C1975 99 1977 112 1982 137L2039 408C2042 424 2044 438 2044 451C2044 470 2035 482 2021 482C2001 482 1963 461 1889 408L1861 388L1868 368L1900 389C1928 407 1939 412 1948 412C1957 412 1965 403 1965 392C1965 388 1964 378 1963 374L1900 77C1898 68 1896 44 1896 30C1896 7 1911 -11 1931 -11C1994 -11 2115 101 2199 239L2162 97C2155 73 2151 46 2151 31C2151 6 2162 -9 2181 -9C2207 -9 2243 12 2341 85L2331 103L2305 86C2281 70 2255 59 2244 59C2236 59 2231 66 2231 76C2231 112 2306 416 2321 473ZM2509 390L2453 107C2452 99 2440 61 2440 31C2440 6 2451 -9 2470 -9C2505 -9 2540 11 2618 74L2649 99L2639 117L2594 86C2565 66 2545 56 2534 56C2525 56 2520 64 2520 76C2520 102 2534 183 2563 328L2576 390L2683 390L2694 440C2656 436 2622 434 2584 434C2600 528 2611 577 2629 631L2618 646C2598 634 2571 622 2540 610L2515 440C2471 419 2445 408 2427 403L2425 390Z" stroke="rgb(0,0,0)" stroke-opacity="1" stroke-width="8" fill="rgb(0,0,0)" fill-opacity="1"></path></g></g><g><g transform="matrix(1,0,0,1,469.23333740234375,151.53335571289062)"><path transform="matrix(0.017,0,0,-0.017,0,0)" d="M604 347L604 406L65 406L65 347ZM604 134L604 193L65 193L65 134Z" stroke="rgb(0,0,0)" stroke-opacity="1" stroke-width="8" fill="rgb(0,0,0)" fill-opacity="1"></path></g></g><g><g transform="matrix(1,0,0,1,485.683349609375,151.53335571289062)"><path transform="matrix(0.017,0,0,-0.017,0,0)" d="M667 -3L667 27L615 30C560 33 550 44 550 96L550 700L309 598L316 548L466 614L466 96C466 44 455 33 401 30L345 27L345 -3C499 0 499 0 510 0C541 0 651 -3 667 -3ZM1011 689C856 689 777 566 777 324C777 207 798 106 833 57C868 8 924 -20 986 -20C1137 -20 1213 110 1213 366C1213 585 1148 689 1011 689ZM993 654C1090 654 1129 556 1129 316C1129 103 1091 15 999 15C902 15 861 116 861 360C861 571 898 654 993 654Z" stroke="rgb(0,0,0)" stroke-opacity="1" stroke-width="8" fill="rgb(0,0,0)" fill-opacity="1"></path></g></g></g></g><g><g><g><g transform="matrix(1,0,0,1,19.7166748046875,31.533340454101562)"><path transform="matrix(0.017,0,0,-0.017,0,0)" d="M-7 -180C-8 -187 -8 -193 -8 -198C-8 -241 29 -276 74 -276C180 -276 290 -152 349 33L490 473L479 482C450 471 427 465 405 463L370 331C358 284 323 211 290 162C255 111 206 67 184 67C172 67 163 90 164 115L180 322C182 353 184 391 184 419C184 464 177 482 160 482C147 482 133 475 85 442L3 386L14 368L64 398C69 401 80 410 89 410C103 410 111 391 111 358C111 357 111 351 110 343L93 100L92 60C92 18 110 -11 135 -11C172 -11 256 74 331 187L282 16C231 -161 181 -234 111 -234C76 -234 49 -207 49 -172C49 -167 50 -159 51 -150L41 -146Z" stroke="rgb(0,0,0)" stroke-opacity="1" stroke-width="8" fill="rgb(0,0,0)" fill-opacity="1"></path></g></g><g><g><g><g><g transform="matrix(1,0,0,1,28.7166748046875,34.71666564941406)"><path transform="matrix(0.0119,0,0,-0.0119,0,0)" d="M176 -11C232 -11 347 62 390 125C431 186 465 296 465 371C465 438 442 482 406 482C364 482 311 456 259 409C218 374 198 348 162 289L186 408C189 425 191 440 191 452C191 471 183 482 169 482C148 482 110 461 36 408L8 388L15 368L47 389C75 407 86 412 95 412C105 412 112 403 112 389C112 381 110 361 108 351L50 8C40 -52 21 -143 1 -233L-7 -270L0 -276C21 -269 41 -264 73 -259L115 3C136 -4 158 -11 176 -11ZM143 165C165 293 272 424 355 424C381 424 393 402 393 356C393 275 353 156 300 80C280 51 248 36 207 36C176 36 151 43 125 59Z" stroke="rgb(0,0,0)" stroke-opacity="1" stroke-width="8" fill="rgb(0,0,0)" fill-opacity="1"></path></g></g></g></g></g><g><g><g><g><g transform="matrix(1,0,0,1,36.183319091796875,34.71666564941406)"><path transform="matrix(0.0119,0,0,-0.0119,0,0)" d="M368 365C371 403 376 435 384 476C373 481 369 482 364 482C333 482 302 458 266 407C227 351 188 291 172 256L204 408C208 425 210 438 210 450C210 470 202 482 187 482C166 482 128 461 54 408L26 388L33 368L65 389C93 407 104 412 113 412C123 412 130 403 130 390C130 332 87 126 47 -2L57 -9C72 -4 88 -1 111 4L124 6L150 126C168 209 191 262 235 319C269 363 296 384 318 384C333 384 343 379 354 365Z" stroke="rgb(0,0,0)" stroke-opacity="1" stroke-width="8" fill="rgb(0,0,0)" fill-opacity="1"></path></g></g></g></g></g><g><g><g><g><g transform="matrix(1,0,0,1,42.33331298828125,34.71666564941406)"><path transform="matrix(0.0119,0,0,-0.0119,0,0)" d="M328 111L304 94C251 56 203 36 167 36C120 36 91 73 91 133C91 158 94 185 99 214C116 218 225 248 250 259C335 296 374 342 374 404C374 451 340 482 290 482C222 496 112 423 75 349C45 299 15 180 15 113C15 35 59 -11 131 -11C188 -11 244 17 336 92ZM113 274C130 343 150 386 179 412C197 428 228 440 252 440C281 440 300 420 300 388C300 344 265 297 213 272C185 258 149 247 104 237Z" stroke="rgb(0,0,0)" stroke-opacity="1" stroke-width="8" fill="rgb(0,0,0)" fill-opacity="1"></path></g></g></g></g></g><g><g><g><g><g transform="matrix(1,0,0,1,48.48333740234375,34.71666564941406)"><path transform="matrix(0.0119,0,0,-0.0119,0,0)" d="M483 722L471 733C419 707 383 698 311 691L307 670L355 670C379 670 389 663 389 646C389 638 388 629 387 622L359 468C329 477 302 482 277 482C208 482 114 410 68 323C37 265 17 170 17 86C17 21 32 -11 61 -11C88 -11 125 6 159 33C213 77 246 116 313 217L290 126C279 82 274 50 274 24C274 3 283 -9 300 -9C317 -9 341 3 375 28L456 88L446 107L402 76C388 66 372 59 363 59C355 59 349 68 349 82C349 90 350 99 357 128ZM114 59C98 59 89 73 89 98C89 224 135 380 184 418C197 428 216 433 243 433C287 433 316 427 349 410L337 351C300 171 159 59 114 59Z" stroke="rgb(0,0,0)" stroke-opacity="1" stroke-width="8" fill="rgb(0,0,0)" fill-opacity="1"></path></g></g></g></g></g><g><g transform="matrix(1,0,0,1,55.433349609375,31.533340454101562)"><path transform="matrix(0.017,0,0,-0.017,0,0)" d="" stroke="rgb(0,0,0)" stroke-opacity="1" stroke-width="8" fill="rgb(0,0,0)" fill-opacity="1"></path></g></g><g><g transform="matrix(1,0,0,1,64.76666259765625,31.533340454101562)"><path transform="matrix(0.017,0,0,-0.017,0,0)" d="M604 347L604 406L65 406L65 347ZM604 134L604 193L65 193L65 134Z" stroke="rgb(0,0,0)" stroke-opacity="1" stroke-width="8" fill="rgb(0,0,0)" fill-opacity="1"></path></g></g><g><g transform="matrix(1,0,0,1,81.2166748046875,31.533340454101562)"><path transform="matrix(0.017,0,0,-0.017,0,0)" d="M283 388L290 368L322 389C359 412 362 414 369 414C379 414 387 404 387 391C387 384 383 361 379 347L313 107C305 76 300 49 300 30C300 6 311 -9 330 -9C356 -9 392 12 490 85L480 103L454 86C425 67 402 56 393 56C386 56 380 66 380 76C380 86 382 95 387 116L464 420C468 437 470 448 470 456C470 473 461 482 445 482C423 482 386 461 311 408ZM477 712C448 712 419 679 419 645C419 620 434 604 458 604C489 604 513 633 513 671C513 695 498 712 477 712ZM550 388L557 368L589 389C626 412 629 414 636 414C647 414 654 404 654 389C654 338 613 145 572 2L579 -9C604 -2 627 4 649 8C668 134 689 199 735 268C789 352 864 414 909 414C920 414 926 405 926 390C926 372 923 351 915 319L863 107C854 70 850 47 850 31C850 6 861 -9 880 -9C906 -9 942 12 1040 85L1030 103L1004 86C975 67 953 56 943 56C936 56 930 65 930 76C930 81 931 92 932 96L998 372C1005 401 1009 429 1009 446C1009 469 998 482 978 482C936 482 867 444 808 389C770 354 742 320 690 247L728 408C732 426 734 438 734 449C734 470 726 482 711 482C690 482 651 460 578 408ZM1257 -11C1313 -11 1428 62 1471 125C1512 186 1546 296 1546 371C1546 438 1523 482 1487 482C1445 482 1392 456 1340 409C1299 374 1279 348 1243 289L1267 408C1270 425 1272 440 1272 452C1272 471 1264 482 1250 482C1229 482 1191 461 1117 408L1089 388L1096 368L1128 389C1156 407 1167 412 1176 412C1186 412 1193 403 1193 389C1193 381 1191 361 1189 351L1131 8C1121 -52 1102 -143 1082 -233L1074 -270L1081 -276C1102 -269 1122 -264 1154 -259L1196 3C1217 -4 1239 -11 1257 -11ZM1224 165C1246 293 1353 424 1436 424C1462 424 1474 402 1474 356C1474 275 1434 156 1381 80C1361 51 1329 36 1288 36C1257 36 1232 43 1206 59ZM2072 473L2065 482L1997 465L1987 414C1972 336 1947 268 1916 221C1857 130 1779 59 1739 59C1731 59 1726 68 1726 85C1726 99 1728 112 1733 137L1790 408C1793 424 1795 438 1795 451C1795 470 1786 482 1772 482C1752 482 1714 461 1640 408L1612 388L1619 368L1651 389C1679 407 1690 412 1699 412C1708 412 1716 403 1716 392C1716 388 1715 378 1714 374L1651 77C1649 68 1647 44 1647 30C1647 7 1662 -11 1682 -11C1745 -11 1866 101 1950 239L1913 97C1906 73 1902 46 1902 31C1902 6 1913 -9 1932 -9C1958 -9 1994 12 2092 85L2082 103L2056 86C2032 70 2006 59 1995 59C1987 59 1982 66 1982 76C1982 112 2057 416 2072 473ZM2260 390L2204 107C2203 99 2191 61 2191 31C2191 6 2202 -9 2221 -9C2256 -9 2291 11 2369 74L2400 99L2390 117L2345 86C2316 66 2296 56 2285 56C2276 56 2271 64 2271 76C2271 102 2285 183 2314 328L2327 390L2434 390L2445 440C2407 436 2373 434 2335 434C2351 528 2362 577 2380 631L2369 646C2349 634 2322 622 2291 610L2266 440C2222 419 2196 408 2178 403L2176 390ZM2884 267L2753 213L2748 204L2784 153L2794 153L2900 241L2918 99L2928 95L2996 121L2996 131L2928 253L3066 233L3075 241L3075 303L3069 307L2930 283L2999 408L2996 423L2934 442L2925 438L2899 295L2804 393L2794 393L2750 341L2753 331ZM3520 420C3541 420 3554 421 3579 424C3524 350 3425 266 3425 126C3425 44 3460 -11 3513 -11C3577 -11 3629 44 3703 187C3694 143 3691 118 3691 95C3691 32 3720 -11 3765 -11C3899 -11 4052 238 4052 384C4052 441 4026 482 3990 482C3977 482 3965 478 3957 470L3907 423L3918 404C3927 410 3936 413 3945 413C3972 413 3988 390 3988 350C3988 205 3891 39 3806 39C3777 39 3756 79 3756 134C3756 181 3765 247 3777 290L3829 474L3822 482L3748 460L3719 311C3707 249 3693 209 3664 155C3624 80 3586 39 3556 39C3521 39 3498 78 3498 136C3498 255 3539 352 3638 464L3628 482C3608 473 3595 470 3567 470C3539 470 3497 472 3468 475L3456 476C3450 477 3445 477 3444 477C3432 477 3423 475 3412 470C3398 443 3387 407 3374 352L3396 352L3413 394C3420 411 3440 422 3464 422C3498 422 3481 420 3520 420Z" stroke="rgb(0,0,0)" stroke-opacity="1" stroke-width="8" fill="rgb(0,0,0)" fill-opacity="1"></path></g></g><g><g transform="matrix(1,0,0,1,159.816650390625,31.533340454101562)"><path transform="matrix(0.017,0,0,-0.017,0,0)" d="M604 347L604 406L65 406L65 347ZM604 134L604 193L65 193L65 134Z" stroke="rgb(0,0,0)" stroke-opacity="1" stroke-width="8" fill="rgb(0,0,0)" fill-opacity="1"></path></g></g><g><g transform="matrix(1,0,0,1,176.26666259765625,31.533340454101562)"><path transform="matrix(0.017,0,0,-0.017,0,0)" d="M265 23L265 -3C452 -3 452 0 488 0C524 0 524 -3 717 -3L717 82C602 77 556 81 371 77L553 270C650 373 680 428 680 503C680 618 602 689 475 689C403 689 354 669 305 619L288 483L317 483L330 529C346 587 382 612 449 612C535 612 590 558 590 473C590 398 548 324 435 204ZM1165 267L1034 213L1029 204L1065 153L1075 153L1181 241L1199 99L1209 95L1277 121L1277 131L1209 253L1347 233L1356 241L1356 303L1350 307L1211 283L1280 408L1277 423L1215 442L1206 438L1180 295L1085 393L1075 393L1031 341L1034 331ZM2052 -3L2052 27L2000 30C1945 33 1935 44 1935 96L1935 700L1694 598L1701 548L1851 614L1851 96C1851 44 1840 33 1786 30L1730 27L1730 -3C1884 0 1884 0 1895 0C1926 0 2036 -3 2052 -3Z" stroke="rgb(0,0,0)" stroke-opacity="1" stroke-width="8" fill="rgb(0,0,0)" fill-opacity="1"></path></g></g><g><g transform="matrix(1,0,0,1,221.86663818359375,31.533340454101562)"><path transform="matrix(0.017,0,0,-0.017,0,0)" d="M604 347L604 406L65 406L65 347ZM604 134L604 193L65 193L65 134Z" stroke="rgb(0,0,0)" stroke-opacity="1" stroke-width="8" fill="rgb(0,0,0)" fill-opacity="1"></path></g></g><g><g transform="matrix(1,0,0,1,238.316650390625,31.533340454101562)"><path transform="matrix(0.017,0,0,-0.017,0,0)" d="M265 23L265 -3C452 -3 452 0 488 0C524 0 524 -3 717 -3L717 82C602 77 556 81 371 77L553 270C650 373 680 428 680 503C680 618 602 689 475 689C403 689 354 669 305 619L288 483L317 483L330 529C346 587 382 612 449 612C535 612 590 558 590 473C590 398 548 324 435 204Z" stroke="rgb(0,0,0)" stroke-opacity="1" stroke-width="8" fill="rgb(0,0,0)" fill-opacity="1"></path></g></g></g></g><g><g><g><g transform="matrix(1,0,0,1,20.7166748046875,60.53334045410156)"><path transform="matrix(0.017,0,0,-0.017,0,0)" d="M-7 -180C-8 -187 -8 -193 -8 -198C-8 -241 29 -276 74 -276C180 -276 290 -152 349 33L490 473L479 482C450 471 427 465 405 463L370 331C358 284 323 211 290 162C255 111 206 67 184 67C172 67 163 90 164 115L180 322C182 353 184 391 184 419C184 464 177 482 160 482C147 482 133 475 85 442L3 386L14 368L64 398C69 401 80 410 89 410C103 410 111 391 111 358C111 357 111 351 110 343L93 100L92 60C92 18 110 -11 135 -11C172 -11 256 74 331 187L282 16C231 -161 181 -234 111 -234C76 -234 49 -207 49 -172C49 -167 50 -159 51 -150L41 -146Z" stroke="rgb(0,0,0)" stroke-opacity="1" stroke-width="8" fill="rgb(0,0,0)" fill-opacity="1"></path></g></g><g><g transform="matrix(1,0,0,1,38.5333251953125,60.53334045410156)"><path transform="matrix(0.017,0,0,-0.017,0,0)" d="M604 347L604 406L65 406L65 347ZM604 134L604 193L65 193L65 134Z" stroke="rgb(0,0,0)" stroke-opacity="1" stroke-width="8" fill="rgb(0,0,0)" fill-opacity="1"></path></g></g><g><g transform="matrix(1,0,0,1,54.98333740234375,60.53334045410156)"><path transform="matrix(0.017,0,0,-0.017,0,0)" d="M667 -3L667 27L615 30C560 33 550 44 550 96L550 700L309 598L316 548L466 614L466 96C466 44 455 33 401 30L345 27L345 -3C499 0 499 0 510 0C541 0 651 -3 667 -3ZM1011 689C856 689 777 566 777 324C777 207 798 106 833 57C868 8 924 -20 986 -20C1137 -20 1213 110 1213 366C1213 585 1148 689 1011 689ZM993 654C1090 654 1129 556 1129 316C1129 103 1091 15 999 15C902 15 861 116 861 360C861 571 898 654 993 654Z" stroke="rgb(0,0,0)" stroke-opacity="1" stroke-width="8" fill="rgb(0,0,0)" fill-opacity="1"></path></g></g></g></g><g><g><g><g transform="matrix(1,0,0,1,21.7166748046875,97.13333129882812)"><path transform="matrix(0.017,0,0,-0.017,0,0)" d="M251 722L239 733C187 707 151 698 79 691L75 670L123 670C147 670 157 663 157 648C157 645 157 640 154 622C143 567 70 182 55 132C42 82 36 52 36 31C36 6 47 -9 66 -9C92 -9 128 12 226 85L216 103L190 86C161 67 139 56 129 56C122 56 116 66 116 76C116 82 117 89 120 104ZM294 152C294 46 339 -11 422 -11C477 -11 537 15 582 57C644 116 688 230 688 331C688 425 638 482 555 482C451 482 294 382 294 152ZM518 444C579 444 612 399 612 315C612 219 581 113 537 60C519 39 493 27 462 27C404 27 370 72 370 151C370 264 409 387 458 427C471 438 494 444 518 444ZM751 148C746 97 740 62 729 16C767 -2 801 -11 836 -11C885 -11 931 7 982 47C1033 87 1054 124 1054 174C1054 228 1022 257 948 271L905 279C845 290 826 307 826 348C826 401 871 442 928 442C969 442 1007 424 1023 397L1023 342L1046 342C1050 377 1054 404 1065 455C1026 474 998 482 965 482C913 482 852 452 804 404C778 377 767 352 767 316C767 260 798 228 864 215L927 203C971 195 987 177 987 138C987 73 941 29 870 29C835 29 804 40 776 64L776 148ZM1139 148C1134 97 1128 62 1117 16C1155 -2 1189 -11 1224 -11C1273 -11 1319 7 1370 47C1421 87 1442 124 1442 174C1442 228 1410 257 1336 271L1293 279C1233 290 1214 307 1214 348C1214 401 1259 442 1316 442C1357 442 1395 424 1411 397L1411 342L1434 342C1438 377 1442 404 1453 455C1414 474 1386 482 1353 482C1301 482 1240 452 1192 404C1166 377 1155 352 1155 316C1155 260 1186 228 1252 215L1315 203C1359 195 1375 177 1375 138C1375 73 1329 29 1258 29C1223 29 1192 40 1164 64L1164 148Z" stroke="rgb(0,0,0)" stroke-opacity="1" stroke-width="8" fill="rgb(0,0,0)" fill-opacity="1"></path></g></g><g><g transform="matrix(1,0,0,1,56.5,97.13333129882812)"><path transform="matrix(0.017,0,0,-0.017,0,0)" d="M604 347L604 406L65 406L65 347ZM604 134L604 193L65 193L65 134Z" stroke="rgb(0,0,0)" stroke-opacity="1" stroke-width="8" fill="rgb(0,0,0)" fill-opacity="1"></path></g></g><g><g transform="matrix(1,0,0,1,72.95001220703125,97.13333129882812)"><path transform="matrix(0.017,0,0,-0.017,0,0)" d="" stroke="rgb(0,0,0)" stroke-opacity="1" stroke-width="8" fill="rgb(0,0,0)" fill-opacity="1"></path></g></g><g><g transform="matrix(1,0,0,1,77.183349609375,97.31668090820312)"><path transform="matrix(0.017,0,0,-0.017,0,0)" d="M146 266C146 526 243 632 301 700L282 726C225 675 60 542 60 266C60 159 85 58 133 -32C168 -99 200 -138 282 -215L301 -194C255 -137 146 -15 146 266Z" stroke="rgb(0,0,0)" stroke-opacity="1" stroke-width="8" fill="rgb(0,0,0)" fill-opacity="1"></path></g></g><g><g transform="matrix(1,0,0,1,82.83331298828125,97.13333129882812)"><path transform="matrix(0.017,0,0,-0.017,0,0)" d="M-7 -180C-8 -187 -8 -193 -8 -198C-8 -241 29 -276 74 -276C180 -276 290 -152 349 33L490 473L479 482C450 471 427 465 405 463L370 331C358 284 323 211 290 162C255 111 206 67 184 67C172 67 163 90 164 115L180 322C182 353 184 391 184 419C184 464 177 482 160 482C147 482 133 475 85 442L3 386L14 368L64 398C69 401 80 410 89 410C103 410 111 391 111 358C111 357 111 351 110 343L93 100L92 60C92 18 110 -11 135 -11C172 -11 256 74 331 187L282 16C231 -161 181 -234 111 -234C76 -234 49 -207 49 -172C49 -167 50 -159 51 -150L41 -146Z" stroke="rgb(0,0,0)" stroke-opacity="1" stroke-width="8" fill="rgb(0,0,0)" fill-opacity="1"></path></g></g><g><g><g><g><g transform="matrix(1,0,0,1,91.83331298828125,100.31665649414063)"><path transform="matrix(0.0119,0,0,-0.0119,0,0)" d="M176 -11C232 -11 347 62 390 125C431 186 465 296 465 371C465 438 442 482 406 482C364 482 311 456 259 409C218 374 198 348 162 289L186 408C189 425 191 440 191 452C191 471 183 482 169 482C148 482 110 461 36 408L8 388L15 368L47 389C75 407 86 412 95 412C105 412 112 403 112 389C112 381 110 361 108 351L50 8C40 -52 21 -143 1 -233L-7 -270L0 -276C21 -269 41 -264 73 -259L115 3C136 -4 158 -11 176 -11ZM143 165C165 293 272 424 355 424C381 424 393 402 393 356C393 275 353 156 300 80C280 51 248 36 207 36C176 36 151 43 125 59Z" stroke="rgb(0,0,0)" stroke-opacity="1" stroke-width="8" fill="rgb(0,0,0)" fill-opacity="1"></path></g></g></g></g></g><g><g><g><g><g transform="matrix(1,0,0,1,99.29998779296875,100.31665649414063)"><path transform="matrix(0.0119,0,0,-0.0119,0,0)" d="M368 365C371 403 376 435 384 476C373 481 369 482 364 482C333 482 302 458 266 407C227 351 188 291 172 256L204 408C208 425 210 438 210 450C210 470 202 482 187 482C166 482 128 461 54 408L26 388L33 368L65 389C93 407 104 412 113 412C123 412 130 403 130 390C130 332 87 126 47 -2L57 -9C72 -4 88 -1 111 4L124 6L150 126C168 209 191 262 235 319C269 363 296 384 318 384C333 384 343 379 354 365Z" stroke="rgb(0,0,0)" stroke-opacity="1" stroke-width="8" fill="rgb(0,0,0)" fill-opacity="1"></path></g></g></g></g></g><g><g><g><g><g transform="matrix(1,0,0,1,105.45001220703125,100.31665649414063)"><path transform="matrix(0.0119,0,0,-0.0119,0,0)" d="M328 111L304 94C251 56 203 36 167 36C120 36 91 73 91 133C91 158 94 185 99 214C116 218 225 248 250 259C335 296 374 342 374 404C374 451 340 482 290 482C222 496 112 423 75 349C45 299 15 180 15 113C15 35 59 -11 131 -11C188 -11 244 17 336 92ZM113 274C130 343 150 386 179 412C197 428 228 440 252 440C281 440 300 420 300 388C300 344 265 297 213 272C185 258 149 247 104 237Z" stroke="rgb(0,0,0)" stroke-opacity="1" stroke-width="8" fill="rgb(0,0,0)" fill-opacity="1"></path></g></g></g></g></g><g><g><g><g><g transform="matrix(1,0,0,1,111.5999755859375,100.31665649414063)"><path transform="matrix(0.0119,0,0,-0.0119,0,0)" d="M483 722L471 733C419 707 383 698 311 691L307 670L355 670C379 670 389 663 389 646C389 638 388 629 387 622L359 468C329 477 302 482 277 482C208 482 114 410 68 323C37 265 17 170 17 86C17 21 32 -11 61 -11C88 -11 125 6 159 33C213 77 246 116 313 217L290 126C279 82 274 50 274 24C274 3 283 -9 300 -9C317 -9 341 3 375 28L456 88L446 107L402 76C388 66 372 59 363 59C355 59 349 68 349 82C349 90 350 99 357 128ZM114 59C98 59 89 73 89 98C89 224 135 380 184 418C197 428 216 433 243 433C287 433 316 427 349 410L337 351C300 171 159 59 114 59Z" stroke="rgb(0,0,0)" stroke-opacity="1" stroke-width="8" fill="rgb(0,0,0)" fill-opacity="1"></path></g></g></g></g></g><g><g transform="matrix(1,0,0,1,118.54998779296875,97.13333129882812)"><path transform="matrix(0.017,0,0,-0.017,0,0)" d="" stroke="rgb(0,0,0)" stroke-opacity="1" stroke-width="8" fill="rgb(0,0,0)" fill-opacity="1"></path></g></g><g><g transform="matrix(1,0,0,1,126.183349609375,97.13333129882812)"><path transform="matrix(0.017,0,0,-0.017,0,0)" d="M555 243L555 299L51 299L51 243Z" stroke="rgb(0,0,0)" stroke-opacity="1" stroke-width="8" fill="rgb(0,0,0)" fill-opacity="1"></path></g></g><g><g transform="matrix(1,0,0,1,139.86663818359375,97.13333129882812)"><path transform="matrix(0.017,0,0,-0.017,0,0)" d="M242 -180C241 -187 241 -193 241 -198C241 -241 278 -276 323 -276C429 -276 539 -152 598 33L739 473L728 482C699 471 676 465 654 463L619 331C607 284 572 211 539 162C504 111 455 67 433 67C421 67 412 90 413 115L429 322C431 353 433 391 433 419C433 464 426 482 409 482C396 482 382 475 334 442L252 386L263 368L313 398C318 401 329 410 338 410C352 410 360 391 360 358C360 357 360 351 359 343L342 100L341 60C341 18 359 -11 384 -11C421 -11 505 74 580 187L531 16C480 -161 430 -234 360 -234C325 -234 298 -207 298 -172C298 -167 299 -159 300 -150L290 -146Z" stroke="rgb(0,0,0)" stroke-opacity="1" stroke-width="8" fill="rgb(0,0,0)" fill-opacity="1"></path></g></g><g><g><g></g></g></g><g><g transform="matrix(1,0,0,1,160.066650390625,97.31668090820312)"><path transform="matrix(0.017,0,0,-0.017,0,0)" d="M51 726L32 700C87 636 187 526 187 266C187 -10 83 -131 32 -194L51 -215C104 -165 273 -23 273 265C273 542 108 675 51 726Z" stroke="rgb(0,0,0)" stroke-opacity="1" stroke-width="8" fill="rgb(0,0,0)" fill-opacity="1"></path></g></g><g><g><g><g><g transform="matrix(1,0,0,1,166.7166748046875,90.6166748046875)"><path transform="matrix(0.0119,0,0,-0.0119,0,0)" d="M16 23L16 -3C203 -3 203 0 239 0C275 0 275 -3 468 -3L468 82C353 77 307 81 122 77L304 270C401 373 431 428 431 503C431 618 353 689 226 689C154 689 105 669 56 619L39 483L68 483L81 529C97 587 133 612 200 612C286 612 341 558 341 473C341 398 299 324 186 204Z" stroke="rgb(0,0,0)" stroke-opacity="1" stroke-width="8" fill="rgb(0,0,0)" fill-opacity="1"></path></g></g></g></g></g></g></g></svg>
</svg>
