<svg xmlns="http://www.w3.org/2000/svg" xmlns:xlink="http://www.w3.org/1999/xlink" x="0" y="0" width="661.3333129882812" height="311.33331298828125" style="
        width:661.3333129882812px;
        height:311.33331298828125px;
        background: #FFF;
        fill: none;
">
        <svg xmlns="http://www.w3.org/2000/svg"/>
        
        <svg xmlns="http://www.w3.org/2000/svg" class="role-diagram-draw-area"><g class="shapes-region" style="stroke: black; fill: none;"><g class="composite-shape"><path class="real" d=" M154.3,180.35 C154.3,137.08 189.38,102 232.65,102 C275.92,102 311,137.08 311,180.35 C311,223.62 275.92,258.7 232.65,258.7 C189.38,258.7 154.3,223.62 154.3,180.35 Z" style="stroke-width: 3px; stroke: rgb(74, 144, 226); fill: none; fill-opacity: 1; stroke-opacity: 1;"/></g><g class="arrow-line"><path class="connection real" stroke-dasharray="" d="  M49.28,182.85 L604.33,181.2" style="stroke: rgb(0, 0, 0); stroke-width: 1px; fill: none; fill-opacity: 1;"/></g><g class="composite-shape"><path class="real" d=" M363.3,181.35 C363.3,138.08 398.38,103 441.65,103 C484.92,103 520,138.08 520,181.35 C520,224.62 484.92,259.7 441.65,259.7 C398.38,259.7 363.3,224.62 363.3,181.35 Z" style="stroke-width: 3px; stroke: rgb(245, 166, 35); fill: none; fill-opacity: 1; stroke-opacity: 1;"/></g><g class="composite-shape"><path class="real" d=" M587.33,167.53 L605,181.27 L587.33,195" style="stroke-width: 1px; stroke: rgb(0, 0, 0); fill: none; fill-opacity: 1;"/></g><g/></g><g/><g/><g/></svg>
        <svg xmlns="http://www.w3.org/2000/svg" xmlns:xlink="http://www.w3.org/1999/xlink" width="660" height="310" style="width:660px;height:310px;font-family:Asana-Math, Asana;background:#FFF;"><g><g><g><g transform="matrix(1,0,0,1,52.6666259765625,172.53330993652344)"><path transform="matrix(0.017,0,0,-0.017,0,0)" d="M781 388L788 368L820 389C857 412 860 414 867 414C877 414 885 404 885 391C885 384 881 361 877 347L811 107C803 76 798 49 798 30C798 6 809 -9 828 -9C854 -9 890 12 988 85L978 103L952 86C923 67 900 56 891 56C884 56 878 66 878 76C878 86 880 95 885 116L962 420C966 437 968 448 968 456C968 473 959 482 943 482C921 482 884 461 809 408ZM975 712C946 712 917 679 917 645C917 620 932 604 956 604C987 604 1011 633 1011 671C1011 695 996 712 975 712ZM1048 388L1055 368L1087 389C1124 412 1127 414 1134 414C1145 414 1152 404 1152 389C1152 338 1111 145 1070 2L1077 -9C1102 -2 1125 4 1147 8C1166 134 1187 199 1233 268C1287 352 1362 414 1407 414C1418 414 1424 405 1424 390C1424 372 1421 351 1413 319L1361 107C1352 70 1348 47 1348 31C1348 6 1359 -9 1378 -9C1404 -9 1440 12 1538 85L1528 103L1502 86C1473 67 1451 56 1441 56C1434 56 1428 65 1428 76C1428 81 1429 92 1430 96L1496 372C1503 401 1507 429 1507 446C1507 469 1496 482 1476 482C1434 482 1365 444 1306 389C1268 354 1240 320 1188 247L1226 408C1230 426 1232 438 1232 449C1232 470 1224 482 1209 482C1188 482 1149 460 1076 408ZM1755 -11C1811 -11 1926 62 1969 125C2010 186 2044 296 2044 371C2044 438 2021 482 1985 482C1943 482 1890 456 1838 409C1797 374 1777 348 1741 289L1765 408C1768 425 1770 440 1770 452C1770 471 1762 482 1748 482C1727 482 1689 461 1615 408L1587 388L1594 368L1626 389C1654 407 1665 412 1674 412C1684 412 1691 403 1691 389C1691 381 1689 361 1687 351L1629 8C1619 -52 1600 -143 1580 -233L1572 -270L1579 -276C1600 -269 1620 -264 1652 -259L1694 3C1715 -4 1737 -11 1755 -11ZM1722 165C1744 293 1851 424 1934 424C1960 424 1972 402 1972 356C1972 275 1932 156 1879 80C1859 51 1827 36 1786 36C1755 36 1730 43 1704 59ZM2570 473L2563 482L2495 465L2485 414C2470 336 2445 268 2414 221C2355 130 2277 59 2237 59C2229 59 2224 68 2224 85C2224 99 2226 112 2231 137L2288 408C2291 424 2293 438 2293 451C2293 470 2284 482 2270 482C2250 482 2212 461 2138 408L2110 388L2117 368L2149 389C2177 407 2188 412 2197 412C2206 412 2214 403 2214 392C2214 388 2213 378 2212 374L2149 77C2147 68 2145 44 2145 30C2145 7 2160 -11 2180 -11C2243 -11 2364 101 2448 239L2411 97C2404 73 2400 46 2400 31C2400 6 2411 -9 2430 -9C2456 -9 2492 12 2590 85L2580 103L2554 86C2530 70 2504 59 2493 59C2485 59 2480 66 2480 76C2480 112 2555 416 2570 473ZM2758 390L2702 107C2701 99 2689 61 2689 31C2689 6 2700 -9 2719 -9C2754 -9 2789 11 2867 74L2898 99L2888 117L2843 86C2814 66 2794 56 2783 56C2774 56 2769 64 2769 76C2769 102 2783 183 2812 328L2825 390L2932 390L2943 440C2905 436 2871 434 2833 434C2849 528 2860 577 2878 631L2867 646C2847 634 2820 622 2789 610L2764 440C2720 419 2694 408 2676 403L2674 390Z" stroke="rgb(0,0,0)" stroke-opacity="1" stroke-width="8" fill="rgb(0,0,0)" fill-opacity="1"></path></g></g></g></g><g><g><g><g><g><g><g transform="matrix(1,0,0,1,168.6666259765625,174.6666717529297)"><path transform="matrix(0.017,0,0,-0.017,0,0)" d="M146 266C146 526 243 632 301 700L282 726C225 675 60 542 60 266C60 159 85 58 133 -32C168 -99 200 -138 282 -215L301 -194C255 -137 146 -15 146 266Z" stroke="rgb(0,0,0)" stroke-opacity="1" stroke-width="8" fill="rgb(0,0,0)" fill-opacity="1"></path></g></g><g><g transform="matrix(1,0,0,1,174.316650390625,174.53330993652344)"><path transform="matrix(0.017,0,0,-0.017,0,0)" d="M34 388L41 368L73 389C110 412 113 414 120 414C130 414 138 404 138 391C138 384 134 361 130 347L64 107C56 76 51 49 51 30C51 6 62 -9 81 -9C107 -9 143 12 241 85L231 103L205 86C176 67 153 56 144 56C137 56 131 66 131 76C131 86 133 95 138 116L215 420C219 437 221 448 221 456C221 473 212 482 196 482C174 482 137 461 62 408ZM228 712C199 712 170 679 170 645C170 620 185 604 209 604C240 604 264 633 264 671C264 695 249 712 228 712ZM301 388L308 368L340 389C377 412 380 414 387 414C398 414 405 404 405 389C405 338 364 145 323 2L330 -9C355 -2 378 4 400 8C419 134 440 199 486 268C540 352 615 414 660 414C671 414 677 405 677 390C677 372 674 351 666 319L614 107C605 70 601 47 601 31C601 6 612 -9 631 -9C657 -9 693 12 791 85L781 103L755 86C726 67 704 56 694 56C687 56 681 65 681 76C681 81 682 92 683 96L749 372C756 401 760 429 760 446C760 469 749 482 729 482C687 482 618 444 559 389C521 354 493 320 441 247L479 408C483 426 485 438 485 449C485 470 477 482 462 482C441 482 402 460 329 408ZM1008 -11C1064 -11 1179 62 1222 125C1263 186 1297 296 1297 371C1297 438 1274 482 1238 482C1196 482 1143 456 1091 409C1050 374 1030 348 994 289L1018 408C1021 425 1023 440 1023 452C1023 471 1015 482 1001 482C980 482 942 461 868 408L840 388L847 368L879 389C907 407 918 412 927 412C937 412 944 403 944 389C944 381 942 361 940 351L882 8C872 -52 853 -143 833 -233L825 -270L832 -276C853 -269 873 -264 905 -259L947 3C968 -4 990 -11 1008 -11ZM975 165C997 293 1104 424 1187 424C1213 424 1225 402 1225 356C1225 275 1185 156 1132 80C1112 51 1080 36 1039 36C1008 36 983 43 957 59ZM1823 473L1816 482L1748 465L1738 414C1723 336 1698 268 1667 221C1608 130 1530 59 1490 59C1482 59 1477 68 1477 85C1477 99 1479 112 1484 137L1541 408C1544 424 1546 438 1546 451C1546 470 1537 482 1523 482C1503 482 1465 461 1391 408L1363 388L1370 368L1402 389C1430 407 1441 412 1450 412C1459 412 1467 403 1467 392C1467 388 1466 378 1465 374L1402 77C1400 68 1398 44 1398 30C1398 7 1413 -11 1433 -11C1496 -11 1617 101 1701 239L1664 97C1657 73 1653 46 1653 31C1653 6 1664 -9 1683 -9C1709 -9 1745 12 1843 85L1833 103L1807 86C1783 70 1757 59 1746 59C1738 59 1733 66 1733 76C1733 112 1808 416 1823 473ZM2011 390L1955 107C1954 99 1942 61 1942 31C1942 6 1953 -9 1972 -9C2007 -9 2042 11 2120 74L2151 99L2141 117L2096 86C2067 66 2047 56 2036 56C2027 56 2022 64 2022 76C2022 102 2036 183 2065 328L2078 390L2185 390L2196 440C2158 436 2124 434 2086 434C2102 528 2113 577 2131 631L2120 646C2100 634 2073 622 2042 610L2017 440C1973 419 1947 408 1929 403L1927 390Z" stroke="rgb(0,0,0)" stroke-opacity="1" stroke-width="8" fill="rgb(0,0,0)" fill-opacity="1"></path></g></g><g><g transform="matrix(1,0,0,1,219.6666259765625,174.53330993652344)"><path transform="matrix(0.017,0,0,-0.017,0,0)" d="M124 319C94 319 67 291 67 261C67 231 94 203 123 203C155 203 183 230 183 260C183 291 155 319 124 319Z" stroke="rgb(0,0,0)" stroke-opacity="1" stroke-width="8" fill="rgb(0,0,0)" fill-opacity="1"></path></g></g><g><g transform="matrix(1,0,0,1,227.29998779296875,174.53330993652344)"><path transform="matrix(0.017,0,0,-0.017,0,0)" d="M416 420C437 420 450 421 475 424C420 350 321 266 321 126C321 44 356 -11 409 -11C473 -11 525 44 599 187C590 143 587 118 587 95C587 32 616 -11 661 -11C795 -11 948 238 948 384C948 441 922 482 886 482C873 482 861 478 853 470L803 423L814 404C823 410 832 413 841 413C868 413 884 390 884 350C884 205 787 39 702 39C673 39 652 79 652 134C652 181 661 247 673 290L725 474L718 482L644 460L615 311C603 249 589 209 560 155C520 80 482 39 452 39C417 39 394 78 394 136C394 255 435 352 534 464L524 482C504 473 491 470 463 470C435 470 393 472 364 475L352 476C346 477 341 477 340 477C328 477 319 475 308 470C294 443 283 407 270 352L292 352L309 394C316 411 336 422 360 422C394 422 377 420 416 420Z" stroke="rgb(0,0,0)" stroke-opacity="1" stroke-width="8" fill="rgb(0,0,0)" fill-opacity="1"></path></g></g><g><g><g><g><g transform="matrix(1,0,0,1,244.29998779296875,177.6666473388672)"><path transform="matrix(0.0119,0,0,-0.0119,0,0)" d="M418 -3L418 27L366 30C311 33 301 44 301 96L301 700L60 598L67 548L217 614L217 96C217 44 206 33 152 30L96 27L96 -3C250 0 250 0 261 0C292 0 402 -3 418 -3Z" stroke="rgb(0,0,0)" stroke-opacity="1" stroke-width="8" fill="rgb(0,0,0)" fill-opacity="1"></path></g></g></g></g></g><g><g transform="matrix(1,0,0,1,251.25,174.6666717529297)"><path transform="matrix(0.017,0,0,-0.017,0,0)" d="M51 726L32 700C87 636 187 526 187 266C187 -10 83 -131 32 -194L51 -215C104 -165 273 -23 273 265C273 542 108 675 51 726Z" stroke="rgb(0,0,0)" stroke-opacity="1" stroke-width="8" fill="rgb(0,0,0)" fill-opacity="1"></path></g></g><g><g transform="matrix(1,0,0,1,256.89996337890625,174.53330993652344)"><path transform="matrix(0.017,0,0,-0.017,0,0)" d="" stroke="rgb(0,0,0)" stroke-opacity="1" stroke-width="8" fill="rgb(0,0,0)" fill-opacity="1"></path></g></g><g><g transform="matrix(1,0,0,1,264.5333251953125,174.53330993652344)"><path transform="matrix(0.017,0,0,-0.017,0,0)" d="M604 241L604 300L364 300L364 538L305 538L305 300L65 300L65 241L305 241L305 0L364 0L364 241Z" stroke="rgb(0,0,0)" stroke-opacity="1" stroke-width="8" fill="rgb(0,0,0)" fill-opacity="1"></path></g></g><g><g transform="matrix(1,0,0,1,279.2833251953125,174.53330993652344)"><path transform="matrix(0.017,0,0,-0.017,0,0)" d="M484 722L472 733C420 707 384 698 312 691L308 670L356 670C380 670 390 663 390 646C390 639 389 628 388 622L287 71C286 68 286 64 286 61C286 22 334 -11 389 -11C426 -11 477 8 520 39C616 107 682 244 682 376C682 414 673 453 661 468C654 477 641 482 626 482C602 482 572 474 544 460C493 433 460 403 398 324ZM571 424C597 424 610 401 610 352C610 288 589 202 559 137C526 68 486 36 432 36C386 36 361 59 361 101C361 135 376 276 457 361C490 395 542 424 571 424Z" stroke="rgb(0,0,0)" stroke-opacity="1" stroke-width="8" fill="rgb(0,0,0)" fill-opacity="1"></path></g></g></g></g></g></g></g><g><g><g><g><g><g><g transform="matrix(1,0,0,1,329.6666259765625,175.53330993652344)"><path transform="matrix(0.017,0,0,-0.017,0,0)" d="M236 722L224 733C179 711 138 697 64 691L60 670L108 670C126 670 142 667 142 647C142 641 142 632 140 622L98 388C78 272 36 80 10 2L17 -9L86 7C94 64 108 164 148 236C193 317 296 414 338 414C349 414 360 407 360 393C360 375 355 342 345 303L294 107C288 85 281 55 281 31C281 6 291 -9 312 -9C344 -9 412 41 471 85L461 103L435 86C412 71 386 56 374 56C367 56 361 65 361 76C361 88 364 101 368 116L432 372C438 398 443 423 443 447C443 464 437 482 411 482C376 482 299 437 231 374C198 343 172 308 144 273L140 275Z" stroke="rgb(0,0,0)" stroke-opacity="1" stroke-width="8" fill="rgb(0,0,0)" fill-opacity="1"></path></g></g></g></g></g></g></g><g><g><g><g><g><g><g transform="matrix(1,0,0,1,421.6666259765625,173.53330993652344)"><path transform="matrix(0.017,0,0,-0.017,0,0)" d="M236 722L224 733C179 711 138 697 64 691L60 670L108 670C126 670 142 667 142 647C142 641 142 632 140 622L98 388C78 272 36 80 10 2L17 -9L86 7C94 64 108 164 148 236C193 317 296 414 338 414C349 414 360 407 360 393C360 375 355 342 345 303L294 107C288 85 281 55 281 31C281 6 291 -9 312 -9C344 -9 412 41 471 85L461 103L435 86C412 71 386 56 374 56C367 56 361 65 361 76C361 88 364 101 368 116L432 372C438 398 443 423 443 447C443 464 437 482 411 482C376 482 299 437 231 374C198 343 172 308 144 273L140 275Z" stroke="rgb(0,0,0)" stroke-opacity="1" stroke-width="8" fill="rgb(0,0,0)" fill-opacity="1"></path></g></g><g><g transform="matrix(1,0,0,1,437.7833251953125,173.53330993652344)"><path transform="matrix(0.017,0,0,-0.017,0,0)" d="M124 319C94 319 67 291 67 261C67 231 94 203 123 203C155 203 183 230 183 260C183 291 155 319 124 319Z" stroke="rgb(0,0,0)" stroke-opacity="1" stroke-width="8" fill="rgb(0,0,0)" fill-opacity="1"></path></g></g><g><g transform="matrix(1,0,0,1,445.4166259765625,173.53330993652344)"><path transform="matrix(0.017,0,0,-0.017,0,0)" d="M416 420C437 420 450 421 475 424C420 350 321 266 321 126C321 44 356 -11 409 -11C473 -11 525 44 599 187C590 143 587 118 587 95C587 32 616 -11 661 -11C795 -11 948 238 948 384C948 441 922 482 886 482C873 482 861 478 853 470L803 423L814 404C823 410 832 413 841 413C868 413 884 390 884 350C884 205 787 39 702 39C673 39 652 79 652 134C652 181 661 247 673 290L725 474L718 482L644 460L615 311C603 249 589 209 560 155C520 80 482 39 452 39C417 39 394 78 394 136C394 255 435 352 534 464L524 482C504 473 491 470 463 470C435 470 393 472 364 475L352 476C346 477 341 477 340 477C328 477 319 475 308 470C294 443 283 407 270 352L292 352L309 394C316 411 336 422 360 422C394 422 377 420 416 420Z" stroke="rgb(0,0,0)" stroke-opacity="1" stroke-width="8" fill="rgb(0,0,0)" fill-opacity="1"></path></g></g><g><g><g><g><g transform="matrix(1,0,0,1,462.4166259765625,176.6666473388672)"><path transform="matrix(0.0119,0,0,-0.0119,0,0)" d="M16 23L16 -3C203 -3 203 0 239 0C275 0 275 -3 468 -3L468 82C353 77 307 81 122 77L304 270C401 373 431 428 431 503C431 618 353 689 226 689C154 689 105 669 56 619L39 483L68 483L81 529C97 587 133 612 200 612C286 612 341 558 341 473C341 398 299 324 186 204Z" stroke="rgb(0,0,0)" stroke-opacity="1" stroke-width="8" fill="rgb(0,0,0)" fill-opacity="1"></path></g></g></g></g></g></g></g></g></g></g><g><g><g><g><g><g><g transform="matrix(1,0,0,1,554.6666259765625,171.53330993652344)"><path transform="matrix(0.017,0,0,-0.017,0,0)" d="M-7 -180C-8 -187 -8 -193 -8 -198C-8 -241 29 -276 74 -276C180 -276 290 -152 349 33L490 473L479 482C450 471 427 465 405 463L370 331C358 284 323 211 290 162C255 111 206 67 184 67C172 67 163 90 164 115L180 322C182 353 184 391 184 419C184 464 177 482 160 482C147 482 133 475 85 442L3 386L14 368L64 398C69 401 80 410 89 410C103 410 111 391 111 358C111 357 111 351 110 343L93 100L92 60C92 18 110 -11 135 -11C172 -11 256 74 331 187L282 16C231 -161 181 -234 111 -234C76 -234 49 -207 49 -172C49 -167 50 -159 51 -150L41 -146Z" stroke="rgb(0,0,0)" stroke-opacity="1" stroke-width="8" fill="rgb(0,0,0)" fill-opacity="1"></path></g></g></g></g></g></g></g></svg>
</svg>
