<svg width="231" height="121" viewBox="0 0 231 121" fill="none" xmlns="http://www.w3.org/2000/svg">
<rect width="231" height="121" fill="white"/>
<path d="M22.9091 65.1591C22.0909 65.1591 21.392 64.9242 20.8125 64.4545C20.2367 63.9811 19.7936 63.2973 19.483 62.4034C19.1761 61.5095 19.0227 60.4356 19.0227 59.1818C19.0227 57.9318 19.1761 56.8617 19.483 55.9716C19.7936 55.0777 20.2386 54.3939 20.8182 53.9205C21.4015 53.4432 22.0985 53.2045 22.9091 53.2045C23.7197 53.2045 24.4148 53.4432 24.9943 53.9205C25.5777 54.3939 26.0227 55.0777 26.3295 55.9716C26.6402 56.8617 26.7955 57.9318 26.7955 59.1818C26.7955 60.4356 26.6402 61.5095 26.3295 62.4034C26.0227 63.2973 25.5795 63.9811 25 64.4545C24.4242 64.9242 23.7273 65.1591 22.9091 65.1591ZM22.9091 64.2045C23.8068 64.2045 24.5076 63.767 25.0114 62.892C25.5152 62.0133 25.767 60.7765 25.767 59.1818C25.767 58.1212 25.6515 57.2159 25.4205 56.4659C25.1932 55.7121 24.8655 55.1364 24.4375 54.7386C24.0133 54.3409 23.5038 54.142 22.9091 54.142C22.0189 54.142 21.3201 54.5852 20.8125 55.4716C20.3049 56.3542 20.0511 57.5909 20.0511 59.1818C20.0511 60.2424 20.1648 61.1477 20.392 61.8977C20.6231 62.6477 20.9508 63.2197 21.375 63.6136C21.803 64.0076 22.3144 64.2045 22.9091 64.2045Z" fill="black"/>
<path d="M96.1989 101.188L95.2727 101.449C95.1818 101.187 95.053 100.951 94.8864 100.739C94.7197 100.527 94.5019 100.358 94.233 100.233C93.9678 100.108 93.6383 100.045 93.2443 100.045C92.6534 100.045 92.1686 100.186 91.7898 100.466C91.411 100.746 91.2216 101.108 91.2216 101.551C91.2216 101.926 91.3504 102.231 91.608 102.466C91.8693 102.697 92.2708 102.881 92.8125 103.017L94.1307 103.341C94.8617 103.519 95.4091 103.801 95.7727 104.188C96.1402 104.574 96.3239 105.059 96.3239 105.642C96.3239 106.134 96.1875 106.572 95.9148 106.955C95.642 107.337 95.2614 107.638 94.7727 107.858C94.2879 108.074 93.7254 108.182 93.0852 108.182C92.233 108.182 91.5303 107.991 90.9773 107.608C90.4242 107.222 90.0701 106.665 89.9148 105.938L90.8864 105.699C91.0114 106.218 91.2557 106.61 91.6193 106.875C91.9867 107.14 92.4697 107.273 93.0682 107.273C93.7386 107.273 94.2746 107.123 94.6761 106.824C95.0777 106.521 95.2784 106.142 95.2784 105.688C95.2784 105.335 95.161 105.04 94.9261 104.801C94.6913 104.559 94.3352 104.381 93.858 104.267L92.4318 103.926C91.6742 103.744 91.1136 103.456 90.75 103.062C90.3864 102.669 90.2045 102.18 90.2045 101.597C90.2045 101.116 90.3352 100.693 90.5966 100.33C90.858 99.9621 91.2178 99.6742 91.6761 99.4659C92.1345 99.2576 92.6572 99.1534 93.2443 99.1534C94.0436 99.1534 94.6818 99.3352 95.1591 99.6989C95.6402 100.059 95.9867 100.555 96.1989 101.188ZM101.976 99.2727V100.153H97.8111V99.2727H101.976ZM99.1122 97.1818H100.129V105.722C100.129 106.085 100.192 106.371 100.317 106.58C100.442 106.784 100.605 106.93 100.805 107.017C101.006 107.1 101.22 107.142 101.447 107.142C101.58 107.142 101.694 107.134 101.788 107.119C101.883 107.1 101.966 107.081 102.038 107.062L102.254 107.977C102.156 108.015 102.035 108.049 101.891 108.08C101.747 108.114 101.569 108.131 101.357 108.131C100.985 108.131 100.627 108.049 100.283 107.886C99.9418 107.723 99.6615 107.481 99.4418 107.159C99.2221 106.837 99.1122 106.438 99.1122 105.96V97.1818ZM104.273 108V99.2727H105.256V100.614H105.33C105.504 100.174 105.807 99.8201 106.239 99.5511C106.674 99.2784 107.167 99.142 107.716 99.142C107.799 99.142 107.892 99.1439 107.994 99.1477C108.097 99.1515 108.182 99.1553 108.25 99.1591V100.188C108.205 100.18 108.125 100.169 108.011 100.153C107.898 100.138 107.775 100.131 107.642 100.131C107.188 100.131 106.782 100.227 106.426 100.42C106.074 100.61 105.795 100.873 105.591 101.21C105.386 101.547 105.284 101.932 105.284 102.364V108H104.273ZM109.987 108V99.2727H111.004V108H109.987ZM110.504 97.7727C110.296 97.7727 110.118 97.7027 109.97 97.5625C109.822 97.4186 109.749 97.2462 109.749 97.0455C109.749 96.8447 109.822 96.6742 109.97 96.5341C110.118 96.3902 110.296 96.3182 110.504 96.3182C110.713 96.3182 110.891 96.3902 111.038 96.5341C111.186 96.6742 111.26 96.8447 111.26 97.0455C111.26 97.2462 111.186 97.4186 111.038 97.5625C110.891 97.7027 110.713 97.7727 110.504 97.7727ZM116.821 108.182C116.105 108.182 115.478 107.992 114.94 107.614C114.402 107.235 113.982 106.706 113.679 106.028C113.38 105.35 113.23 104.561 113.23 103.659C113.23 102.761 113.38 101.975 113.679 101.301C113.982 100.623 114.404 100.097 114.946 99.7216C115.488 99.3428 116.118 99.1534 116.838 99.1534C117.368 99.1534 117.81 99.2481 118.162 99.4375C118.514 99.6231 118.796 99.8542 119.009 100.131C119.221 100.407 119.385 100.676 119.503 100.938H119.594V96.3636H120.611V108H119.622V106.381H119.503C119.385 106.646 119.219 106.919 119.003 107.199C118.787 107.475 118.501 107.708 118.145 107.898C117.793 108.087 117.351 108.182 116.821 108.182ZM116.94 107.256C117.505 107.256 117.986 107.102 118.384 106.795C118.781 106.485 119.084 106.059 119.293 105.517C119.505 104.972 119.611 104.347 119.611 103.642C119.611 102.945 119.507 102.33 119.298 101.795C119.09 101.258 118.787 100.837 118.389 100.534C117.991 100.227 117.509 100.074 116.94 100.074C116.357 100.074 115.865 100.233 115.463 100.551C115.065 100.866 114.762 101.292 114.554 101.83C114.349 102.367 114.247 102.972 114.247 103.642C114.247 104.32 114.351 104.932 114.56 105.477C114.768 106.023 115.071 106.456 115.469 106.778C115.87 107.097 116.361 107.256 116.94 107.256ZM127.02 108.182C126.205 108.182 125.501 107.992 124.906 107.614C124.312 107.231 123.851 106.703 123.526 106.028C123.204 105.35 123.043 104.57 123.043 103.688C123.043 102.809 123.204 102.028 123.526 101.347C123.851 100.661 124.3 100.125 124.872 99.7386C125.448 99.3485 126.113 99.1534 126.866 99.1534C127.34 99.1534 127.796 99.2405 128.236 99.4148C128.675 99.5852 129.069 99.8485 129.418 100.205C129.77 100.557 130.048 101.002 130.253 101.54C130.457 102.074 130.56 102.706 130.56 103.438V103.938H123.741V103.045H129.526C129.526 102.485 129.412 101.981 129.185 101.534C128.961 101.083 128.649 100.727 128.247 100.466C127.849 100.205 127.389 100.074 126.866 100.074C126.313 100.074 125.827 100.222 125.406 100.517C124.986 100.812 124.656 101.203 124.418 101.688C124.183 102.172 124.063 102.703 124.06 103.278V103.812C124.06 104.506 124.179 105.112 124.418 105.631C124.66 106.146 125.003 106.545 125.446 106.83C125.889 107.114 126.414 107.256 127.02 107.256C127.433 107.256 127.795 107.191 128.105 107.062C128.42 106.934 128.683 106.761 128.895 106.545C129.111 106.326 129.274 106.085 129.384 105.824L130.344 106.136C130.211 106.504 129.993 106.843 129.69 107.153C129.391 107.464 129.016 107.714 128.565 107.903C128.118 108.089 127.603 108.182 127.02 108.182ZM138.652 101.188L137.726 101.449C137.635 101.187 137.506 100.951 137.339 100.739C137.173 100.527 136.955 100.358 136.686 100.233C136.421 100.108 136.091 100.045 135.697 100.045C135.107 100.045 134.622 100.186 134.243 100.466C133.864 100.746 133.675 101.108 133.675 101.551C133.675 101.926 133.804 102.231 134.061 102.466C134.322 102.697 134.724 102.881 135.266 103.017L136.584 103.341C137.315 103.519 137.862 103.801 138.226 104.188C138.593 104.574 138.777 105.059 138.777 105.642C138.777 106.134 138.641 106.572 138.368 106.955C138.095 107.337 137.714 107.638 137.226 107.858C136.741 108.074 136.179 108.182 135.538 108.182C134.686 108.182 133.983 107.991 133.43 107.608C132.877 107.222 132.523 106.665 132.368 105.938L133.339 105.699C133.464 106.218 133.709 106.61 134.072 106.875C134.44 107.14 134.923 107.273 135.521 107.273C136.192 107.273 136.728 107.123 137.129 106.824C137.531 106.521 137.732 106.142 137.732 105.688C137.732 105.335 137.614 105.04 137.379 104.801C137.144 104.559 136.788 104.381 136.311 104.267L134.885 103.926C134.127 103.744 133.567 103.456 133.203 103.062C132.839 102.669 132.658 102.18 132.658 101.597C132.658 101.116 132.788 100.693 133.05 100.33C133.311 99.9621 133.671 99.6742 134.129 99.4659C134.588 99.2576 135.11 99.1534 135.697 99.1534C136.497 99.1534 137.135 99.3352 137.612 99.6989C138.093 100.059 138.44 100.555 138.652 101.188ZM145.912 102.182C145.912 100.818 146.084 99.5303 146.429 98.3182C146.774 97.1061 147.268 95.9697 147.912 94.9091H148.832C148.556 95.3561 148.302 95.8617 148.071 96.4261C147.844 96.9905 147.647 97.5928 147.48 98.233C147.313 98.8731 147.185 99.5284 147.094 100.199C147.003 100.866 146.957 101.527 146.957 102.182C146.957 103.057 147.037 103.939 147.196 104.83C147.355 105.72 147.575 106.564 147.855 107.364C148.139 108.163 148.465 108.86 148.832 109.455H147.912C147.268 108.39 146.774 107.252 146.429 106.04C146.084 104.828 145.912 103.542 145.912 102.182ZM154.612 108.159C153.794 108.159 153.095 107.924 152.516 107.455C151.94 106.981 151.497 106.297 151.186 105.403C150.879 104.509 150.726 103.436 150.726 102.182C150.726 100.932 150.879 99.8617 151.186 98.9716C151.497 98.0777 151.942 97.3939 152.521 96.9205C153.105 96.4432 153.802 96.2045 154.612 96.2045C155.423 96.2045 156.118 96.4432 156.697 96.9205C157.281 97.3939 157.726 98.0777 158.033 98.9716C158.343 99.8617 158.499 100.932 158.499 102.182C158.499 103.436 158.343 104.509 158.033 105.403C157.726 106.297 157.283 106.981 156.703 107.455C156.127 107.924 155.43 108.159 154.612 108.159ZM154.612 107.205C155.51 107.205 156.211 106.767 156.714 105.892C157.218 105.013 157.47 103.777 157.47 102.182C157.47 101.121 157.355 100.216 157.124 99.4659C156.896 98.7121 156.569 98.1364 156.141 97.7386C155.716 97.3409 155.207 97.142 154.612 97.142C153.722 97.142 153.023 97.5852 152.516 98.4716C152.008 99.3542 151.754 100.591 151.754 102.182C151.754 103.242 151.868 104.148 152.095 104.898C152.326 105.648 152.654 106.22 153.078 106.614C153.506 107.008 154.018 107.205 154.612 107.205ZM162.048 106.409L161.946 107.017C161.882 107.426 161.791 107.877 161.673 108.369C161.556 108.862 161.435 109.33 161.31 109.773C161.185 110.216 161.077 110.572 160.986 110.841H160.207C160.257 110.583 160.319 110.256 160.395 109.858C160.474 109.46 160.556 109.019 160.639 108.534C160.723 108.053 160.798 107.557 160.866 107.045L160.946 106.409H162.048ZM172.777 96.3636V108H171.714V97.4773H171.646L168.919 99.2898V98.1875L171.669 96.3636H172.777ZM178.805 102.182C178.805 103.545 178.633 104.833 178.288 106.045C177.944 107.258 177.449 108.394 176.805 109.455H175.885C176.161 109.008 176.413 108.502 176.641 107.938C176.872 107.373 177.071 106.771 177.237 106.131C177.404 105.491 177.533 104.835 177.624 104.165C177.714 103.494 177.76 102.833 177.76 102.182C177.76 101.307 177.68 100.424 177.521 99.5341C177.362 98.6439 177.141 97.7992 176.857 97C176.576 96.2008 176.252 95.5038 175.885 94.9091H176.805C177.449 95.9735 177.944 97.1117 178.288 98.3239C178.633 99.536 178.805 100.822 178.805 102.182Z" fill="black"/>
<path d="M52.8864 12.3636V24H51.8239V13.4773H51.7557L49.0284 15.2898V14.1875L51.7784 12.3636H52.8864Z" fill="black"/>
<path d="M107.886 12.3636V24H106.824V13.4773H106.756L104.028 15.2898V14.1875L106.778 12.3636H107.886Z" fill="black"/>
<path d="M162.886 12.3636V24H161.824V13.4773H161.756L159.028 15.2898V14.1875L161.778 12.3636H162.886Z" fill="black"/>
<path d="M97.7071 19.7071C98.0976 19.3166 98.0976 18.6834 97.7071 18.2929L91.3431 11.9289C90.9526 11.5384 90.3195 11.5384 89.9289 11.9289C89.5384 12.3195 89.5384 12.9526 89.9289 13.3431L95.5858 19L89.9289 24.6569C89.5384 25.0474 89.5384 25.6805 89.9289 26.0711C90.3195 26.4616 90.9526 26.4616 91.3431 26.0711L97.7071 19.7071ZM62 19V20H97V19V18H62V19Z" fill="black"/>
<path d="M35.5303 53.4697C35.2374 53.1768 34.7626 53.1768 34.4697 53.4697L29.6967 58.2426C29.4038 58.5355 29.4038 59.0104 29.6967 59.3033C29.9896 59.5962 30.4645 59.5962 30.7574 59.3033L35 55.0607L39.2426 59.3033C39.5355 59.5962 40.0104 59.5962 40.3033 59.3033C40.5962 59.0104 40.5962 58.5355 40.3033 58.2426L35.5303 53.4697ZM35 62H35.75V54H35H34.25V62H35Z" fill="black"/>
<path d="M152.707 19.7071C153.098 19.3166 153.098 18.6834 152.707 18.2929L146.343 11.9289C145.953 11.5384 145.319 11.5384 144.929 11.9289C144.538 12.3195 144.538 12.9526 144.929 13.3431L150.586 19L144.929 24.6569C144.538 25.0474 144.538 25.6805 144.929 26.0711C145.319 26.4616 145.953 26.4616 146.343 26.0711L152.707 19.7071ZM117 19V20H152V19V18H117V19Z" fill="black"/>
<path d="M207.707 19.7071C208.098 19.3166 208.098 18.6834 207.707 18.2929L201.343 11.9289C200.953 11.5384 200.319 11.5384 199.929 11.9289C199.538 12.3195 199.538 12.9526 199.929 13.3431L205.586 19L199.929 24.6569C199.538 25.0474 199.538 25.6805 199.929 26.0711C200.319 26.4616 200.953 26.4616 201.343 26.0711L207.707 19.7071ZM172 19V20H207V19V18H172V19Z" fill="black"/>
<mask id="path-10-inside-1_4_103" fill="white">
<path d="M162 31H217V86H162V31Z"/>
</mask>
<path d="M162 31H217V86H162V31Z" fill="#009DFF"/>
<path d="M162 31V30H161.5V31H162ZM217 31H217.5V30H217V31ZM217 86V87H217.5V86H217ZM162 86H161.5V87H162V86ZM162 31V32H217V31V30H162V31ZM217 31H216.5V86H217H217.5V31H217ZM217 86V85H162V86V87H217V86ZM162 86H162.5V31H162H161.5V86H162Z" fill="black" mask="url(#path-10-inside-1_4_103)"/>
<path d="M162 31V30H161.5V31H162ZM217 31H217.5V30H217V31ZM217 86V87H217.5V86H217ZM162 86H161.5V87H162V86ZM162 31V32H217V31V30H162V31ZM217 31H216.5V86H217H217.5V31H217ZM217 86V85H162V86V87H217V86ZM162 86H162.5V31H162H161.5V86H162Z" fill="black" fill-opacity="0.2" mask="url(#path-10-inside-1_4_103)"/>
<mask id="path-12-inside-2_4_103" fill="white">
<path d="M107 31H162V86H107V31Z"/>
</mask>
<path d="M107 31H162V86H107V31Z" fill="#62FF00"/>
<path d="M107 31V30H106.5V31H107ZM162 31H162.5V30H162V31ZM162 86V87H162.5V86H162ZM107 86H106.5V87H107V86ZM107 31V32H162V31V30H107V31ZM162 31H161.5V86H162H162.5V31H162ZM162 86V85H107V86V87H162V86ZM107 86H107.5V31H107H106.5V86H107Z" fill="black" mask="url(#path-12-inside-2_4_103)"/>
<path d="M107 31V30H106.5V31H107ZM162 31H162.5V30H162V31ZM162 86V87H162.5V86H162ZM107 86H106.5V87H107V86ZM107 31V32H162V31V30H107V31ZM162 31H161.5V86H162H162.5V31H162ZM162 86V85H107V86V87H162V86ZM107 86H107.5V31H107H106.5V86H107Z" fill="black" fill-opacity="0.2" mask="url(#path-12-inside-2_4_103)"/>
<mask id="path-14-inside-3_4_103" fill="white">
<path d="M52 31H107V86H52V31Z"/>
</mask>
<path d="M52 31H107V86H52V31Z" fill="#FF1515"/>
<path d="M52 31V30H51V31H52ZM107 31H107.5V30H107V31ZM107 86V87H107.5V86H107ZM52 86H51V87H52V86ZM52 31V32H107V31V30H52V31ZM107 31H106.5V86H107H107.5V31H107ZM107 86V85H52V86V87H107V86ZM52 86H53V31H52H51V86H52Z" fill="black" mask="url(#path-14-inside-3_4_103)"/>
<path d="M52 31V30H51V31H52ZM107 31H107.5V30H107V31ZM107 86V87H107.5V86H107ZM52 86H51V87H52V86ZM52 31V32H107V31V30H52V31ZM107 31H106.5V86H107H107.5V31H107ZM107 86V85H52V86V87H107V86ZM52 86H53V31H52H51V86H52Z" fill="black" fill-opacity="0.2" mask="url(#path-14-inside-3_4_103)"/>
<mask id="path-16-outside-4_4_103" maskUnits="userSpaceOnUse" x="72" y="47" width="13" height="24" fill="black">
<rect fill="white" x="72" y="47" width="13" height="24"/>
<path d="M83.2607 48.1818V70H78.6477V52.5604H78.5199L73.5234 55.6925V51.6016L78.9247 48.1818H83.2607Z"/>
</mask>
<path d="M83.2607 48.1818V70H78.6477V52.5604H78.5199L73.5234 55.6925V51.6016L78.9247 48.1818H83.2607Z" fill="black"/>
<path d="M83.2607 48.1818H84.2607V47.1818H83.2607V48.1818ZM83.2607 70V71H84.2607V70H83.2607ZM78.6477 70H77.6477V71H78.6477V70ZM78.6477 52.5604H79.6477V51.5604H78.6477V52.5604ZM78.5199 52.5604V51.5604H78.2324L77.9888 51.7131L78.5199 52.5604ZM73.5234 55.6925H72.5234V57.4996L74.0546 56.5398L73.5234 55.6925ZM73.5234 51.6016L72.9885 50.7567L72.5234 51.0511V51.6016H73.5234ZM78.9247 48.1818V47.1818H78.6348L78.3898 47.3369L78.9247 48.1818ZM83.2607 48.1818H82.2607V70H83.2607H84.2607V48.1818H83.2607ZM83.2607 70V69H78.6477V70V71H83.2607V70ZM78.6477 70H79.6477V52.5604H78.6477H77.6477V70H78.6477ZM78.6477 52.5604V51.5604H78.5199V52.5604V53.5604H78.6477V52.5604ZM78.5199 52.5604L77.9888 51.7131L72.9923 54.8452L73.5234 55.6925L74.0546 56.5398L79.051 53.4077L78.5199 52.5604ZM73.5234 55.6925H74.5234V51.6016H73.5234H72.5234V55.6925H73.5234ZM73.5234 51.6016L74.0584 52.4465L79.4596 49.0267L78.9247 48.1818L78.3898 47.3369L72.9885 50.7567L73.5234 51.6016ZM78.9247 48.1818V49.1818H83.2607V48.1818V47.1818H78.9247V48.1818Z" fill="white" mask="url(#path-16-outside-4_4_103)"/>
<mask id="path-18-outside-5_4_103" maskUnits="userSpaceOnUse" x="125" y="46" width="19" height="25" fill="black">
<rect fill="white" x="125" y="46" width="19" height="25"/>
<path d="M126.768 70V66.6761L134.535 59.4851C135.195 58.8459 135.749 58.2706 136.197 57.7592C136.651 57.2479 136.996 56.7472 137.23 56.2571C137.464 55.7599 137.582 55.2237 137.582 54.6484C137.582 54.0092 137.436 53.4588 137.145 52.9972C136.854 52.5284 136.456 52.1697 135.952 51.9212C135.447 51.6655 134.876 51.5376 134.237 51.5376C133.569 51.5376 132.987 51.6726 132.489 51.9425C131.992 52.2124 131.609 52.5994 131.339 53.1037C131.069 53.608 130.934 54.2081 130.934 54.9041H126.555C126.555 53.4766 126.879 52.2372 127.525 51.1861C128.171 50.1349 129.077 49.3217 130.241 48.7464C131.406 48.1712 132.749 47.8835 134.268 47.8835C135.831 47.8835 137.191 48.1605 138.349 48.7145C139.513 49.2614 140.419 50.0213 141.065 50.9943C141.712 51.9673 142.035 53.0824 142.035 54.3395C142.035 55.1634 141.871 55.9766 141.545 56.7791C141.225 57.5817 140.653 58.473 139.83 59.4531C139.006 60.4261 137.844 61.5945 136.346 62.9581L133.161 66.0795V66.2287H142.322V70H126.768Z"/>
</mask>
<path d="M126.768 70V66.6761L134.535 59.4851C135.195 58.8459 135.749 58.2706 136.197 57.7592C136.651 57.2479 136.996 56.7472 137.23 56.2571C137.464 55.7599 137.582 55.2237 137.582 54.6484C137.582 54.0092 137.436 53.4588 137.145 52.9972C136.854 52.5284 136.456 52.1697 135.952 51.9212C135.447 51.6655 134.876 51.5376 134.237 51.5376C133.569 51.5376 132.987 51.6726 132.489 51.9425C131.992 52.2124 131.609 52.5994 131.339 53.1037C131.069 53.608 130.934 54.2081 130.934 54.9041H126.555C126.555 53.4766 126.879 52.2372 127.525 51.1861C128.171 50.1349 129.077 49.3217 130.241 48.7464C131.406 48.1712 132.749 47.8835 134.268 47.8835C135.831 47.8835 137.191 48.1605 138.349 48.7145C139.513 49.2614 140.419 50.0213 141.065 50.9943C141.712 51.9673 142.035 53.0824 142.035 54.3395C142.035 55.1634 141.871 55.9766 141.545 56.7791C141.225 57.5817 140.653 58.473 139.83 59.4531C139.006 60.4261 137.844 61.5945 136.346 62.9581L133.161 66.0795V66.2287H142.322V70H126.768Z" fill="black"/>
<path d="M126.768 70H125.768V71H126.768V70ZM126.768 66.6761L126.089 65.9424L125.768 66.2392V66.6761H126.768ZM134.535 59.4851L135.214 60.2188L135.222 60.2114L135.23 60.2037L134.535 59.4851ZM136.197 57.7592L135.449 57.0948L135.444 57.1007L136.197 57.7592ZM137.23 56.2571L138.132 56.6886L138.135 56.6835L137.23 56.2571ZM137.145 52.9972L136.295 53.5249L136.299 53.5307L137.145 52.9972ZM135.952 51.9212L135.499 52.8131L135.51 52.8181L135.952 51.9212ZM131.339 53.1037L132.22 53.5756V53.5756L131.339 53.1037ZM130.934 54.9041V55.9041H131.934V54.9041H130.934ZM126.555 54.9041H125.555V55.9041H126.555V54.9041ZM127.525 51.1861L128.377 51.7099V51.7099L127.525 51.1861ZM130.241 48.7464L129.799 47.8498H129.799L130.241 48.7464ZM138.349 48.7145L137.917 49.6166L137.924 49.6197L138.349 48.7145ZM141.065 50.9943L140.232 51.5476L140.232 51.5476L141.065 50.9943ZM141.545 56.7791L140.619 56.4021L140.616 56.4091L141.545 56.7791ZM139.83 59.4531L140.593 60.0993L140.595 60.0966L139.83 59.4531ZM136.346 62.9581L135.673 62.2185L135.659 62.2309L135.646 62.2439L136.346 62.9581ZM133.161 66.0795L132.461 65.3653L132.161 65.6594V66.0795H133.161ZM133.161 66.2287H132.161V67.2287H133.161V66.2287ZM142.322 66.2287H143.322V65.2287H142.322V66.2287ZM142.322 70V71H143.322V70H142.322ZM126.768 70H127.768V66.6761H126.768H125.768V70H126.768ZM126.768 66.6761L127.448 67.4099L135.214 60.2188L134.535 59.4851L133.855 58.7513L126.089 65.9424L126.768 66.6761ZM134.535 59.4851L135.23 60.2037C135.904 59.5515 136.479 58.9557 136.949 58.4177L136.197 57.7592L135.444 57.1007C135.02 57.5855 134.486 58.1403 133.839 58.7665L134.535 59.4851ZM136.197 57.7592L136.944 58.4236C137.446 57.8595 137.849 57.2817 138.132 56.6886L137.23 56.2571L136.328 55.8256C136.143 56.2126 135.857 56.6363 135.449 57.0949L136.197 57.7592ZM137.23 56.2571L138.135 56.6835C138.435 56.0468 138.582 55.3641 138.582 54.6484H137.582H136.582C136.582 55.0833 136.494 55.4731 136.326 55.8307L137.23 56.2571ZM137.582 54.6484H138.582C138.582 53.8533 138.399 53.1107 137.991 52.4637L137.145 52.9972L136.299 53.5307C136.473 53.8069 136.582 54.1652 136.582 54.6484H137.582ZM137.145 52.9972L137.994 52.4695C137.603 51.8389 137.062 51.3538 136.394 51.0242L135.952 51.9212L135.51 52.8181C135.85 52.9857 136.105 53.2179 136.295 53.5248L137.145 52.9972ZM135.952 51.9212L136.404 51.0293C135.742 50.6937 135.012 50.5376 134.237 50.5376V51.5376V52.5376C134.739 52.5376 135.153 52.6373 135.499 52.8131L135.952 51.9212ZM134.237 51.5376V50.5376C133.432 50.5376 132.68 50.701 132.012 51.0636L132.489 51.9425L132.966 52.8213C133.293 52.6441 133.705 52.5376 134.237 52.5376V51.5376ZM132.489 51.9425L132.012 51.0636C131.341 51.4278 130.818 51.9573 130.457 52.6318L131.339 53.1037L132.22 53.5756C132.399 53.2416 132.643 52.9969 132.966 52.8213L132.489 51.9425ZM131.339 53.1037L130.457 52.6318C130.094 53.3095 129.934 54.0788 129.934 54.9041H130.934H131.934C131.934 54.3374 132.043 53.9064 132.22 53.5756L131.339 53.1037ZM130.934 54.9041V53.9041H126.555V54.9041V55.9041H130.934V54.9041ZM126.555 54.9041H127.555C127.555 53.632 127.842 52.5801 128.377 51.7099L127.525 51.1861L126.673 50.6623C125.915 51.8944 125.555 53.3212 125.555 54.9041H126.555ZM127.525 51.1861L128.377 51.7099C128.919 50.8276 129.679 50.1396 130.684 49.6431L130.241 48.7464L129.799 47.8498C128.475 48.5038 127.423 49.4422 126.673 50.6623L127.525 51.1861ZM130.241 48.7464L130.684 49.6431C131.69 49.1464 132.876 48.8835 134.268 48.8835V47.8835V46.8835C132.621 46.8835 131.123 47.1959 129.799 47.8498L130.241 48.7464ZM134.268 47.8835V48.8835C135.713 48.8835 136.92 49.1395 137.917 49.6165L138.349 48.7145L138.78 47.8124C137.462 47.1815 135.948 46.8835 134.268 46.8835V47.8835ZM138.349 48.7145L137.924 49.6197C138.94 50.0969 139.697 50.7422 140.232 51.5476L141.065 50.9943L141.898 50.441C141.141 49.3004 140.087 48.4258 138.774 47.8093L138.349 48.7145ZM141.065 50.9943L140.232 51.5476C140.761 52.344 141.035 53.2635 141.035 54.3395H142.035H143.035C143.035 52.9012 142.662 51.5906 141.898 50.441L141.065 50.9943ZM142.035 54.3395H141.035C141.035 55.0275 140.899 55.713 140.619 56.4021L141.545 56.7791L142.471 57.1562C142.844 56.2402 143.035 55.2992 143.035 54.3395H142.035ZM141.545 56.7791L140.616 56.4091C140.35 57.0769 139.849 57.8758 139.064 58.8097L139.83 59.4531L140.595 60.0966C141.458 59.0702 142.1 58.0865 142.474 57.1491L141.545 56.7791ZM139.83 59.4531L139.066 58.8069C138.282 59.7335 137.156 60.8692 135.673 62.2185L136.346 62.9581L137.019 63.6977C138.533 62.3197 139.73 61.1188 140.593 60.0993L139.83 59.4531ZM136.346 62.9581L135.646 62.2439L132.461 65.3653L133.161 66.0795L133.86 66.7938L137.046 63.6723L136.346 62.9581ZM133.161 66.0795H132.161V66.2287H133.161H134.161V66.0795H133.161ZM133.161 66.2287V67.2287H142.322V66.2287V65.2287H133.161V66.2287ZM142.322 66.2287H141.322V70H142.322H143.322V66.2287H142.322ZM142.322 70V69H126.768V70V71H142.322V70Z" fill="white" mask="url(#path-18-outside-5_4_103)"/>
<mask id="path-20-outside-6_4_103" maskUnits="userSpaceOnUse" x="180" y="46" width="20" height="26" fill="black">
<rect fill="white" x="180" y="46" width="20" height="26"/>
<path d="M189.833 70.2983C188.242 70.2983 186.825 70.0249 185.582 69.478C184.347 68.924 183.37 68.1641 182.653 67.1982C181.942 66.2251 181.577 65.103 181.555 63.8317H186.2C186.229 64.3643 186.403 64.8331 186.722 65.2379C187.049 65.6357 187.482 65.9446 188.022 66.1648C188.562 66.3849 189.169 66.495 189.844 66.495C190.547 66.495 191.168 66.3707 191.708 66.1222C192.248 65.8736 192.67 65.5291 192.976 65.0888C193.281 64.6484 193.434 64.1406 193.434 63.5653C193.434 62.983 193.271 62.468 192.944 62.0206C192.624 61.5661 192.163 61.2109 191.559 60.9553C190.962 60.6996 190.252 60.5717 189.428 60.5717H187.393V57.1839H189.428C190.124 57.1839 190.739 57.0632 191.271 56.8217C191.811 56.5803 192.23 56.2464 192.528 55.8203C192.827 55.3871 192.976 54.8828 192.976 54.3075C192.976 53.7607 192.844 53.2812 192.582 52.8693C192.326 52.4503 191.964 52.1236 191.495 51.8892C191.033 51.6548 190.494 51.5376 189.876 51.5376C189.251 51.5376 188.679 51.6513 188.161 51.8786C187.642 52.0987 187.227 52.4148 186.914 52.8267C186.602 53.2386 186.435 53.7216 186.413 54.2756H181.992C182.013 53.0185 182.372 51.9105 183.068 50.9517C183.764 49.9929 184.702 49.2436 185.881 48.7038C187.067 48.157 188.406 47.8835 189.897 47.8835C191.403 47.8835 192.72 48.157 193.849 48.7038C194.979 49.2507 195.856 49.9893 196.481 50.9197C197.113 51.843 197.425 52.88 197.418 54.0305C197.425 55.2521 197.045 56.2713 196.278 57.0881C195.518 57.9048 194.528 58.4233 193.306 58.6435V58.8139C194.911 59.0199 196.133 59.5774 196.971 60.4865C197.816 61.3885 198.235 62.5178 198.228 63.8743C198.235 65.1172 197.876 66.2216 197.152 67.1875C196.435 68.1534 195.444 68.9134 194.18 69.4673C192.915 70.0213 191.467 70.2983 189.833 70.2983Z"/>
</mask>
<path d="M189.833 70.2983C188.242 70.2983 186.825 70.0249 185.582 69.478C184.347 68.924 183.37 68.1641 182.653 67.1982C181.942 66.2251 181.577 65.103 181.555 63.8317H186.2C186.229 64.3643 186.403 64.8331 186.722 65.2379C187.049 65.6357 187.482 65.9446 188.022 66.1648C188.562 66.3849 189.169 66.495 189.844 66.495C190.547 66.495 191.168 66.3707 191.708 66.1222C192.248 65.8736 192.67 65.5291 192.976 65.0888C193.281 64.6484 193.434 64.1406 193.434 63.5653C193.434 62.983 193.271 62.468 192.944 62.0206C192.624 61.5661 192.163 61.2109 191.559 60.9553C190.962 60.6996 190.252 60.5717 189.428 60.5717H187.393V57.1839H189.428C190.124 57.1839 190.739 57.0632 191.271 56.8217C191.811 56.5803 192.23 56.2464 192.528 55.8203C192.827 55.3871 192.976 54.8828 192.976 54.3075C192.976 53.7607 192.844 53.2812 192.582 52.8693C192.326 52.4503 191.964 52.1236 191.495 51.8892C191.033 51.6548 190.494 51.5376 189.876 51.5376C189.251 51.5376 188.679 51.6513 188.161 51.8786C187.642 52.0987 187.227 52.4148 186.914 52.8267C186.602 53.2386 186.435 53.7216 186.413 54.2756H181.992C182.013 53.0185 182.372 51.9105 183.068 50.9517C183.764 49.9929 184.702 49.2436 185.881 48.7038C187.067 48.157 188.406 47.8835 189.897 47.8835C191.403 47.8835 192.72 48.157 193.849 48.7038C194.979 49.2507 195.856 49.9893 196.481 50.9197C197.113 51.843 197.425 52.88 197.418 54.0305C197.425 55.2521 197.045 56.2713 196.278 57.0881C195.518 57.9048 194.528 58.4233 193.306 58.6435V58.8139C194.911 59.0199 196.133 59.5774 196.971 60.4865C197.816 61.3885 198.235 62.5178 198.228 63.8743C198.235 65.1172 197.876 66.2216 197.152 67.1875C196.435 68.1534 195.444 68.9134 194.18 69.4673C192.915 70.0213 191.467 70.2983 189.833 70.2983Z" fill="black"/>
<path d="M185.582 69.478L185.173 70.3905L185.18 70.3933L185.582 69.478ZM182.653 67.1982L181.845 67.7877L181.85 67.7944L182.653 67.1982ZM181.555 63.8317V62.8317H180.538L180.556 63.8484L181.555 63.8317ZM186.2 63.8317L187.199 63.7784L187.148 62.8317H186.2V63.8317ZM186.722 65.2379L185.937 65.8576L185.943 65.8652L185.95 65.8727L186.722 65.2379ZM188.022 66.1648L187.644 67.0907H187.644L188.022 66.1648ZM191.708 66.1222L191.29 65.2139V65.2139L191.708 66.1222ZM192.976 65.0888L193.798 65.6587L193.798 65.6587L192.976 65.0888ZM192.944 62.0206L192.126 62.5958L192.131 62.6031L192.136 62.6103L192.944 62.0206ZM191.559 60.9553L191.165 61.8744L191.169 61.8761L191.559 60.9553ZM187.393 60.5717H186.393V61.5717H187.393V60.5717ZM187.393 57.1839V56.1839H186.393V57.1839H187.393ZM191.271 56.8217L190.863 55.9089L190.858 55.911L191.271 56.8217ZM192.528 55.8203L193.348 56.3938L193.352 56.3874L192.528 55.8203ZM192.582 52.8693L191.728 53.3902L191.733 53.3987L191.739 53.4071L192.582 52.8693ZM191.495 51.8892L191.042 52.7809L191.048 52.7836L191.495 51.8892ZM188.161 51.8786L188.551 52.7991L188.562 52.7944L188.161 51.8786ZM186.914 52.8267L187.711 53.4311L187.711 53.4311L186.914 52.8267ZM186.413 54.2756V55.2756H187.376L187.413 54.314L186.413 54.2756ZM181.992 54.2756L180.992 54.2586L180.975 55.2756H181.992V54.2756ZM183.068 50.9517L183.877 51.5392H183.877L183.068 50.9517ZM185.881 48.7038L186.297 49.6131L186.299 49.612L185.881 48.7038ZM193.849 48.7038L194.285 47.8038H194.285L193.849 48.7038ZM196.481 50.9197L195.651 51.4774L195.656 51.4847L196.481 50.9197ZM197.418 54.0305L196.418 54.0244L196.418 54.0364L197.418 54.0305ZM196.278 57.0881L195.549 56.4035L195.546 56.4069L196.278 57.0881ZM193.306 58.6435L193.129 57.6593L192.306 57.8076V58.6435H193.306ZM193.306 58.8139H192.306V59.6938L193.179 59.8058L193.306 58.8139ZM196.971 60.4865L196.236 61.1643L196.241 61.1703L196.971 60.4865ZM198.228 63.8743L197.228 63.8691L197.228 63.88L198.228 63.8743ZM197.152 67.1875L196.352 66.5875L196.349 66.5913L197.152 67.1875ZM194.18 69.4673L193.778 68.5514V68.5514L194.18 69.4673ZM189.833 70.2983V69.2983C188.357 69.2983 187.081 69.0449 185.985 68.5627L185.582 69.478L185.18 70.3933C186.569 71.0048 188.127 71.2983 189.833 71.2983V70.2983ZM185.582 69.478L185.991 68.5655C184.892 68.0725 184.059 67.4139 183.456 66.6019L182.653 67.1982L181.85 67.7944C182.682 68.9142 183.801 69.7755 185.173 70.3905L185.582 69.478ZM182.653 67.1982L183.46 66.6086C182.879 65.8117 182.573 64.8922 182.555 63.8149L181.555 63.8317L180.556 63.8484C180.58 65.3138 181.006 66.6386 181.845 67.7877L182.653 67.1982ZM181.555 63.8317V64.8317H186.2V63.8317V62.8317H181.555V63.8317ZM186.2 63.8317L185.202 63.8849C185.241 64.6164 185.485 65.2847 185.937 65.8576L186.722 65.2379L187.507 64.6183C187.32 64.3814 187.217 64.1123 187.199 63.7784L186.2 63.8317ZM186.722 65.2379L185.95 65.8727C186.395 66.415 186.971 66.8162 187.644 67.0907L188.022 66.1648L188.4 65.2388C187.993 65.073 187.703 64.8563 187.495 64.6032L186.722 65.2379ZM188.022 66.1648L187.644 67.0907C188.321 67.3669 189.06 67.495 189.844 67.495V66.495V65.495C189.278 65.495 188.802 65.403 188.4 65.2388L188.022 66.1648ZM189.844 66.495V67.495C190.665 67.495 191.434 67.3495 192.126 67.0305L191.708 66.1222L191.29 65.2139C190.903 65.392 190.429 65.495 189.844 65.495V66.495ZM191.708 66.1222L192.126 67.0305C192.81 66.7155 193.38 66.2614 193.798 65.6587L192.976 65.0888L192.154 64.5189C191.961 64.7968 191.685 65.0316 191.29 65.2139L191.708 66.1222ZM192.976 65.0888L193.798 65.6587C194.228 65.0385 194.434 64.3285 194.434 63.5653H193.434H192.434C192.434 63.9527 192.335 64.2584 192.154 64.5189L192.976 65.0888ZM193.434 63.5653H194.434C194.434 62.7825 194.21 62.0587 193.752 61.4309L192.944 62.0206L192.136 62.6103C192.331 62.8774 192.434 63.1834 192.434 63.5653H193.434ZM192.944 62.0206L193.762 61.4454C193.317 60.8122 192.693 60.3498 191.949 60.0344L191.559 60.9553L191.169 61.8761C191.632 62.0721 191.932 62.3199 192.126 62.5958L192.944 62.0206ZM191.559 60.9553L191.953 60.0361C191.203 59.7148 190.352 59.5717 189.428 59.5717V60.5717V61.5717C190.152 61.5717 190.722 61.6843 191.165 61.8744L191.559 60.9553ZM189.428 60.5717V59.5717H187.393V60.5717V61.5717H189.428V60.5717ZM187.393 60.5717H188.393V57.1839H187.393H186.393V60.5717H187.393ZM187.393 57.1839V58.1839H189.428V57.1839V56.1839H187.393V57.1839ZM189.428 57.1839V58.1839C190.24 58.1839 191 58.0429 191.684 57.7325L191.271 56.8217L190.858 55.911C190.478 56.0835 190.009 56.1839 189.428 56.1839V57.1839ZM191.271 56.8217L191.68 57.7346C192.362 57.4295 192.932 56.9875 193.348 56.3938L192.528 55.8203L191.709 55.2469C191.528 55.5054 191.261 55.731 190.863 55.9089L191.271 56.8217ZM192.528 55.8203L193.352 56.3874C193.776 55.7717 193.976 55.0655 193.976 54.3075H192.976H191.976C191.976 54.7001 191.877 55.0024 191.705 55.2532L192.528 55.8203ZM192.976 54.3075H193.976C193.976 53.5935 193.802 52.9228 193.425 52.3315L192.582 52.8693L191.739 53.4071C191.887 53.6397 191.976 53.9278 191.976 54.3075H192.976ZM192.582 52.8693L193.435 52.3485C193.075 51.7583 192.567 51.3071 191.942 50.9948L191.495 51.8892L191.048 52.7836C191.361 52.94 191.577 53.1423 191.728 53.3902L192.582 52.8693ZM191.495 51.8892L191.948 50.9975C191.321 50.6794 190.621 50.5376 189.876 50.5376V51.5376V52.5376C190.366 52.5376 190.746 52.6302 191.042 52.7809L191.495 51.8892ZM189.876 51.5376V50.5376C189.127 50.5376 188.417 50.6744 187.759 50.9627L188.161 51.8786L188.562 52.7944C188.941 52.6282 189.374 52.5376 189.876 52.5376V51.5376ZM188.161 51.8786L187.77 50.9581C187.105 51.2402 186.545 51.6592 186.117 52.2223L186.914 52.8267L187.711 53.4311C187.909 53.1703 188.179 52.9573 188.551 52.799L188.161 51.8786ZM186.914 52.8267L186.117 52.2223C185.672 52.8097 185.443 53.4938 185.414 54.2371L186.413 54.2756L187.413 54.314C187.427 53.9494 187.531 53.6676 187.711 53.4311L186.914 52.8267ZM186.413 54.2756V53.2756H181.992V54.2756V55.2756H186.413V54.2756ZM181.992 54.2756L182.992 54.2925C183.01 53.2274 183.31 52.3214 183.877 51.5392L183.068 50.9517L182.259 50.3642C181.435 51.4996 181.017 52.8096 180.992 54.2586L181.992 54.2756ZM183.068 50.9517L183.877 51.5392C184.463 50.7326 185.259 50.0881 186.297 49.6131L185.881 48.7038L185.464 47.7946C184.144 48.3991 183.065 49.2532 182.259 50.3642L183.068 50.9517ZM185.881 48.7038L186.299 49.612C187.337 49.1336 188.53 48.8835 189.897 48.8835V47.8835V46.8835C188.281 46.8835 186.797 47.1803 185.462 47.7957L185.881 48.7038ZM189.897 47.8835V48.8835C191.282 48.8835 192.445 49.1346 193.414 49.6039L193.849 48.7038L194.285 47.8038C192.996 47.1793 191.524 46.8835 189.897 46.8835V47.8835ZM193.849 48.7038L193.414 49.6039C194.403 50.083 195.136 50.711 195.651 51.4774L196.481 50.9197L197.311 50.3621C196.576 49.2677 195.554 48.4185 194.285 47.8038L193.849 48.7038ZM196.481 50.9197L195.656 51.4847C196.169 52.2348 196.424 53.0714 196.418 54.0244L197.418 54.0305L198.418 54.0367C198.427 52.6886 198.057 51.4512 197.306 50.3548L196.481 50.9197ZM197.418 54.0305L196.418 54.0364C196.424 55.0269 196.124 55.7913 195.549 56.4035L196.278 57.0881L197.007 57.7726C197.966 56.7513 198.427 55.4774 198.418 54.0247L197.418 54.0305ZM196.278 57.0881L195.546 56.4069C194.95 57.0476 194.163 57.473 193.129 57.6593L193.306 58.6435L193.483 59.6276C194.893 59.3736 196.087 58.7621 197.011 57.7692L196.278 57.0881ZM193.306 58.6435H192.306V58.8139H193.306H194.306V58.6435H193.306ZM193.306 58.8139L193.179 59.8058C194.624 59.9912 195.601 60.4755 196.236 61.1643L196.971 60.4865L197.706 59.8087C196.665 58.6793 195.199 58.0486 193.433 57.8221L193.306 58.8139ZM196.971 60.4865L196.241 61.1703C196.894 61.8667 197.234 62.7411 197.228 63.8691L198.228 63.8743L199.228 63.8795C199.236 62.2944 198.738 60.9103 197.701 59.8028L196.971 60.4865ZM198.228 63.8743L197.228 63.88C197.234 64.9115 196.941 65.8017 196.352 66.5875L197.152 67.1875L197.952 67.7875C198.812 66.6415 199.236 65.3229 199.228 63.8686L198.228 63.8743ZM197.152 67.1875L196.349 66.5913C195.75 67.3981 194.907 68.0568 193.778 68.5514L194.18 69.4673L194.581 70.3833C195.981 69.7699 197.119 68.9088 197.955 67.7837L197.152 67.1875ZM194.18 69.4673L193.778 68.5514C192.662 69.0407 191.353 69.2983 189.833 69.2983V70.2983V71.2983C191.58 71.2983 193.169 71.0019 194.581 70.3833L194.18 69.4673Z" fill="white" mask="url(#path-20-outside-6_4_103)"/>
<mask id="path-22-inside-7_4_103" fill="white">
<path d="M35.8926 60.6679C35.5267 63.4961 34.241 66.1255 32.2335 68.1511C30.2261 70.1766 27.6083 71.4858 24.7835 71.8771C21.9587 72.2683 19.0837 71.7199 16.6013 70.3162C14.1189 68.9125 12.1669 66.7315 11.0461 64.1093C9.92531 61.487 9.69787 58.5689 10.3988 55.8046C11.0998 53.0404 12.6902 50.5833 14.9252 48.8119C17.1601 47.0406 19.9155 46.0533 22.7668 46.0021C25.6181 45.9509 28.4071 46.8387 30.7041 48.5288L29.6843 49.9149C27.6913 48.4486 25.2715 47.6783 22.7976 47.7227C20.3238 47.7671 17.9331 48.6237 15.9941 50.1606C14.055 51.6974 12.6751 53.8293 12.0669 56.2276C11.4587 58.626 11.6561 61.1578 12.6285 63.4329C13.6009 65.7081 15.2945 67.6004 17.4483 68.8182C19.6021 70.0361 22.0966 70.5119 24.5474 70.1725C26.9983 69.833 29.2695 68.6971 31.0112 66.9397C32.7529 65.1823 33.8685 62.901 34.1859 60.4471L35.8926 60.6679Z"/>
</mask>
<path d="M35.8926 60.6679C35.5267 63.4961 34.241 66.1255 32.2335 68.1511C30.2261 70.1766 27.6083 71.4858 24.7835 71.8771C21.9587 72.2683 19.0837 71.7199 16.6013 70.3162C14.1189 68.9125 12.1669 66.7315 11.0461 64.1093C9.92531 61.487 9.69787 58.5689 10.3988 55.8046C11.0998 53.0404 12.6902 50.5833 14.9252 48.8119C17.1601 47.0406 19.9155 46.0533 22.7668 46.0021C25.6181 45.9509 28.4071 46.8387 30.7041 48.5288L29.6843 49.9149C27.6913 48.4486 25.2715 47.6783 22.7976 47.7227C20.3238 47.7671 17.9331 48.6237 15.9941 50.1606C14.055 51.6974 12.6751 53.8293 12.0669 56.2276C11.4587 58.626 11.6561 61.1578 12.6285 63.4329C13.6009 65.7081 15.2945 67.6004 17.4483 68.8182C19.6021 70.0361 22.0966 70.5119 24.5474 70.1725C26.9983 69.833 29.2695 68.6971 31.0112 66.9397C32.7529 65.1823 33.8685 62.901 34.1859 60.4471L35.8926 60.6679Z" stroke="black" stroke-width="2" mask="url(#path-22-inside-7_4_103)"/>
</svg>
