<svg width="418" height="306" viewBox="0 0 418 306" fill="none" xmlns="http://www.w3.org/2000/svg">
<rect width="418" height="306" fill="white"/>
<mask id="path-1-inside-1_1_72" fill="white">
<path d="M198 251H253V306H198V251Z"/>
</mask>
<path d="M198 251H253V306H198V251Z" fill="#F200FF"/>
<path d="M198 251V250H197.5V251H198ZM253 251H253.5V250H253V251ZM253 306V307H253.5V306H253ZM198 306H197.5V307H198V306ZM198 251V252H253V251V250H198V251ZM253 251H252.5V306H253H253.5V251H253ZM253 306V305H198V306V307H253V306ZM198 306H198.5V251H198H197.5V306H198Z" fill="black" mask="url(#path-1-inside-1_1_72)"/>
<path d="M198 251V250H197.5V251H198ZM253 251H253.5V250H253V251ZM253 306V307H253.5V306H253ZM198 306H197.5V307H198V306ZM198 251V252H253V251V250H198V251ZM253 251H252.5V306H253H253.5V251H253ZM253 306V305H198V306V307H253V306ZM198 306H198.5V251H198H197.5V306H198Z" fill="black" fill-opacity="0.2" mask="url(#path-1-inside-1_1_72)"/>
<mask id="path-3-inside-2_1_72" fill="white">
<path d="M253 251H308V306H253V251Z"/>
</mask>
<path d="M253 251H308V306H253V251Z" fill="#FFFF00"/>
<path d="M253 251V250H252.5V251H253ZM308 251H308.5V250H308V251ZM308 306V307H308.5V306H308ZM253 306H252.5V307H253V306ZM253 251V252H308V251V250H253V251ZM308 251H307.5V306H308H308.5V251H308ZM308 306V305H253V306V307H308V306ZM253 306H253.5V251H253H252.5V306H253Z" fill="black" mask="url(#path-3-inside-2_1_72)"/>
<path d="M253 251V250H252.5V251H253ZM308 251H308.5V250H308V251ZM308 306V307H308.5V306H308ZM253 306H252.5V307H253V306ZM253 251V252H308V251V250H253V251ZM308 251H307.5V306H308H308.5V251H308ZM308 306V305H253V306V307H308V306ZM253 306H253.5V251H253H252.5V306H253Z" fill="black" fill-opacity="0.2" mask="url(#path-3-inside-2_1_72)"/>
<mask id="path-5-inside-3_1_72" fill="white">
<path d="M308 251H363V306H308V251Z"/>
</mask>
<path d="M308 251H363V306H308V251Z" fill="#009DFF"/>
<path d="M308 251V250H307.5V251H308ZM363 251H363.5V250H363V251ZM363 306V307H363.5V306H363ZM308 306H307.5V307H308V306ZM308 251V252H363V251V250H308V251ZM363 251H362.5V306H363H363.5V251H363ZM363 306V305H308V306V307H363V306ZM308 306H308.5V251H308H307.5V306H308Z" fill="black" mask="url(#path-5-inside-3_1_72)"/>
<path d="M308 251V250H307.5V251H308ZM363 251H363.5V250H363V251ZM363 306V307H363.5V306H363ZM308 306H307.5V307H308V306ZM308 251V252H363V251V250H308V251ZM363 251H362.5V306H363H363.5V251H363ZM363 306V305H308V306V307H363V306ZM308 306H308.5V251H308H307.5V306H308Z" fill="black" fill-opacity="0.2" mask="url(#path-5-inside-3_1_72)"/>
<mask id="path-7-inside-4_1_72" fill="white">
<path d="M363 251H418V306H363V251Z"/>
</mask>
<path d="M363 251H418V306H363V251Z" fill="#62FF00"/>
<path d="M363 251V250H362.5V251H363ZM418 251H419V250H418V251ZM418 306V307H419V306H418ZM363 306H362.5V307H363V306ZM363 251V252H418V251V250H363V251ZM418 251H417V306H418H419V251H418ZM418 306V305H363V306V307H418V306ZM363 306H363.5V251H363H362.5V306H363Z" fill="black" mask="url(#path-7-inside-4_1_72)"/>
<path d="M363 251V250H362.5V251H363ZM418 251H419V250H418V251ZM418 306V307H419V306H418ZM363 306H362.5V307H363V306ZM363 251V252H418V251V250H363V251ZM418 251H417V306H418H419V251H418ZM418 306V305H363V306V307H418V306ZM363 306H363.5V251H363H362.5V306H363Z" fill="black" fill-opacity="0.2" mask="url(#path-7-inside-4_1_72)"/>
<mask id="path-9-inside-5_1_72" fill="white">
<path d="M143 251H198V306H143V251Z"/>
</mask>
<path d="M143 251H198V306H143V251Z" fill="#FFC400"/>
<path d="M143 251V250H142.5V251H143ZM198 251H198.5V250H198V251ZM198 306V307H198.5V306H198ZM143 306H142.5V307H143V306ZM143 251V252H198V251V250H143V251ZM198 251H197.5V306H198H198.5V251H198ZM198 306V305H143V306V307H198V306ZM143 306H143.5V251H143H142.5V306H143Z" fill="black" mask="url(#path-9-inside-5_1_72)"/>
<path d="M143 251V250H142.5V251H143ZM198 251H198.5V250H198V251ZM198 306V307H198.5V306H198ZM143 306H142.5V307H143V306ZM143 251V252H198V251V250H143V251ZM198 251H197.5V306H198H198.5V251H198ZM198 306V305H143V306V307H198V306ZM143 306H143.5V251H143H142.5V306H143Z" fill="black" fill-opacity="0.2" mask="url(#path-9-inside-5_1_72)"/>
<mask id="path-11-inside-6_1_72" fill="white">
<path d="M88 251H143V306H88V251Z"/>
</mask>
<path d="M88 251H143V306H88V251Z" fill="#FF1515"/>
<path d="M88 251V250H87V251H88ZM143 251H143.5V250H143V251ZM143 306V307H143.5V306H143ZM88 306H87V307H88V306ZM88 251V252H143V251V250H88V251ZM143 251H142.5V306H143H143.5V251H143ZM143 306V305H88V306V307H143V306ZM88 306H89V251H88H87V306H88Z" fill="black" mask="url(#path-11-inside-6_1_72)"/>
<path d="M88 251V250H87V251H88ZM143 251H143.5V250H143V251ZM143 306V307H143.5V306H143ZM88 306H87V307H88V306ZM88 251V252H143V251V250H88V251ZM143 251H142.5V306H143H143.5V251H143ZM143 306V305H88V306V307H143V306ZM88 306H89V251H88H87V306H88Z" fill="black" fill-opacity="0.2" mask="url(#path-11-inside-6_1_72)"/>
<mask id="path-13-outside-7_1_72" maskUnits="userSpaceOnUse" x="108" y="267" width="13" height="24" fill="black">
<rect fill="white" x="108" y="267" width="13" height="24"/>
<path d="M119.261 268.182V290H114.648V272.56H114.52L109.523 275.692V271.602L114.925 268.182H119.261Z"/>
</mask>
<path d="M119.261 268.182V290H114.648V272.56H114.52L109.523 275.692V271.602L114.925 268.182H119.261Z" fill="black"/>
<path d="M119.261 268.182H120.261V267.182H119.261V268.182ZM119.261 290V291H120.261V290H119.261ZM114.648 290H113.648V291H114.648V290ZM114.648 272.56H115.648V271.56H114.648V272.56ZM114.52 272.56V271.56H114.232L113.989 271.713L114.52 272.56ZM109.523 275.692H108.523V277.5L110.055 276.54L109.523 275.692ZM109.523 271.602L108.989 270.757L108.523 271.051V271.602H109.523ZM114.925 268.182V267.182H114.635L114.39 267.337L114.925 268.182ZM119.261 268.182H118.261V290H119.261H120.261V268.182H119.261ZM119.261 290V289H114.648V290V291H119.261V290ZM114.648 290H115.648V272.56H114.648H113.648V290H114.648ZM114.648 272.56V271.56H114.52V272.56V273.56H114.648V272.56ZM114.52 272.56L113.989 271.713L108.992 274.845L109.523 275.692L110.055 276.54L115.051 273.408L114.52 272.56ZM109.523 275.692H110.523V271.602H109.523H108.523V275.692H109.523ZM109.523 271.602L110.058 272.446L115.46 269.027L114.925 268.182L114.39 267.337L108.989 270.757L109.523 271.602ZM114.925 268.182V269.182H119.261V268.182V267.182H114.925V268.182Z" fill="white" mask="url(#path-13-outside-7_1_72)"/>
<mask id="path-15-outside-8_1_72" maskUnits="userSpaceOnUse" x="161" y="266" width="19" height="25" fill="black">
<rect fill="white" x="161" y="266" width="19" height="25"/>
<path d="M162.768 290V286.676L170.535 279.485C171.195 278.846 171.749 278.271 172.197 277.759C172.651 277.248 172.996 276.747 173.23 276.257C173.464 275.76 173.582 275.224 173.582 274.648C173.582 274.009 173.436 273.459 173.145 272.997C172.854 272.528 172.456 272.17 171.952 271.921C171.447 271.665 170.876 271.538 170.237 271.538C169.569 271.538 168.987 271.673 168.489 271.942C167.992 272.212 167.609 272.599 167.339 273.104C167.069 273.608 166.934 274.208 166.934 274.904H162.555C162.555 273.477 162.879 272.237 163.525 271.186C164.171 270.135 165.077 269.322 166.241 268.746C167.406 268.171 168.749 267.884 170.268 267.884C171.831 267.884 173.191 268.161 174.349 268.714C175.513 269.261 176.419 270.021 177.065 270.994C177.712 271.967 178.035 273.082 178.035 274.339C178.035 275.163 177.871 275.977 177.545 276.779C177.225 277.582 176.653 278.473 175.83 279.453C175.006 280.426 173.844 281.594 172.346 282.958L169.161 286.08V286.229H178.322V290H162.768Z"/>
</mask>
<path d="M162.768 290V286.676L170.535 279.485C171.195 278.846 171.749 278.271 172.197 277.759C172.651 277.248 172.996 276.747 173.23 276.257C173.464 275.76 173.582 275.224 173.582 274.648C173.582 274.009 173.436 273.459 173.145 272.997C172.854 272.528 172.456 272.17 171.952 271.921C171.447 271.665 170.876 271.538 170.237 271.538C169.569 271.538 168.987 271.673 168.489 271.942C167.992 272.212 167.609 272.599 167.339 273.104C167.069 273.608 166.934 274.208 166.934 274.904H162.555C162.555 273.477 162.879 272.237 163.525 271.186C164.171 270.135 165.077 269.322 166.241 268.746C167.406 268.171 168.749 267.884 170.268 267.884C171.831 267.884 173.191 268.161 174.349 268.714C175.513 269.261 176.419 270.021 177.065 270.994C177.712 271.967 178.035 273.082 178.035 274.339C178.035 275.163 177.871 275.977 177.545 276.779C177.225 277.582 176.653 278.473 175.83 279.453C175.006 280.426 173.844 281.594 172.346 282.958L169.161 286.08V286.229H178.322V290H162.768Z" fill="black"/>
<path d="M162.768 290H161.768V291H162.768V290ZM162.768 286.676L162.089 285.942L161.768 286.239V286.676H162.768ZM170.535 279.485L171.214 280.219L171.222 280.211L171.23 280.204L170.535 279.485ZM172.197 277.759L171.449 277.095L171.444 277.101L172.197 277.759ZM173.23 276.257L174.132 276.689L174.135 276.684L173.23 276.257ZM173.145 272.997L172.295 273.525L172.299 273.531L173.145 272.997ZM171.952 271.921L171.499 272.813L171.51 272.818L171.952 271.921ZM167.339 273.104L168.22 273.576V273.576L167.339 273.104ZM166.934 274.904V275.904H167.934V274.904H166.934ZM162.555 274.904H161.555V275.904H162.555V274.904ZM163.525 271.186L164.377 271.71V271.71L163.525 271.186ZM166.241 268.746L165.799 267.85H165.799L166.241 268.746ZM174.349 268.714L173.917 269.617L173.924 269.62L174.349 268.714ZM177.065 270.994L176.232 271.548L176.232 271.548L177.065 270.994ZM177.545 276.779L176.619 276.402L176.616 276.409L177.545 276.779ZM175.83 279.453L176.593 280.099L176.595 280.097L175.83 279.453ZM172.346 282.958L171.673 282.218L171.659 282.231L171.646 282.244L172.346 282.958ZM169.161 286.08L168.461 285.365L168.161 285.659V286.08H169.161ZM169.161 286.229H168.161V287.229H169.161V286.229ZM178.322 286.229H179.322V285.229H178.322V286.229ZM178.322 290V291H179.322V290H178.322ZM162.768 290H163.768V286.676H162.768H161.768V290H162.768ZM162.768 286.676L163.448 287.41L171.214 280.219L170.535 279.485L169.855 278.751L162.089 285.942L162.768 286.676ZM170.535 279.485L171.23 280.204C171.904 279.551 172.479 278.956 172.949 278.418L172.197 277.759L171.444 277.101C171.02 277.585 170.486 278.14 169.839 278.766L170.535 279.485ZM172.197 277.759L172.944 278.424C173.446 277.859 173.849 277.282 174.132 276.689L173.23 276.257L172.328 275.826C172.143 276.213 171.857 276.636 171.449 277.095L172.197 277.759ZM173.23 276.257L174.135 276.684C174.435 276.047 174.582 275.364 174.582 274.648H173.582H172.582C172.582 275.083 172.494 275.473 172.326 275.831L173.23 276.257ZM173.582 274.648H174.582C174.582 273.853 174.399 273.111 173.991 272.464L173.145 272.997L172.299 273.531C172.473 273.807 172.582 274.165 172.582 274.648H173.582ZM173.145 272.997L173.994 272.469C173.603 271.839 173.062 271.354 172.394 271.024L171.952 271.921L171.51 272.818C171.85 272.986 172.105 273.218 172.295 273.525L173.145 272.997ZM171.952 271.921L172.404 271.029C171.742 270.694 171.012 270.538 170.237 270.538V271.538V272.538C170.739 272.538 171.153 272.637 171.499 272.813L171.952 271.921ZM170.237 271.538V270.538C169.432 270.538 168.68 270.701 168.012 271.064L168.489 271.942L168.966 272.821C169.293 272.644 169.705 272.538 170.237 272.538V271.538ZM168.489 271.942L168.012 271.064C167.341 271.428 166.818 271.957 166.457 272.632L167.339 273.104L168.22 273.576C168.399 273.242 168.643 272.997 168.966 272.821L168.489 271.942ZM167.339 273.104L166.457 272.632C166.094 273.31 165.934 274.079 165.934 274.904H166.934H167.934C167.934 274.337 168.043 273.906 168.22 273.576L167.339 273.104ZM166.934 274.904V273.904H162.555V274.904V275.904H166.934V274.904ZM162.555 274.904H163.555C163.555 273.632 163.842 272.58 164.377 271.71L163.525 271.186L162.673 270.662C161.915 271.894 161.555 273.321 161.555 274.904H162.555ZM163.525 271.186L164.377 271.71C164.919 270.828 165.679 270.14 166.684 269.643L166.241 268.746L165.799 267.85C164.475 268.504 163.423 269.442 162.673 270.662L163.525 271.186ZM166.241 268.746L166.684 269.643C167.69 269.146 168.876 268.884 170.268 268.884V267.884V266.884C168.621 266.884 167.123 267.196 165.799 267.85L166.241 268.746ZM170.268 267.884V268.884C171.713 268.884 172.92 269.14 173.917 269.617L174.349 268.714L174.78 267.812C173.462 267.181 171.948 266.884 170.268 266.884V267.884ZM174.349 268.714L173.924 269.62C174.94 270.097 175.697 270.742 176.232 271.548L177.065 270.994L177.898 270.441C177.141 269.3 176.087 268.426 174.774 267.809L174.349 268.714ZM177.065 270.994L176.232 271.548C176.761 272.344 177.035 273.264 177.035 274.339H178.035H179.035C179.035 272.901 178.662 271.591 177.898 270.441L177.065 270.994ZM178.035 274.339H177.035C177.035 275.027 176.899 275.713 176.619 276.402L177.545 276.779L178.471 277.156C178.844 276.24 179.035 275.299 179.035 274.339H178.035ZM177.545 276.779L176.616 276.409C176.35 277.077 175.849 277.876 175.064 278.81L175.83 279.453L176.595 280.097C177.458 279.07 178.1 278.086 178.474 277.149L177.545 276.779ZM175.83 279.453L175.066 278.807C174.282 279.734 173.156 280.869 171.673 282.218L172.346 282.958L173.019 283.698C174.533 282.32 175.73 281.119 176.593 280.099L175.83 279.453ZM172.346 282.958L171.646 282.244L168.461 285.365L169.161 286.08L169.86 286.794L173.046 283.672L172.346 282.958ZM169.161 286.08H168.161V286.229H169.161H170.161V286.08H169.161ZM169.161 286.229V287.229H178.322V286.229V285.229H169.161V286.229ZM178.322 286.229H177.322V290H178.322H179.322V286.229H178.322ZM178.322 290V289H162.768V290V291H178.322V290Z" fill="white" mask="url(#path-15-outside-8_1_72)"/>
<mask id="path-17-outside-9_1_72" maskUnits="userSpaceOnUse" x="216" y="266" width="20" height="26" fill="black">
<rect fill="white" x="216" y="266" width="20" height="26"/>
<path d="M225.833 290.298C224.242 290.298 222.825 290.025 221.582 289.478C220.347 288.924 219.37 288.164 218.653 287.198C217.942 286.225 217.577 285.103 217.555 283.832H222.2C222.229 284.364 222.403 284.833 222.722 285.238C223.049 285.636 223.482 285.945 224.022 286.165C224.562 286.385 225.169 286.495 225.844 286.495C226.547 286.495 227.168 286.371 227.708 286.122C228.248 285.874 228.67 285.529 228.976 285.089C229.281 284.648 229.434 284.141 229.434 283.565C229.434 282.983 229.271 282.468 228.944 282.021C228.624 281.566 228.163 281.211 227.559 280.955C226.962 280.7 226.252 280.572 225.428 280.572H223.393V277.184H225.428C226.124 277.184 226.739 277.063 227.271 276.822C227.811 276.58 228.23 276.246 228.528 275.82C228.827 275.387 228.976 274.883 228.976 274.308C228.976 273.761 228.844 273.281 228.582 272.869C228.326 272.45 227.964 272.124 227.495 271.889C227.033 271.655 226.494 271.538 225.876 271.538C225.251 271.538 224.679 271.651 224.161 271.879C223.642 272.099 223.227 272.415 222.914 272.827C222.602 273.239 222.435 273.722 222.413 274.276H217.992C218.013 273.018 218.372 271.911 219.068 270.952C219.764 269.993 220.702 269.244 221.881 268.704C223.067 268.157 224.406 267.884 225.897 267.884C227.403 267.884 228.72 268.157 229.849 268.704C230.979 269.251 231.856 269.989 232.481 270.92C233.113 271.843 233.425 272.88 233.418 274.031C233.425 275.252 233.045 276.271 232.278 277.088C231.518 277.905 230.528 278.423 229.306 278.643V278.814C230.911 279.02 232.133 279.577 232.971 280.487C233.816 281.388 234.235 282.518 234.228 283.874C234.235 285.117 233.876 286.222 233.152 287.188C232.435 288.153 231.444 288.913 230.18 289.467C228.915 290.021 227.467 290.298 225.833 290.298Z"/>
</mask>
<path d="M225.833 290.298C224.242 290.298 222.825 290.025 221.582 289.478C220.347 288.924 219.37 288.164 218.653 287.198C217.942 286.225 217.577 285.103 217.555 283.832H222.2C222.229 284.364 222.403 284.833 222.722 285.238C223.049 285.636 223.482 285.945 224.022 286.165C224.562 286.385 225.169 286.495 225.844 286.495C226.547 286.495 227.168 286.371 227.708 286.122C228.248 285.874 228.67 285.529 228.976 285.089C229.281 284.648 229.434 284.141 229.434 283.565C229.434 282.983 229.271 282.468 228.944 282.021C228.624 281.566 228.163 281.211 227.559 280.955C226.962 280.7 226.252 280.572 225.428 280.572H223.393V277.184H225.428C226.124 277.184 226.739 277.063 227.271 276.822C227.811 276.58 228.23 276.246 228.528 275.82C228.827 275.387 228.976 274.883 228.976 274.308C228.976 273.761 228.844 273.281 228.582 272.869C228.326 272.45 227.964 272.124 227.495 271.889C227.033 271.655 226.494 271.538 225.876 271.538C225.251 271.538 224.679 271.651 224.161 271.879C223.642 272.099 223.227 272.415 222.914 272.827C222.602 273.239 222.435 273.722 222.413 274.276H217.992C218.013 273.018 218.372 271.911 219.068 270.952C219.764 269.993 220.702 269.244 221.881 268.704C223.067 268.157 224.406 267.884 225.897 267.884C227.403 267.884 228.72 268.157 229.849 268.704C230.979 269.251 231.856 269.989 232.481 270.92C233.113 271.843 233.425 272.88 233.418 274.031C233.425 275.252 233.045 276.271 232.278 277.088C231.518 277.905 230.528 278.423 229.306 278.643V278.814C230.911 279.02 232.133 279.577 232.971 280.487C233.816 281.388 234.235 282.518 234.228 283.874C234.235 285.117 233.876 286.222 233.152 287.188C232.435 288.153 231.444 288.913 230.18 289.467C228.915 290.021 227.467 290.298 225.833 290.298Z" fill="black"/>
<path d="M221.582 289.478L221.173 290.391L221.18 290.393L221.582 289.478ZM218.653 287.198L217.845 287.788L217.85 287.794L218.653 287.198ZM217.555 283.832V282.832H216.538L216.556 283.848L217.555 283.832ZM222.2 283.832L223.199 283.778L223.148 282.832H222.2V283.832ZM222.722 285.238L221.937 285.858L221.943 285.865L221.95 285.873L222.722 285.238ZM224.022 286.165L223.644 287.091H223.644L224.022 286.165ZM227.708 286.122L227.29 285.214V285.214L227.708 286.122ZM228.976 285.089L229.798 285.659L229.798 285.659L228.976 285.089ZM228.944 282.021L228.126 282.596L228.131 282.603L228.136 282.61L228.944 282.021ZM227.559 280.955L227.165 281.874L227.169 281.876L227.559 280.955ZM223.393 280.572H222.393V281.572H223.393V280.572ZM223.393 277.184V276.184H222.393V277.184H223.393ZM227.271 276.822L226.863 275.909L226.858 275.911L227.271 276.822ZM228.528 275.82L229.348 276.394L229.352 276.387L228.528 275.82ZM228.582 272.869L227.728 273.39L227.733 273.399L227.739 273.407L228.582 272.869ZM227.495 271.889L227.042 272.781L227.048 272.784L227.495 271.889ZM224.161 271.879L224.551 272.799L224.562 272.794L224.161 271.879ZM222.914 272.827L223.711 273.431L223.711 273.431L222.914 272.827ZM222.413 274.276V275.276H223.376L223.413 274.314L222.413 274.276ZM217.992 274.276L216.992 274.259L216.975 275.276H217.992V274.276ZM219.068 270.952L219.877 271.539H219.877L219.068 270.952ZM221.881 268.704L222.297 269.613L222.299 269.612L221.881 268.704ZM229.849 268.704L230.285 267.804H230.285L229.849 268.704ZM232.481 270.92L231.651 271.477L231.656 271.485L232.481 270.92ZM233.418 274.031L232.418 274.024L232.418 274.036L233.418 274.031ZM232.278 277.088L231.549 276.403L231.546 276.407L232.278 277.088ZM229.306 278.643L229.129 277.659L228.306 277.808V278.643H229.306ZM229.306 278.814H228.306V279.694L229.179 279.806L229.306 278.814ZM232.971 280.487L232.236 281.164L232.241 281.17L232.971 280.487ZM234.228 283.874L233.228 283.869L233.228 283.88L234.228 283.874ZM233.152 287.188L232.352 286.587L232.349 286.591L233.152 287.188ZM230.18 289.467L229.778 288.551V288.551L230.18 289.467ZM225.833 290.298V289.298C224.357 289.298 223.081 289.045 221.985 288.563L221.582 289.478L221.18 290.393C222.569 291.005 224.127 291.298 225.833 291.298V290.298ZM221.582 289.478L221.991 288.565C220.892 288.073 220.059 287.414 219.456 286.602L218.653 287.198L217.85 287.794C218.682 288.914 219.801 289.775 221.173 290.39L221.582 289.478ZM218.653 287.198L219.46 286.609C218.879 285.812 218.573 284.892 218.555 283.815L217.555 283.832L216.556 283.848C216.58 285.314 217.006 286.639 217.845 287.788L218.653 287.198ZM217.555 283.832V284.832H222.2V283.832V282.832H217.555V283.832ZM222.2 283.832L221.202 283.885C221.241 284.616 221.485 285.285 221.937 285.858L222.722 285.238L223.507 284.618C223.32 284.381 223.217 284.112 223.199 283.778L222.2 283.832ZM222.722 285.238L221.95 285.873C222.395 286.415 222.971 286.816 223.644 287.091L224.022 286.165L224.4 285.239C223.993 285.073 223.703 284.856 223.495 284.603L222.722 285.238ZM224.022 286.165L223.644 287.091C224.321 287.367 225.06 287.495 225.844 287.495V286.495V285.495C225.278 285.495 224.802 285.403 224.4 285.239L224.022 286.165ZM225.844 286.495V287.495C226.665 287.495 227.434 287.35 228.126 287.03L227.708 286.122L227.29 285.214C226.903 285.392 226.429 285.495 225.844 285.495V286.495ZM227.708 286.122L228.126 287.03C228.81 286.716 229.38 286.261 229.798 285.659L228.976 285.089L228.154 284.519C227.961 284.797 227.685 285.032 227.29 285.214L227.708 286.122ZM228.976 285.089L229.798 285.659C230.228 285.038 230.434 284.329 230.434 283.565H229.434H228.434C228.434 283.953 228.335 284.258 228.154 284.519L228.976 285.089ZM229.434 283.565H230.434C230.434 282.783 230.21 282.059 229.752 281.431L228.944 282.021L228.136 282.61C228.331 282.877 228.434 283.183 228.434 283.565H229.434ZM228.944 282.021L229.762 281.445C229.317 280.812 228.693 280.35 227.949 280.034L227.559 280.955L227.169 281.876C227.632 282.072 227.932 282.32 228.126 282.596L228.944 282.021ZM227.559 280.955L227.953 280.036C227.203 279.715 226.352 279.572 225.428 279.572V280.572V281.572C226.152 281.572 226.722 281.684 227.165 281.874L227.559 280.955ZM225.428 280.572V279.572H223.393V280.572V281.572H225.428V280.572ZM223.393 280.572H224.393V277.184H223.393H222.393V280.572H223.393ZM223.393 277.184V278.184H225.428V277.184V276.184H223.393V277.184ZM225.428 277.184V278.184C226.24 278.184 227 278.043 227.684 277.733L227.271 276.822L226.858 275.911C226.478 276.084 226.009 276.184 225.428 276.184V277.184ZM227.271 276.822L227.68 277.735C228.362 277.43 228.932 276.988 229.348 276.394L228.528 275.82L227.709 275.247C227.528 275.505 227.261 275.731 226.863 275.909L227.271 276.822ZM228.528 275.82L229.352 276.387C229.776 275.772 229.976 275.065 229.976 274.308H228.976H227.976C227.976 274.7 227.877 275.002 227.705 275.253L228.528 275.82ZM228.976 274.308H229.976C229.976 273.594 229.802 272.923 229.425 272.332L228.582 272.869L227.739 273.407C227.887 273.64 227.976 273.928 227.976 274.308H228.976ZM228.582 272.869L229.435 272.348C229.075 271.758 228.567 271.307 227.942 270.995L227.495 271.889L227.048 272.784C227.361 272.94 227.577 273.142 227.728 273.39L228.582 272.869ZM227.495 271.889L227.948 270.998C227.321 270.679 226.621 270.538 225.876 270.538V271.538V272.538C226.366 272.538 226.746 272.63 227.042 272.781L227.495 271.889ZM225.876 271.538V270.538C225.127 270.538 224.417 270.674 223.759 270.963L224.161 271.879L224.562 272.794C224.941 272.628 225.374 272.538 225.876 272.538V271.538ZM224.161 271.879L223.77 270.958C223.105 271.24 222.545 271.659 222.117 272.222L222.914 272.827L223.711 273.431C223.909 273.17 224.179 272.957 224.551 272.799L224.161 271.879ZM222.914 272.827L222.117 272.222C221.672 272.81 221.443 273.494 221.414 274.237L222.413 274.276L223.413 274.314C223.427 273.949 223.531 273.668 223.711 273.431L222.914 272.827ZM222.413 274.276V273.276H217.992V274.276V275.276H222.413V274.276ZM217.992 274.276L218.992 274.293C219.01 273.227 219.31 272.321 219.877 271.539L219.068 270.952L218.259 270.364C217.435 271.5 217.017 272.81 216.992 274.259L217.992 274.276ZM219.068 270.952L219.877 271.539C220.463 270.733 221.259 270.088 222.297 269.613L221.881 268.704L221.464 267.795C220.144 268.399 219.065 269.253 218.259 270.364L219.068 270.952ZM221.881 268.704L222.299 269.612C223.337 269.134 224.53 268.884 225.897 268.884V267.884V266.884C224.281 266.884 222.797 267.18 221.462 267.796L221.881 268.704ZM225.897 267.884V268.884C227.282 268.884 228.445 269.135 229.414 269.604L229.849 268.704L230.285 267.804C228.996 267.179 227.524 266.884 225.897 266.884V267.884ZM229.849 268.704L229.414 269.604C230.403 270.083 231.136 270.711 231.651 271.477L232.481 270.92L233.311 270.362C232.576 269.268 231.554 268.418 230.285 267.804L229.849 268.704ZM232.481 270.92L231.656 271.485C232.169 272.235 232.424 273.071 232.418 274.024L233.418 274.031L234.418 274.037C234.427 272.689 234.057 271.451 233.306 270.355L232.481 270.92ZM233.418 274.031L232.418 274.036C232.424 275.027 232.124 275.791 231.549 276.403L232.278 277.088L233.007 277.773C233.966 276.751 234.427 275.477 234.418 274.025L233.418 274.031ZM232.278 277.088L231.546 276.407C230.95 277.048 230.163 277.473 229.129 277.659L229.306 278.643L229.483 279.628C230.893 279.374 232.087 278.762 233.011 277.769L232.278 277.088ZM229.306 278.643H228.306V278.814H229.306H230.306V278.643H229.306ZM229.306 278.814L229.179 279.806C230.624 279.991 231.601 280.476 232.236 281.164L232.971 280.487L233.706 279.809C232.665 278.679 231.199 278.049 229.433 277.822L229.306 278.814ZM232.971 280.487L232.241 281.17C232.894 281.867 233.234 282.741 233.228 283.869L234.228 283.874L235.228 283.88C235.236 282.294 234.738 280.91 233.701 279.803L232.971 280.487ZM234.228 283.874L233.228 283.88C233.234 284.911 232.941 285.802 232.352 286.587L233.152 287.188L233.952 287.788C234.812 286.641 235.236 285.323 235.228 283.869L234.228 283.874ZM233.152 287.188L232.349 286.591C231.75 287.398 230.907 288.057 229.778 288.551L230.18 289.467L230.581 290.383C231.981 289.77 233.119 288.909 233.955 287.784L233.152 287.188ZM230.18 289.467L229.778 288.551C228.662 289.041 227.353 289.298 225.833 289.298V290.298V291.298C227.58 291.298 229.169 291.002 230.581 290.383L230.18 289.467Z" fill="white" mask="url(#path-17-outside-9_1_72)"/>
<mask id="path-19-outside-10_1_72" maskUnits="userSpaceOnUse" x="271" y="267" width="21" height="24" fill="black">
<rect fill="white" x="271" y="267" width="21" height="24"/>
<path d="M272.438 286.165V282.532L281.547 268.182H284.679V273.21H282.825L277.083 282.298V282.468H290.027V286.165H272.438ZM282.911 290V285.057L282.996 283.448V268.182H287.321V290H282.911Z"/>
</mask>
<path d="M272.438 286.165V282.532L281.547 268.182H284.679V273.21H282.825L277.083 282.298V282.468H290.027V286.165H272.438ZM282.911 290V285.057L282.996 283.448V268.182H287.321V290H282.911Z" fill="black"/>
<path d="M272.438 286.165H271.438V287.165H272.438V286.165ZM272.438 282.532L271.594 281.996L271.438 282.241V282.532H272.438ZM281.547 268.182V267.182H280.997L280.703 267.646L281.547 268.182ZM284.679 268.182H285.679V267.182H284.679V268.182ZM284.679 273.21V274.21H285.679V273.21H284.679ZM282.825 273.21V272.21H282.274L281.98 272.676L282.825 273.21ZM277.083 282.298L276.238 281.763L276.083 282.008V282.298H277.083ZM277.083 282.468H276.083V283.468H277.083V282.468ZM290.027 282.468H291.027V281.468H290.027V282.468ZM290.027 286.165V287.165H291.027V286.165H290.027ZM282.911 290H281.911V291H282.911V290ZM282.911 285.057L281.912 285.004L281.911 285.03V285.057H282.911ZM282.996 283.448L283.994 283.501L283.996 283.475V283.448H282.996ZM282.996 268.182V267.182H281.996V268.182H282.996ZM287.321 268.182H288.321V267.182H287.321V268.182ZM287.321 290V291H288.321V290H287.321ZM272.438 286.165H273.438V282.532H272.438H271.438V286.165H272.438ZM272.438 282.532L273.282 283.068L282.391 268.718L281.547 268.182L280.703 267.646L271.594 281.996L272.438 282.532ZM281.547 268.182V269.182H284.679V268.182V267.182H281.547V268.182ZM284.679 268.182H283.679V273.21H284.679H285.679V268.182H284.679ZM284.679 273.21V272.21H282.825V273.21V274.21H284.679V273.21ZM282.825 273.21L281.98 272.676L276.238 281.763L277.083 282.298L277.928 282.832L283.671 273.744L282.825 273.21ZM277.083 282.298H276.083V282.468H277.083H278.083V282.298H277.083ZM277.083 282.468V283.468H290.027V282.468V281.468H277.083V282.468ZM290.027 282.468H289.027V286.165H290.027H291.027V282.468H290.027ZM290.027 286.165V285.165H272.438V286.165V287.165H290.027V286.165ZM282.911 290H283.911V285.057H282.911H281.911V290H282.911ZM282.911 285.057L283.909 285.11L283.994 283.501L282.996 283.448L281.997 283.395L281.912 285.004L282.911 285.057ZM282.996 283.448H283.996V268.182H282.996H281.996V283.448H282.996ZM282.996 268.182V269.182H287.321V268.182V267.182H282.996V268.182ZM287.321 268.182H286.321V290H287.321H288.321V268.182H287.321ZM287.321 290V289H282.911V290V291H287.321V290Z" fill="white" mask="url(#path-19-outside-10_1_72)"/>
<mask id="path-21-outside-11_1_72" maskUnits="userSpaceOnUse" x="326" y="267" width="19" height="25" fill="black">
<rect fill="white" x="326" y="267" width="19" height="25"/>
<path d="M335.737 290.298C334.232 290.298 332.889 290.021 331.71 289.467C330.538 288.913 329.608 288.15 328.919 287.177C328.23 286.204 327.871 285.089 327.843 283.832H332.317C332.367 284.677 332.722 285.362 333.383 285.888C334.043 286.413 334.828 286.676 335.737 286.676C336.462 286.676 337.101 286.516 337.655 286.197C338.216 285.87 338.653 285.419 338.965 284.844C339.285 284.261 339.445 283.594 339.445 282.841C339.445 282.074 339.281 281.399 338.955 280.817C338.635 280.234 338.191 279.78 337.623 279.453C337.055 279.126 336.405 278.96 335.673 278.952C335.034 278.952 334.413 279.084 333.809 279.347C333.212 279.609 332.747 279.968 332.413 280.423L328.312 279.688L329.345 268.182H342.683V271.953H333.148L332.584 277.418H332.712C333.095 276.879 333.674 276.431 334.448 276.076C335.222 275.721 336.089 275.543 337.048 275.543C338.362 275.543 339.533 275.852 340.563 276.47C341.593 277.088 342.406 277.937 343.003 279.016C343.599 280.089 343.894 281.325 343.887 282.724C343.894 284.194 343.553 285.501 342.864 286.644C342.183 287.781 341.227 288.675 339.999 289.329C338.777 289.975 337.357 290.298 335.737 290.298Z"/>
</mask>
<path d="M335.737 290.298C334.232 290.298 332.889 290.021 331.71 289.467C330.538 288.913 329.608 288.15 328.919 287.177C328.23 286.204 327.871 285.089 327.843 283.832H332.317C332.367 284.677 332.722 285.362 333.383 285.888C334.043 286.413 334.828 286.676 335.737 286.676C336.462 286.676 337.101 286.516 337.655 286.197C338.216 285.87 338.653 285.419 338.965 284.844C339.285 284.261 339.445 283.594 339.445 282.841C339.445 282.074 339.281 281.399 338.955 280.817C338.635 280.234 338.191 279.78 337.623 279.453C337.055 279.126 336.405 278.96 335.673 278.952C335.034 278.952 334.413 279.084 333.809 279.347C333.212 279.609 332.747 279.968 332.413 280.423L328.312 279.688L329.345 268.182H342.683V271.953H333.148L332.584 277.418H332.712C333.095 276.879 333.674 276.431 334.448 276.076C335.222 275.721 336.089 275.543 337.048 275.543C338.362 275.543 339.533 275.852 340.563 276.47C341.593 277.088 342.406 277.937 343.003 279.016C343.599 280.089 343.894 281.325 343.887 282.724C343.894 284.194 343.553 285.501 342.864 286.644C342.183 287.781 341.227 288.675 339.999 289.329C338.777 289.975 337.357 290.298 335.737 290.298Z" fill="black"/>
<path d="M331.71 289.467L331.283 290.371L331.285 290.372L331.71 289.467ZM328.919 287.177L329.735 286.599V286.599L328.919 287.177ZM327.843 283.832V282.832H326.82L326.843 283.854L327.843 283.832ZM332.317 283.832L333.316 283.773L333.26 282.832H332.317V283.832ZM333.383 285.888L334.005 285.105V285.105L333.383 285.888ZM337.655 286.197L338.155 287.063L338.158 287.061L337.655 286.197ZM338.965 284.844L338.089 284.363L338.086 284.366L338.965 284.844ZM338.955 280.817L338.078 281.298L338.082 281.306L338.955 280.817ZM337.623 279.453L337.124 280.32H337.124L337.623 279.453ZM335.673 278.952L335.683 277.952H335.673V278.952ZM333.809 279.347L333.41 278.43L333.406 278.431L333.809 279.347ZM332.413 280.423L332.237 281.407L332.85 281.517L333.219 281.014L332.413 280.423ZM328.312 279.688L327.316 279.598L327.234 280.51L328.135 280.672L328.312 279.688ZM329.345 268.182V267.182H328.431L328.349 268.092L329.345 268.182ZM342.683 268.182H343.683V267.182H342.683V268.182ZM342.683 271.953V272.953H343.683V271.953H342.683ZM333.148 271.953V270.953H332.246L332.154 271.85L333.148 271.953ZM332.584 277.418L331.589 277.316L331.475 278.418H332.584V277.418ZM332.712 277.418V278.418H333.228L333.527 277.998L332.712 277.418ZM334.448 276.076L334.865 276.985V276.985L334.448 276.076ZM340.563 276.47L341.078 275.613V275.613L340.563 276.47ZM343.003 279.016L342.128 279.5L342.129 279.502L343.003 279.016ZM343.887 282.724L342.887 282.719L342.887 282.729L343.887 282.724ZM342.864 286.644L342.008 286.128L342.007 286.13L342.864 286.644ZM339.999 289.329L340.466 290.213L340.468 290.212L339.999 289.329ZM335.737 290.298V289.298C334.356 289.298 333.162 289.045 332.135 288.562L331.71 289.467L331.285 290.372C332.616 290.998 334.107 291.298 335.737 291.298V290.298ZM331.71 289.467L332.138 288.563C331.107 288.076 330.316 287.42 329.735 286.599L328.919 287.177L328.103 287.755C328.9 288.88 329.969 289.751 331.283 290.371L331.71 289.467ZM328.919 287.177L329.735 286.599C329.168 285.798 328.867 284.878 328.843 283.809L327.843 283.832L326.843 283.854C326.876 285.299 327.292 286.61 328.103 287.755L328.919 287.177ZM327.843 283.832V284.832H332.317V283.832V282.832H327.843V283.832ZM332.317 283.832L331.319 283.89C331.386 285.018 331.877 285.967 332.76 286.67L333.383 285.888L334.005 285.105C333.568 284.757 333.349 284.335 333.316 283.773L332.317 283.832ZM333.383 285.888L332.76 286.67C333.612 287.348 334.621 287.676 335.737 287.676V286.676V285.676C335.036 285.676 334.475 285.479 334.005 285.105L333.383 285.888ZM335.737 286.676V287.676C336.613 287.676 337.429 287.481 338.155 287.063L337.655 286.197L337.155 285.331C336.772 285.551 336.31 285.676 335.737 285.676V286.676ZM337.655 286.197L338.158 287.061C338.879 286.641 339.445 286.056 339.844 285.321L338.965 284.844L338.086 284.366C337.861 284.782 337.553 285.099 337.152 285.333L337.655 286.197ZM338.965 284.844L339.842 285.325C340.253 284.576 340.445 283.739 340.445 282.841H339.445H338.445C338.445 283.448 338.317 283.946 338.089 284.363L338.965 284.844ZM339.445 282.841H340.445C340.445 281.928 340.249 281.08 339.827 280.328L338.955 280.817L338.082 281.306C338.314 281.718 338.445 282.219 338.445 282.841H339.445ZM338.955 280.817L339.831 280.336C339.425 279.595 338.851 279.006 338.121 278.586L337.623 279.453L337.124 280.32C337.531 280.554 337.845 280.874 338.078 281.298L338.955 280.817ZM337.623 279.453L338.121 278.586C337.388 278.164 336.566 277.961 335.683 277.952L335.673 278.952L335.664 279.952C336.244 279.958 336.722 280.088 337.124 280.32L337.623 279.453ZM335.673 278.952V277.952C334.893 277.952 334.136 278.114 333.41 278.43L333.809 279.347L334.208 280.263C334.69 280.054 335.176 279.952 335.673 279.952V278.952ZM333.809 279.347L333.406 278.431C332.674 278.754 332.06 279.214 331.607 279.831L332.413 280.423L333.219 281.014C333.434 280.722 333.75 280.465 334.212 280.262L333.809 279.347ZM332.413 280.423L332.59 279.438L328.488 278.703L328.312 279.688L328.135 280.672L332.237 281.407L332.413 280.423ZM328.312 279.688L329.308 279.777L330.341 268.271L329.345 268.182L328.349 268.092L327.316 279.598L328.312 279.688ZM329.345 268.182V269.182H342.683V268.182V267.182H329.345V268.182ZM342.683 268.182H341.683V271.953H342.683H343.683V268.182H342.683ZM342.683 271.953V270.953H333.148V271.953V272.953H342.683V271.953ZM333.148 271.953L332.154 271.85L331.589 277.316L332.584 277.418L333.579 277.521L334.143 272.056L333.148 271.953ZM332.584 277.418V278.418H332.712V277.418V276.418H332.584V277.418ZM332.712 277.418L333.527 277.998C333.784 277.636 334.206 277.287 334.865 276.985L334.448 276.076L334.031 275.167C333.142 275.575 332.407 276.121 331.896 276.839L332.712 277.418ZM334.448 276.076L334.865 276.985C335.493 276.697 336.215 276.543 337.048 276.543V275.543V274.543C335.963 274.543 334.952 274.745 334.031 275.167L334.448 276.076ZM337.048 275.543V276.543C338.198 276.543 339.189 276.812 340.049 277.328L340.563 276.47L341.078 275.613C339.878 274.893 338.525 274.543 337.048 274.543V275.543ZM340.563 276.47L340.049 277.328C340.923 277.852 341.614 278.57 342.128 279.5L343.003 279.016L343.878 278.533C343.199 277.303 342.263 276.324 341.078 275.613L340.563 276.47ZM343.003 279.016L342.129 279.502C342.631 280.405 342.893 281.467 342.887 282.719L343.887 282.724L344.887 282.729C344.895 281.182 344.568 279.773 343.877 278.53L343.003 279.016ZM343.887 282.724L342.887 282.729C342.893 284.034 342.593 285.157 342.008 286.128L342.864 286.644L343.721 287.16C344.514 285.844 344.895 284.353 344.887 282.719L343.887 282.724ZM342.864 286.644L342.007 286.13C341.423 287.102 340.606 287.873 339.529 288.446L339.999 289.329L340.468 290.212C341.849 289.478 342.942 288.459 343.722 287.159L342.864 286.644ZM339.999 289.329L339.531 288.445C338.476 289.003 337.222 289.298 335.737 289.298V290.298V291.298C337.492 291.298 339.078 290.947 340.466 290.213L339.999 289.329Z" fill="white" mask="url(#path-21-outside-11_1_72)"/>
<mask id="path-23-outside-12_1_72" maskUnits="userSpaceOnUse" x="381" y="266" width="20" height="26" fill="black">
<rect fill="white" x="381" y="266" width="20" height="26"/>
<path d="M391.142 290.298C390.02 290.291 388.937 290.103 387.893 289.734C386.856 289.364 385.925 288.764 385.102 287.933C384.278 287.102 383.624 286.001 383.141 284.631C382.665 283.26 382.428 281.577 382.428 279.581C382.435 277.749 382.644 276.112 383.056 274.67C383.475 273.221 384.072 271.992 384.846 270.984C385.627 269.975 386.561 269.208 387.648 268.683C388.734 268.15 389.952 267.884 391.302 267.884C392.758 267.884 394.043 268.168 395.158 268.736C396.273 269.297 397.168 270.06 397.843 271.026C398.525 271.992 398.937 273.075 399.079 274.276H394.53C394.352 273.516 393.979 272.919 393.411 272.486C392.843 272.053 392.14 271.836 391.302 271.836C389.881 271.836 388.802 272.454 388.063 273.69C387.332 274.925 386.959 276.605 386.945 278.729H387.094C387.42 278.082 387.861 277.532 388.415 277.077C388.976 276.616 389.612 276.264 390.322 276.023C391.039 275.774 391.795 275.65 392.591 275.65C393.884 275.65 395.034 275.955 396.043 276.566C397.051 277.17 397.847 278.001 398.429 279.059C399.011 280.117 399.303 281.328 399.303 282.692C399.303 284.169 398.958 285.483 398.269 286.634C397.587 287.784 396.632 288.686 395.403 289.339C394.182 289.986 392.761 290.305 391.142 290.298ZM391.121 286.676C391.831 286.676 392.467 286.506 393.028 286.165C393.589 285.824 394.029 285.362 394.349 284.78C394.668 284.197 394.828 283.544 394.828 282.82C394.828 282.095 394.668 281.445 394.349 280.87C394.036 280.295 393.603 279.837 393.049 279.496C392.495 279.155 391.863 278.984 391.153 278.984C390.62 278.984 390.126 279.084 389.672 279.283C389.224 279.482 388.83 279.759 388.489 280.114C388.156 280.469 387.893 280.881 387.701 281.349C387.509 281.811 387.413 282.305 387.413 282.83C387.413 283.533 387.573 284.176 387.893 284.759C388.219 285.341 388.66 285.806 389.214 286.154C389.775 286.502 390.411 286.676 391.121 286.676Z"/>
</mask>
<path d="M391.142 290.298C390.02 290.291 388.937 290.103 387.893 289.734C386.856 289.364 385.925 288.764 385.102 287.933C384.278 287.102 383.624 286.001 383.141 284.631C382.665 283.26 382.428 281.577 382.428 279.581C382.435 277.749 382.644 276.112 383.056 274.67C383.475 273.221 384.072 271.992 384.846 270.984C385.627 269.975 386.561 269.208 387.648 268.683C388.734 268.15 389.952 267.884 391.302 267.884C392.758 267.884 394.043 268.168 395.158 268.736C396.273 269.297 397.168 270.06 397.843 271.026C398.525 271.992 398.937 273.075 399.079 274.276H394.53C394.352 273.516 393.979 272.919 393.411 272.486C392.843 272.053 392.14 271.836 391.302 271.836C389.881 271.836 388.802 272.454 388.063 273.69C387.332 274.925 386.959 276.605 386.945 278.729H387.094C387.42 278.082 387.861 277.532 388.415 277.077C388.976 276.616 389.612 276.264 390.322 276.023C391.039 275.774 391.795 275.65 392.591 275.65C393.884 275.65 395.034 275.955 396.043 276.566C397.051 277.17 397.847 278.001 398.429 279.059C399.011 280.117 399.303 281.328 399.303 282.692C399.303 284.169 398.958 285.483 398.269 286.634C397.587 287.784 396.632 288.686 395.403 289.339C394.182 289.986 392.761 290.305 391.142 290.298ZM391.121 286.676C391.831 286.676 392.467 286.506 393.028 286.165C393.589 285.824 394.029 285.362 394.349 284.78C394.668 284.197 394.828 283.544 394.828 282.82C394.828 282.095 394.668 281.445 394.349 280.87C394.036 280.295 393.603 279.837 393.049 279.496C392.495 279.155 391.863 278.984 391.153 278.984C390.62 278.984 390.126 279.084 389.672 279.283C389.224 279.482 388.83 279.759 388.489 280.114C388.156 280.469 387.893 280.881 387.701 281.349C387.509 281.811 387.413 282.305 387.413 282.83C387.413 283.533 387.573 284.176 387.893 284.759C388.219 285.341 388.66 285.806 389.214 286.154C389.775 286.502 390.411 286.676 391.121 286.676Z" fill="black"/>
<path d="M391.142 290.298L391.136 291.298L391.138 291.298L391.142 290.298ZM387.893 289.734L387.557 290.676L387.559 290.676L387.893 289.734ZM385.102 287.933L384.391 288.637V288.637L385.102 287.933ZM383.141 284.631L382.197 284.959L382.198 284.963L383.141 284.631ZM382.428 279.581L381.428 279.577V279.581H382.428ZM383.056 274.67L382.095 274.392L382.095 274.395L383.056 274.67ZM384.846 270.984L384.055 270.371L384.053 270.375L384.846 270.984ZM387.648 268.683L388.083 269.583L388.088 269.58L387.648 268.683ZM395.158 268.736L394.704 269.627L394.709 269.629L395.158 268.736ZM397.843 271.026L397.023 271.599L397.026 271.603L397.843 271.026ZM399.079 274.276V275.276H400.204L400.072 274.158L399.079 274.276ZM394.53 274.276L393.556 274.503L393.737 275.276H394.53V274.276ZM388.063 273.69L387.205 273.177L387.203 273.18L388.063 273.69ZM386.945 278.729L385.945 278.722L385.938 279.729H386.945V278.729ZM387.094 278.729V279.729H387.709L387.986 279.18L387.094 278.729ZM388.415 277.077L389.049 277.85L389.05 277.85L388.415 277.077ZM390.322 276.023L390.644 276.97L390.649 276.968L390.322 276.023ZM396.043 276.566L395.525 277.421L395.529 277.424L396.043 276.566ZM398.269 286.634L397.411 286.12L397.409 286.124L398.269 286.634ZM395.403 289.339L395.871 290.223L395.873 290.222L395.403 289.339ZM393.028 286.165L393.547 287.019V287.019L393.028 286.165ZM394.349 284.78L395.225 285.261H395.225L394.349 284.78ZM394.349 280.87L393.47 281.347L393.475 281.356L394.349 280.87ZM393.049 279.496L393.573 278.644L393.573 278.644L393.049 279.496ZM389.672 279.283L389.271 278.366L389.266 278.369L389.672 279.283ZM388.489 280.114L387.768 279.421L387.761 279.429L388.489 280.114ZM387.701 281.349L388.625 281.733L388.627 281.728L387.701 281.349ZM387.893 284.759L387.016 285.24L387.021 285.248L387.893 284.759ZM389.214 286.154L388.682 287.001L388.687 287.004L389.214 286.154ZM391.142 290.298L391.148 289.298C390.136 289.292 389.164 289.123 388.226 288.791L387.893 289.734L387.559 290.676C388.71 291.083 389.904 291.29 391.136 291.298L391.142 290.298ZM387.893 289.734L388.228 288.792C387.341 288.476 386.537 287.961 385.812 287.229L385.102 287.933L384.391 288.637C385.314 289.568 386.37 290.253 387.557 290.676L387.893 289.734ZM385.102 287.933L385.812 287.229C385.114 286.526 384.53 285.562 384.085 284.298L383.141 284.631L382.198 284.963C382.719 286.44 383.441 287.679 384.391 288.637L385.102 287.933ZM383.141 284.631L384.086 284.303C383.658 283.069 383.428 281.504 383.428 279.581H382.428H381.428C381.428 281.649 381.673 283.451 382.197 284.959L383.141 284.631ZM382.428 279.581L383.428 279.585C383.434 277.825 383.636 276.281 384.018 274.944L383.056 274.67L382.095 274.395C381.653 275.942 381.435 277.673 381.428 279.577L382.428 279.581ZM383.056 274.67L384.017 274.948C384.407 273.597 384.954 272.486 385.639 271.593L384.846 270.984L384.053 270.375C383.19 271.499 382.543 272.845 382.095 274.392L383.056 274.67ZM384.846 270.984L385.636 271.596C386.329 270.702 387.143 270.037 388.083 269.583L387.648 268.683L387.212 267.782C385.979 268.379 384.926 269.248 384.055 270.371L384.846 270.984ZM387.648 268.683L388.088 269.58C389.022 269.122 390.087 268.884 391.302 268.884V267.884V266.884C389.818 266.884 388.446 267.177 387.208 267.785L387.648 268.683ZM391.302 267.884V268.884C392.626 268.884 393.751 269.141 394.704 269.627L395.158 268.736L395.612 267.845C394.335 267.194 392.89 266.884 391.302 266.884V267.884ZM395.158 268.736L394.709 269.629C395.685 270.12 396.449 270.777 397.023 271.599L397.843 271.026L398.663 270.454C397.888 269.344 396.862 268.474 395.608 267.843L395.158 268.736ZM397.843 271.026L397.026 271.603C397.61 272.43 397.963 273.354 398.086 274.393L399.079 274.276L400.072 274.158C399.911 272.796 399.44 271.555 398.66 270.45L397.843 271.026ZM399.079 274.276V273.276H394.53V274.276V275.276H399.079V274.276ZM394.53 274.276L395.504 274.048C395.278 273.084 394.788 272.278 394.018 271.691L393.411 272.486L392.805 273.281C393.171 273.56 393.426 273.947 393.556 274.503L394.53 274.276ZM393.411 272.486L394.018 271.691C393.246 271.102 392.32 270.836 391.302 270.836V271.836V272.836C391.96 272.836 392.44 273.003 392.805 273.281L393.411 272.486ZM391.302 271.836V270.836C389.524 270.836 388.121 271.644 387.205 273.177L388.063 273.69L388.922 274.203C389.483 273.264 390.239 272.836 391.302 272.836V271.836ZM388.063 273.69L387.203 273.18C386.348 274.624 385.959 276.5 385.945 278.722L386.945 278.729L387.945 278.735C387.958 276.71 388.315 275.227 388.924 274.199L388.063 273.69ZM386.945 278.729V279.729H387.094V278.729V277.729H386.945V278.729ZM387.094 278.729L387.986 279.18C388.251 278.656 388.604 278.216 389.049 277.85L388.415 277.077L387.78 276.304C387.118 276.848 386.59 277.509 386.201 278.278L387.094 278.729ZM388.415 277.077L389.05 277.85C389.515 277.467 390.044 277.173 390.644 276.97L390.322 276.023L390 275.076C389.179 275.355 388.437 275.764 387.779 276.305L388.415 277.077ZM390.322 276.023L390.649 276.968C391.256 276.757 391.902 276.65 392.591 276.65V275.65V274.65C391.689 274.65 390.822 274.791 389.994 275.078L390.322 276.023ZM392.591 275.65V276.65C393.719 276.65 394.687 276.914 395.525 277.421L396.043 276.566L396.561 275.711C395.381 274.996 394.048 274.65 392.591 274.65V275.65ZM396.043 276.566L395.529 277.424C396.381 277.934 397.053 278.634 397.553 279.541L398.429 279.059L399.305 278.577C398.64 277.368 397.721 276.405 396.556 275.708L396.043 276.566ZM398.429 279.059L397.553 279.541C398.044 280.433 398.303 281.475 398.303 282.692H399.303H400.303C400.303 281.182 399.979 279.801 399.305 278.577L398.429 279.059ZM399.303 282.692H398.303C398.303 284.007 397.998 285.14 397.411 286.12L398.269 286.634L399.127 287.147C399.918 285.826 400.303 284.331 400.303 282.692H399.303ZM398.269 286.634L397.409 286.124C396.825 287.11 396.007 287.886 394.934 288.457L395.403 289.339L395.873 290.222C397.257 289.486 398.35 288.458 399.129 287.143L398.269 286.634ZM395.403 289.339L394.936 288.456C393.883 289.013 392.63 289.305 391.146 289.298L391.142 290.298L391.138 291.298C392.893 291.306 394.481 290.959 395.871 290.223L395.403 289.339ZM391.121 286.676V287.676C391.999 287.676 392.817 287.463 393.547 287.019L393.028 286.165L392.508 285.31C392.117 285.548 391.663 285.676 391.121 285.676V286.676ZM393.028 286.165L393.547 287.019C394.26 286.586 394.823 285.995 395.225 285.261L394.349 284.78L393.472 284.299C393.236 284.729 392.918 285.061 392.508 285.31L393.028 286.165ZM394.349 284.78L395.225 285.261C395.633 284.518 395.828 283.697 395.828 282.82H394.828H393.828C393.828 283.391 393.704 283.877 393.472 284.299L394.349 284.78ZM394.828 282.82H395.828C395.828 281.943 395.633 281.123 395.223 280.384L394.349 280.87L393.475 281.356C393.704 281.768 393.828 282.248 393.828 282.82H394.828ZM394.349 280.87L395.227 280.393C394.832 279.665 394.277 279.077 393.573 278.644L393.049 279.496L392.525 280.347C392.929 280.596 393.24 280.925 393.47 281.347L394.349 280.87ZM393.049 279.496L393.573 278.644C392.847 278.197 392.03 277.984 391.153 277.984V278.984V279.984C391.695 279.984 392.143 280.112 392.525 280.347L393.049 279.496ZM391.153 278.984V277.984C390.492 277.984 389.861 278.108 389.271 278.367L389.672 279.283L390.073 280.199C390.392 280.059 390.748 279.984 391.153 279.984V278.984ZM389.672 279.283L389.266 278.369C388.699 278.621 388.198 278.973 387.768 279.421L388.489 280.114L389.211 280.806C389.462 280.544 389.75 280.342 390.078 280.196L389.672 279.283ZM388.489 280.114L387.761 279.429C387.34 279.876 387.012 280.393 386.775 280.971L387.701 281.349L388.627 281.728C388.774 281.368 388.971 281.061 389.218 280.799L388.489 280.114ZM387.701 281.349L386.777 280.966C386.533 281.555 386.413 282.18 386.413 282.83H387.413H388.413C388.413 282.429 388.486 282.067 388.624 281.733L387.701 281.349ZM387.413 282.83H386.413C386.413 283.691 386.611 284.501 387.016 285.24L387.893 284.759L388.769 284.277C388.535 283.851 388.413 283.375 388.413 282.83H387.413ZM387.893 284.759L387.021 285.248C387.427 285.973 387.983 286.562 388.682 287.001L389.214 286.154L389.746 285.307C389.336 285.05 389.012 284.709 388.765 284.269L387.893 284.759ZM389.214 286.154L388.687 287.004C389.418 287.458 390.239 287.676 391.121 287.676V286.676V285.676C390.582 285.676 390.132 285.547 389.741 285.304L389.214 286.154Z" fill="white" mask="url(#path-23-outside-12_1_72)"/>
<path d="M87.2929 251.707C87.6834 252.098 88.3166 252.098 88.7071 251.707L95.0711 245.343C95.4616 244.953 95.4616 244.319 95.0711 243.929C94.6805 243.538 94.0474 243.538 93.6569 243.929L88 249.586L82.3431 243.929C81.9526 243.538 81.3195 243.538 80.9289 243.929C80.5384 244.319 80.5384 244.953 80.9289 245.343L87.2929 251.707ZM88 122H87L87 251H88H89L89 122H88Z" fill="black"/>
<path d="M63.1474 52.1818V74H58.5344V56.5604H58.4066L53.4102 59.6925V55.6016L58.8114 52.1818H63.1474ZM82.2196 74V70.6761L89.986 63.4851C90.6465 62.8459 91.2005 62.2706 91.6479 61.7592C92.1025 61.2479 92.4469 60.7472 92.6813 60.2571C92.9157 59.7599 93.0328 59.2237 93.0328 58.6484C93.0328 58.0092 92.8873 57.4588 92.5961 56.9972C92.3049 56.5284 91.9071 56.1697 91.4029 55.9212C90.8986 55.6655 90.3269 55.5376 89.6877 55.5376C89.0201 55.5376 88.4377 55.6726 87.9405 55.9425C87.4434 56.2124 87.0598 56.5994 86.79 57.1037C86.5201 57.608 86.3851 58.2081 86.3851 58.9041H82.0066C82.0066 57.4766 82.3297 56.2372 82.976 55.1861C83.6223 54.1349 84.5279 53.3217 85.6926 52.7464C86.8574 52.1712 88.1998 51.8835 89.7196 51.8835C91.2821 51.8835 92.6422 52.1605 93.7999 52.7145C94.9647 53.2614 95.8702 54.0213 96.5165 54.9943C97.1628 55.9673 97.486 57.0824 97.486 58.3395C97.486 59.1634 97.3226 59.9766 96.9959 60.7791C96.6763 61.5817 96.1046 62.473 95.2807 63.4531C94.4569 64.4261 93.2956 65.5945 91.7971 66.9581L88.6117 70.0795V70.2287H97.7736V74H82.2196ZM116.124 74.2983C114.533 74.2983 113.116 74.0249 111.873 73.478C110.638 72.924 109.661 72.1641 108.944 71.1982C108.233 70.2251 107.868 69.103 107.846 67.8317H112.491C112.52 68.3643 112.694 68.8331 113.013 69.2379C113.34 69.6357 113.773 69.9446 114.313 70.1648C114.853 70.3849 115.46 70.495 116.135 70.495C116.838 70.495 117.459 70.3707 117.999 70.1222C118.539 69.8736 118.961 69.5291 119.267 69.0888C119.572 68.6484 119.725 68.1406 119.725 67.5653C119.725 66.983 119.562 66.468 119.235 66.0206C118.915 65.5661 118.454 65.2109 117.85 64.9553C117.253 64.6996 116.543 64.5717 115.719 64.5717H113.684V61.1839H115.719C116.415 61.1839 117.03 61.0632 117.562 60.8217C118.102 60.5803 118.521 60.2464 118.819 59.8203C119.118 59.3871 119.267 58.8828 119.267 58.3075C119.267 57.7607 119.135 57.2812 118.873 56.8693C118.617 56.4503 118.255 56.1236 117.786 55.8892C117.324 55.6548 116.785 55.5376 116.167 55.5376C115.542 55.5376 114.97 55.6513 114.452 55.8786C113.933 56.0987 113.518 56.4148 113.205 56.8267C112.893 57.2386 112.726 57.7216 112.704 58.2756H108.283C108.305 57.0185 108.663 55.9105 109.359 54.9517C110.055 53.9929 110.993 53.2436 112.172 52.7038C113.358 52.157 114.697 51.8835 116.188 51.8835C117.694 51.8835 119.011 52.157 120.14 52.7038C121.27 53.2507 122.147 53.9893 122.772 54.9197C123.404 55.843 123.716 56.88 123.709 58.0305C123.716 59.2521 123.336 60.2713 122.569 61.0881C121.809 61.9048 120.819 62.4233 119.597 62.6435V62.8139C121.202 63.0199 122.424 63.5774 123.262 64.4865C124.107 65.3885 124.526 66.5178 124.519 67.8743C124.526 69.1172 124.167 70.2216 123.443 71.1875C122.726 72.1534 121.735 72.9134 120.471 73.4673C119.206 74.0213 117.758 74.2983 116.124 74.2983ZM53.3249 106.165V102.532L62.4336 88.1818H65.5657V93.2102H63.712L57.9698 102.298V102.468H70.9137V106.165H53.3249ZM63.7972 110V105.057L63.8825 103.448V88.1818H68.2077V110H63.7972ZM88.8993 110.298C87.3936 110.298 86.0513 110.021 84.8723 109.467C83.7005 108.913 82.7701 108.15 82.0811 107.177C81.3922 106.204 81.0336 105.089 81.0051 103.832H85.4796C85.5293 104.677 85.8844 105.362 86.5449 105.888C87.2054 106.413 87.9902 106.676 88.8993 106.676C89.6238 106.676 90.263 106.516 90.8169 106.197C91.378 105.87 91.8148 105.419 92.1273 104.844C92.4469 104.261 92.6067 103.594 92.6067 102.841C92.6067 102.074 92.4434 101.399 92.1167 100.817C91.7971 100.234 91.3532 99.7798 90.785 99.4531C90.2168 99.1264 89.5669 98.9595 88.8354 98.9524C88.1962 98.9524 87.5748 99.0838 86.9711 99.3466C86.3745 99.6094 85.9093 99.968 85.5755 100.423L81.4739 99.6875L82.5073 88.1818H95.8453V91.9531H86.3105L85.7459 97.4183H85.8738C86.2573 96.8786 86.8361 96.4311 87.6103 96.076C88.3844 95.7209 89.2509 95.5433 90.2097 95.5433C91.5236 95.5433 92.6955 95.8523 93.7253 96.4702C94.7551 97.0881 95.5684 97.9368 96.165 99.0163C96.7615 100.089 97.0563 101.325 97.0492 102.724C97.0563 104.194 96.7154 105.501 96.0265 106.644C95.3446 107.781 94.3894 108.675 93.1607 109.329C91.9391 109.975 90.5186 110.298 88.8993 110.298ZM115.583 110.298C114.461 110.291 113.378 110.103 112.334 109.734C111.297 109.364 110.367 108.764 109.543 107.933C108.719 107.102 108.066 106.001 107.583 104.631C107.107 103.26 106.869 101.577 106.869 99.581C106.876 97.7486 107.086 96.1115 107.498 94.6697C107.917 93.2209 108.513 91.9922 109.287 90.9837C110.069 89.9751 111.002 89.2081 112.089 88.6825C113.176 88.1499 114.394 87.8835 115.743 87.8835C117.199 87.8835 118.485 88.1676 119.6 88.7358C120.715 89.2969 121.61 90.0604 122.284 91.0263C122.966 91.9922 123.378 93.0753 123.52 94.2756H118.971C118.794 93.5156 118.421 92.919 117.853 92.4858C117.284 92.0526 116.581 91.8359 115.743 91.8359C114.323 91.8359 113.243 92.4538 112.505 93.6896C111.773 94.9254 111.4 96.6051 111.386 98.7287H111.535C111.862 98.0824 112.302 97.532 112.856 97.0774C113.417 96.6158 114.053 96.2642 114.763 96.0227C115.48 95.7741 116.237 95.6499 117.032 95.6499C118.325 95.6499 119.475 95.9553 120.484 96.5661C121.493 97.1697 122.288 98.0007 122.87 99.0589C123.453 100.117 123.744 101.328 123.744 102.692C123.744 104.169 123.4 105.483 122.711 106.634C122.029 107.784 121.074 108.686 119.845 109.339C118.623 109.986 117.203 110.305 115.583 110.298ZM115.562 106.676C116.272 106.676 116.908 106.506 117.469 106.165C118.03 105.824 118.471 105.362 118.79 104.78C119.11 104.197 119.27 103.544 119.27 102.82C119.27 102.095 119.11 101.445 118.79 100.87C118.478 100.295 118.044 99.8366 117.49 99.4957C116.936 99.1548 116.304 98.9844 115.594 98.9844C115.061 98.9844 114.568 99.0838 114.113 99.2827C113.666 99.4815 113.272 99.7585 112.931 100.114C112.597 100.469 112.334 100.881 112.142 101.349C111.951 101.811 111.855 102.305 111.855 102.83C111.855 103.533 112.015 104.176 112.334 104.759C112.661 105.341 113.101 105.806 113.655 106.154C114.216 106.502 114.852 106.676 115.562 106.676Z" fill="black"/>
<path d="M36.5838 83.5909C36.5838 78.4773 37.2301 73.6477 38.5227 69.1023C39.8153 64.5568 41.669 60.2955 44.0838 56.3182H47.5355C46.4986 57.9943 45.5469 59.8906 44.6804 62.0071C43.8281 64.1236 43.0895 66.3821 42.4645 68.7827C41.8395 71.1832 41.3565 73.6406 41.0156 76.1548C40.6747 78.6548 40.5043 81.1335 40.5043 83.5909C40.5043 86.8722 40.8026 90.1818 41.3991 93.5199C41.9957 96.858 42.8196 100.026 43.8707 103.023C44.9361 106.02 46.1577 108.634 47.5355 110.864H44.0838C41.669 106.872 39.8153 102.604 38.5227 98.0582C37.2301 93.5128 36.5838 88.6903 36.5838 83.5909Z" fill="black"/>
<path d="M139.416 83.5909C139.416 78.4773 138.77 73.6477 137.477 69.1023C136.185 64.5568 134.331 60.2955 131.916 56.3182H128.464C129.501 57.9943 130.453 59.8906 131.32 62.0071C132.172 64.1236 132.911 66.3821 133.536 68.7827C134.161 71.1832 134.643 73.6406 134.984 76.1548C135.325 78.6548 135.496 81.1335 135.496 83.5909C135.496 86.8722 135.197 90.1818 134.601 93.5199C134.004 96.858 133.18 100.026 132.129 103.023C131.064 106.02 129.842 108.634 128.464 110.864H131.916C134.331 106.872 136.185 102.604 137.477 98.0582C138.77 93.5128 139.416 88.6903 139.416 83.5909Z" fill="black"/>
<path d="M55.0909 38.2727C53.9602 38.2727 52.9602 37.9858 52.0909 37.4119C51.2273 36.8381 50.5511 36.0455 50.0625 35.0341C49.5739 34.017 49.3295 32.8437 49.3295 31.5142C49.3295 30.1733 49.5739 28.9943 50.0625 27.9773C50.5511 26.9545 51.2273 26.1591 52.0909 25.5909C52.9602 25.017 53.9602 24.7301 55.0909 24.7301C56.2216 24.7301 57.2188 25.017 58.0824 25.5909C58.946 26.1648 59.6222 26.9602 60.1108 27.9773C60.6051 28.9943 60.8523 30.1733 60.8523 31.5142C60.8523 32.8437 60.608 34.017 60.1193 35.0341C59.6307 36.0455 58.9517 36.8381 58.0824 37.4119C57.2188 37.9858 56.2216 38.2727 55.0909 38.2727ZM55.0909 36.8835C56 36.8835 56.7699 36.6392 57.4006 36.1506C58.0313 35.6619 58.5085 35.0114 58.8324 34.1989C59.1619 33.3864 59.3267 32.4915 59.3267 31.5142C59.3267 30.5369 59.1619 29.6392 58.8324 28.821C58.5085 28.0028 58.0313 27.3466 57.4006 26.8523C56.7699 26.358 56 26.1108 55.0909 26.1108C54.1875 26.1108 53.4176 26.358 52.7812 26.8523C52.1506 27.3466 51.6705 28.0028 51.3409 28.821C51.017 29.6392 50.8551 30.5369 50.8551 31.5142C50.8551 32.4915 51.017 33.3864 51.3409 34.1989C51.6705 35.0114 52.1506 35.6619 52.7812 36.1506C53.4119 36.6392 54.1818 36.8835 55.0909 36.8835ZM64.1825 38V24.9091H65.657V26.9205H65.7678C66.0291 26.2614 66.4837 25.7301 67.1314 25.3267C67.7848 24.9176 68.5234 24.7131 69.3473 24.7131C69.4723 24.7131 69.6115 24.7159 69.7649 24.7216C69.9183 24.7273 70.0462 24.733 70.1484 24.7386V26.2812C70.0803 26.2699 69.9609 26.2528 69.7905 26.2301C69.62 26.2074 69.4354 26.196 69.2365 26.196C68.5547 26.196 67.9467 26.3409 67.4126 26.6307C66.8842 26.9148 66.4666 27.3097 66.1598 27.8153C65.853 28.321 65.6996 28.8977 65.6996 29.5455V38H64.1825ZM72.7543 38V24.9091H74.2798V38H72.7543ZM73.5298 22.6591C73.2173 22.6591 72.9503 22.554 72.7287 22.3438C72.5071 22.1278 72.3963 21.8693 72.3963 21.5682C72.3963 21.267 72.5071 21.0114 72.7287 20.8011C72.9503 20.5852 73.2173 20.4773 73.5298 20.4773C73.8423 20.4773 74.1094 20.5852 74.331 20.8011C74.5526 21.0114 74.6634 21.267 74.6634 21.5682C74.6634 21.8693 74.5526 22.1278 74.331 22.3438C74.1094 22.554 73.8423 22.6591 73.5298 22.6591ZM83.2862 43.1818C82.3942 43.1818 81.6129 43.0653 80.9425 42.8324C80.272 42.6051 79.7067 42.2926 79.2464 41.8949C78.7862 41.4972 78.4283 41.0511 78.1726 40.5568L79.4169 39.7386C79.6044 40.0682 79.8544 40.392 80.1669 40.7102C80.4851 41.0284 80.897 41.2926 81.4027 41.5028C81.9141 41.7131 82.5419 41.8182 83.2862 41.8182C84.4453 41.8182 85.38 41.5284 86.0902 40.9489C86.8061 40.3693 87.1641 39.4687 87.1641 38.2472V35.2983H87.0277C86.8516 35.696 86.5987 36.0937 86.2692 36.4915C85.9396 36.8835 85.5078 37.2102 84.9737 37.4716C84.4453 37.733 83.7891 37.8636 83.005 37.8636C81.9595 37.8636 81.0305 37.6051 80.218 37.0881C79.4112 36.571 78.7749 35.8324 78.3089 34.8722C77.8487 33.9062 77.6186 32.7557 77.6186 31.4205C77.6186 30.0966 77.843 28.9318 78.2919 27.9261C78.7464 26.9205 79.38 26.1364 80.1925 25.5739C81.005 25.0114 81.951 24.7301 83.0305 24.7301C83.8317 24.7301 84.4964 24.8722 85.0249 25.1562C85.5533 25.4347 85.9766 25.7812 86.2947 26.196C86.6186 26.6108 86.8714 27.0142 87.0533 27.4062H87.2067V24.9091H88.6896V38.3409C88.6896 39.4489 88.4538 40.3608 87.9822 41.0767C87.5107 41.7926 86.8686 42.321 86.0561 42.6619C85.2436 43.0085 84.3203 43.1818 83.2862 43.1818ZM83.1839 36.4744C84.0249 36.4744 84.7436 36.2727 85.3402 35.8693C85.9368 35.4602 86.3942 34.875 86.7124 34.1136C87.0305 33.3523 87.1896 32.446 87.1896 31.3949C87.1896 30.3722 87.0334 29.4659 86.7209 28.6761C86.4084 27.8807 85.9538 27.2557 85.3572 26.8011C84.7663 26.3409 84.0419 26.1108 83.1839 26.1108C82.3089 26.1108 81.5703 26.3466 80.968 26.8182C80.3658 27.2898 79.9112 27.9261 79.6044 28.7273C79.2976 29.5227 79.1442 30.4119 79.1442 31.3949C79.1442 32.3949 79.3004 33.2784 79.6129 34.0455C79.9254 34.8068 80.3828 35.4034 80.9851 35.8352C81.5874 36.2614 82.3203 36.4744 83.1839 36.4744ZM92.723 38V24.9091H94.2486V38H92.723ZM93.4986 22.6591C93.1861 22.6591 92.919 22.554 92.6974 22.3438C92.4759 22.1278 92.3651 21.8693 92.3651 21.5682C92.3651 21.267 92.4759 21.0114 92.6974 20.8011C92.919 20.5852 93.1861 20.4773 93.4986 20.4773C93.8111 20.4773 94.0781 20.5852 94.2997 20.8011C94.5213 21.0114 94.6321 21.267 94.6321 21.5682C94.6321 21.8693 94.5213 22.1278 94.2997 22.3438C94.0781 22.554 93.8111 22.6591 93.4986 22.6591ZM99.7777 29.8182V38H98.2607V24.9091H99.7351V26.9631H99.8714C100.178 26.2926 100.656 25.7557 101.303 25.3523C101.957 24.9432 102.763 24.7386 103.724 24.7386C104.604 24.7386 105.377 24.9233 106.042 25.2926C106.712 25.6562 107.232 26.1932 107.602 26.9034C107.977 27.6136 108.164 28.4858 108.164 29.5199V38H106.647V29.6136C106.647 28.5398 106.346 27.6903 105.744 27.0653C105.147 26.4403 104.346 26.1278 103.34 26.1278C102.653 26.1278 102.042 26.2756 101.508 26.571C100.974 26.8665 100.55 27.2926 100.238 27.8494C99.9311 28.4006 99.7777 29.0568 99.7777 29.8182ZM115.815 38.2983C115.026 38.2983 114.304 38.1449 113.651 37.8381C112.997 37.5256 112.477 37.0767 112.091 36.4915C111.705 35.9006 111.511 35.1847 111.511 34.3438C111.511 33.696 111.634 33.1506 111.878 32.7074C112.122 32.2642 112.469 31.9006 112.918 31.6165C113.366 31.3324 113.898 31.108 114.511 30.9432C115.125 30.7784 115.801 30.6506 116.54 30.5597C117.273 30.4687 117.892 30.3892 118.398 30.321C118.909 30.2528 119.298 30.1449 119.565 29.9972C119.832 29.8494 119.966 29.6108 119.966 29.2812V28.9744C119.966 28.0824 119.699 27.3807 119.165 26.8693C118.636 26.3523 117.875 26.0938 116.881 26.0938C115.938 26.0938 115.168 26.3011 114.571 26.7159C113.98 27.1307 113.565 27.6193 113.327 28.1818L111.886 27.6619C112.182 26.946 112.591 26.375 113.114 25.9489C113.636 25.517 114.222 25.2074 114.869 25.0199C115.517 24.8267 116.173 24.7301 116.838 24.7301C117.338 24.7301 117.858 24.7955 118.398 24.9261C118.943 25.0568 119.449 25.2841 119.915 25.608C120.381 25.9261 120.759 26.3722 121.048 26.946C121.338 27.5142 121.483 28.2358 121.483 29.1108V38H119.966V35.929H119.872C119.69 36.3153 119.42 36.6903 119.062 37.054C118.705 37.4176 118.256 37.7159 117.716 37.9489C117.176 38.1818 116.543 38.2983 115.815 38.2983ZM116.02 36.9091C116.827 36.9091 117.526 36.7301 118.116 36.3722C118.707 36.0142 119.162 35.5398 119.48 34.9489C119.804 34.3523 119.966 33.696 119.966 32.9801V31.0881C119.852 31.196 119.662 31.2926 119.395 31.3778C119.134 31.4631 118.83 31.5398 118.483 31.608C118.142 31.6705 117.801 31.7244 117.46 31.7699C117.119 31.8153 116.812 31.8551 116.54 31.8892C115.801 31.9801 115.17 32.1222 114.648 32.3153C114.125 32.5085 113.724 32.7756 113.446 33.1165C113.168 33.4517 113.028 33.8835 113.028 34.4119C113.028 35.2074 113.312 35.8239 113.881 36.2614C114.449 36.6932 115.162 36.9091 116.02 36.9091ZM127.036 20.5455V38H125.518V20.5455H127.036Z" fill="black"/>
<path d="M341.136 97.9091L336.355 111H334.736L329.955 97.9091H331.599L335.486 108.997H335.605L339.491 97.9091H341.136ZM344.121 111V97.9091H345.647V111H344.121ZM344.897 95.6591C344.585 95.6591 344.317 95.554 344.096 95.3438C343.874 95.1278 343.763 94.8693 343.763 94.5682C343.763 94.267 343.874 94.0114 344.096 93.8011C344.317 93.5852 344.585 93.4773 344.897 93.4773C345.21 93.4773 345.477 93.5852 345.698 93.8011C345.92 94.0114 346.031 94.267 346.031 94.5682C346.031 94.8693 345.92 95.1278 345.698 95.3438C345.477 95.554 345.21 95.6591 344.897 95.6591ZM354.952 111.273C353.73 111.273 352.673 110.989 351.781 110.42C350.889 109.847 350.199 109.054 349.71 108.043C349.227 107.026 348.986 105.855 348.986 104.531C348.986 103.213 349.227 102.043 349.71 101.02C350.199 99.9915 350.872 99.1875 351.73 98.608C352.594 98.0227 353.591 97.7301 354.722 97.7301C355.432 97.7301 356.116 97.8608 356.776 98.1222C357.435 98.3778 358.026 98.7727 358.548 99.3068C359.077 99.8352 359.494 100.503 359.801 101.31C360.108 102.111 360.261 103.06 360.261 104.156V104.906H350.034V103.568H358.71C358.71 102.727 358.54 101.972 358.199 101.301C357.864 100.625 357.395 100.091 356.793 99.6989C356.196 99.3068 355.506 99.1108 354.722 99.1108C353.892 99.1108 353.162 99.3324 352.531 99.7756C351.901 100.219 351.406 100.804 351.048 101.531C350.696 102.259 350.517 103.054 350.511 103.918V104.719C350.511 105.759 350.69 106.668 351.048 107.446C351.412 108.219 351.926 108.818 352.591 109.244C353.256 109.67 354.043 109.884 354.952 109.884C355.571 109.884 356.114 109.787 356.58 109.594C357.051 109.401 357.446 109.142 357.764 108.818C358.088 108.489 358.332 108.128 358.497 107.736L359.938 108.205C359.739 108.756 359.412 109.264 358.957 109.73C358.509 110.196 357.946 110.571 357.27 110.855C356.599 111.134 355.827 111.273 354.952 111.273ZM366.511 111L362.556 97.9091H364.158L367.261 108.707H367.371L370.465 97.9091H372.076L375.144 108.682H375.263L378.366 97.9091H379.968L376.013 111H374.445L371.343 100.27H371.181L368.079 111H366.511Z" fill="black"/>
<path d="M104.199 223.188L103.273 223.449C103.182 223.187 103.053 222.951 102.886 222.739C102.72 222.527 102.502 222.358 102.233 222.233C101.968 222.108 101.638 222.045 101.244 222.045C100.653 222.045 100.169 222.186 99.7898 222.466C99.411 222.746 99.2216 223.108 99.2216 223.551C99.2216 223.926 99.3504 224.231 99.608 224.466C99.8693 224.697 100.271 224.881 100.812 225.017L102.131 225.341C102.862 225.519 103.409 225.801 103.773 226.188C104.14 226.574 104.324 227.059 104.324 227.642C104.324 228.134 104.188 228.572 103.915 228.955C103.642 229.337 103.261 229.638 102.773 229.858C102.288 230.074 101.725 230.182 101.085 230.182C100.233 230.182 99.5303 229.991 98.9773 229.608C98.4242 229.222 98.0701 228.665 97.9148 227.938L98.8864 227.699C99.0114 228.218 99.2557 228.61 99.6193 228.875C99.9867 229.14 100.47 229.273 101.068 229.273C101.739 229.273 102.275 229.123 102.676 228.824C103.078 228.521 103.278 228.142 103.278 227.688C103.278 227.335 103.161 227.04 102.926 226.801C102.691 226.559 102.335 226.381 101.858 226.267L100.432 225.926C99.6742 225.744 99.1136 225.456 98.75 225.062C98.3864 224.669 98.2045 224.18 98.2045 223.597C98.2045 223.116 98.3352 222.693 98.5966 222.33C98.858 221.962 99.2178 221.674 99.6761 221.466C100.134 221.258 100.657 221.153 101.244 221.153C102.044 221.153 102.682 221.335 103.159 221.699C103.64 222.059 103.987 222.555 104.199 223.188ZM107.55 224.545V230H106.538V218.364H107.55V222.642H107.641C107.845 222.191 108.161 221.831 108.589 221.562C109.021 221.294 109.567 221.159 110.226 221.159C110.817 221.159 111.336 221.28 111.783 221.523C112.23 221.765 112.578 222.123 112.828 222.597C113.078 223.07 113.203 223.653 113.203 224.347V230H112.186V224.409C112.186 223.689 111.985 223.123 111.584 222.71C111.186 222.294 110.648 222.085 109.97 222.085C109.504 222.085 109.089 222.184 108.726 222.381C108.362 222.578 108.074 222.862 107.862 223.233C107.654 223.6 107.55 224.038 107.55 224.545ZM118.304 230.199C117.777 230.199 117.296 230.097 116.861 229.892C116.425 229.684 116.079 229.384 115.821 228.994C115.563 228.6 115.435 228.123 115.435 227.562C115.435 227.131 115.516 226.767 115.679 226.472C115.842 226.176 116.073 225.934 116.372 225.744C116.671 225.555 117.026 225.405 117.435 225.295C117.844 225.186 118.295 225.1 118.787 225.04C119.276 224.979 119.688 224.926 120.026 224.881C120.366 224.835 120.626 224.763 120.804 224.665C120.982 224.566 121.071 224.407 121.071 224.188V223.983C121.071 223.388 120.893 222.92 120.537 222.58C120.185 222.235 119.677 222.062 119.014 222.062C118.385 222.062 117.872 222.201 117.474 222.477C117.08 222.754 116.804 223.08 116.645 223.455L115.685 223.108C115.882 222.631 116.154 222.25 116.503 221.966C116.851 221.678 117.241 221.472 117.673 221.347C118.105 221.218 118.543 221.153 118.986 221.153C119.319 221.153 119.666 221.197 120.026 221.284C120.389 221.371 120.726 221.523 121.037 221.739C121.348 221.951 121.599 222.248 121.793 222.631C121.986 223.009 122.082 223.491 122.082 224.074V230H121.071V228.619H121.009C120.887 228.877 120.707 229.127 120.469 229.369C120.23 229.612 119.931 229.811 119.571 229.966C119.211 230.121 118.789 230.199 118.304 230.199ZM118.44 229.273C118.978 229.273 119.444 229.153 119.838 228.915C120.232 228.676 120.535 228.36 120.747 227.966C120.963 227.568 121.071 227.131 121.071 226.653V225.392C120.995 225.464 120.868 225.528 120.69 225.585C120.516 225.642 120.313 225.693 120.082 225.739C119.855 225.78 119.628 225.816 119.401 225.847C119.173 225.877 118.969 225.903 118.787 225.926C118.295 225.987 117.874 226.081 117.526 226.21C117.177 226.339 116.91 226.517 116.724 226.744C116.539 226.968 116.446 227.256 116.446 227.608C116.446 228.138 116.635 228.549 117.014 228.841C117.393 229.129 117.868 229.273 118.44 229.273ZM124.773 230V221.273H125.756V222.614H125.83C126.004 222.174 126.307 221.82 126.739 221.551C127.174 221.278 127.667 221.142 128.216 221.142C128.299 221.142 128.392 221.144 128.494 221.148C128.597 221.152 128.682 221.155 128.75 221.159V222.188C128.705 222.18 128.625 222.169 128.511 222.153C128.398 222.138 128.275 222.131 128.142 222.131C127.688 222.131 127.282 222.227 126.926 222.42C126.574 222.61 126.295 222.873 126.091 223.21C125.886 223.547 125.784 223.932 125.784 224.364V230H124.773ZM133.739 230.182C132.924 230.182 132.22 229.992 131.625 229.614C131.03 229.231 130.57 228.703 130.244 228.028C129.922 227.35 129.761 226.57 129.761 225.688C129.761 224.809 129.922 224.028 130.244 223.347C130.57 222.661 131.019 222.125 131.591 221.739C132.167 221.348 132.831 221.153 133.585 221.153C134.059 221.153 134.515 221.241 134.955 221.415C135.394 221.585 135.788 221.848 136.136 222.205C136.489 222.557 136.767 223.002 136.972 223.54C137.176 224.074 137.278 224.706 137.278 225.438V225.938H130.46V225.045H136.244C136.244 224.485 136.131 223.981 135.903 223.534C135.68 223.083 135.367 222.727 134.966 222.466C134.568 222.205 134.108 222.074 133.585 222.074C133.032 222.074 132.545 222.222 132.125 222.517C131.705 222.812 131.375 223.203 131.136 223.688C130.902 224.172 130.782 224.703 130.778 225.278V225.812C130.778 226.506 130.898 227.112 131.136 227.631C131.379 228.146 131.722 228.545 132.165 228.83C132.608 229.114 133.133 229.256 133.739 229.256C134.152 229.256 134.513 229.191 134.824 229.062C135.138 228.934 135.402 228.761 135.614 228.545C135.83 228.326 135.992 228.085 136.102 227.824L137.062 228.136C136.93 228.504 136.712 228.843 136.409 229.153C136.11 229.464 135.735 229.714 135.284 229.903C134.837 230.089 134.322 230.182 133.739 230.182ZM142.649 230.182C141.933 230.182 141.306 229.992 140.768 229.614C140.231 229.235 139.81 228.706 139.507 228.028C139.208 227.35 139.058 226.561 139.058 225.659C139.058 224.761 139.208 223.975 139.507 223.301C139.81 222.623 140.232 222.097 140.774 221.722C141.316 221.343 141.946 221.153 142.666 221.153C143.196 221.153 143.638 221.248 143.99 221.438C144.342 221.623 144.625 221.854 144.837 222.131C145.049 222.407 145.214 222.676 145.331 222.938H145.422V218.364H146.439V230H145.45V228.381H145.331C145.214 228.646 145.047 228.919 144.831 229.199C144.615 229.475 144.329 229.708 143.973 229.898C143.621 230.087 143.179 230.182 142.649 230.182ZM142.768 229.256C143.333 229.256 143.814 229.102 144.212 228.795C144.609 228.485 144.912 228.059 145.121 227.517C145.333 226.972 145.439 226.347 145.439 225.642C145.439 224.945 145.335 224.33 145.126 223.795C144.918 223.258 144.615 222.837 144.217 222.534C143.82 222.227 143.337 222.074 142.768 222.074C142.185 222.074 141.693 222.233 141.291 222.551C140.893 222.866 140.59 223.292 140.382 223.83C140.178 224.367 140.075 224.972 140.075 225.642C140.075 226.32 140.179 226.932 140.388 227.477C140.596 228.023 140.899 228.456 141.297 228.778C141.698 229.097 142.189 229.256 142.768 229.256ZM155.651 230V230.955H148.503V230H155.651ZM157.695 233.273V221.273H158.678V222.938H158.797C158.918 222.676 159.085 222.409 159.297 222.136C159.509 221.86 159.789 221.627 160.138 221.438C160.49 221.248 160.933 221.153 161.467 221.153C162.187 221.153 162.816 221.343 163.354 221.722C163.895 222.097 164.316 222.623 164.615 223.301C164.918 223.975 165.07 224.761 165.07 225.659C165.07 226.561 164.918 227.35 164.615 228.028C164.316 228.706 163.895 229.235 163.354 229.614C162.816 229.992 162.191 230.182 161.479 230.182C160.952 230.182 160.511 230.087 160.155 229.898C159.803 229.708 159.517 229.475 159.297 229.199C159.081 228.919 158.914 228.646 158.797 228.381H158.706V233.273H157.695ZM158.695 225.642C158.695 226.347 158.799 226.972 159.007 227.517C159.219 228.059 159.522 228.485 159.916 228.795C160.314 229.102 160.795 229.256 161.359 229.256C161.939 229.256 162.428 229.097 162.825 228.778C163.227 228.456 163.532 228.023 163.74 227.477C163.952 226.932 164.058 226.32 164.058 225.642C164.058 224.972 163.954 224.367 163.746 223.83C163.541 223.292 163.238 222.866 162.837 222.551C162.435 222.233 161.943 222.074 161.359 222.074C160.791 222.074 160.308 222.227 159.911 222.534C159.513 222.837 159.21 223.258 159.001 223.795C158.797 224.33 158.695 224.945 158.695 225.642ZM170.726 221.273V222.153H166.561V221.273H170.726ZM167.862 219.182H168.879V227.722C168.879 228.085 168.942 228.371 169.067 228.58C169.192 228.784 169.355 228.93 169.555 229.017C169.756 229.1 169.97 229.142 170.197 229.142C170.33 229.142 170.444 229.134 170.538 229.119C170.633 229.1 170.716 229.081 170.788 229.062L171.004 229.977C170.906 230.015 170.785 230.049 170.641 230.08C170.497 230.114 170.319 230.131 170.107 230.131C169.735 230.131 169.377 230.049 169.033 229.886C168.692 229.723 168.411 229.481 168.192 229.159C167.972 228.837 167.862 228.438 167.862 227.96V219.182ZM173.023 230V221.273H174.006V222.614H174.08C174.254 222.174 174.557 221.82 174.989 221.551C175.424 221.278 175.917 221.142 176.466 221.142C176.549 221.142 176.642 221.144 176.744 221.148C176.847 221.152 176.932 221.155 177 221.159V222.188C176.955 222.18 176.875 222.169 176.761 222.153C176.648 222.138 176.525 222.131 176.392 222.131C175.938 222.131 175.532 222.227 175.176 222.42C174.824 222.61 174.545 222.873 174.341 223.21C174.136 223.547 174.034 223.932 174.034 224.364V230H173.023Z" fill="black"/>
<line x1="89" y1="145" x2="281" y2="145" stroke="black" stroke-width="2"/>
<line x1="280" y1="146.023" x2="280" y2="124" stroke="black" stroke-width="2"/>
<path d="M325.125 69.5455C325.125 61.7727 324.182 54.2273 322.295 46.9091C320.386 39.5682 317.648 32.5682 314.08 25.9091H310.193C311.875 29 313.375 32.3068 314.693 35.8295C316.011 39.3295 317.136 42.9545 318.068 46.7045C318.977 50.4545 319.682 54.25 320.182 58.0909C320.659 61.9318 320.898 65.75 320.898 69.5455C320.898 74.6136 320.466 79.7159 319.602 84.8523C318.739 89.9886 317.511 94.9659 315.92 99.7841C314.307 104.602 312.398 109.068 310.193 113.182H314.08C317.648 106.477 320.386 99.4659 322.295 92.1477C324.182 84.8068 325.125 77.2727 325.125 69.5455Z" fill="black"/>
<path d="M237.875 67.5455C237.875 59.7727 238.818 52.2273 240.705 44.9091C242.614 37.5682 245.352 30.5682 248.92 23.9091H252.807C251.125 27 249.625 30.3068 248.307 33.8295C246.989 37.3295 245.864 40.9545 244.932 44.7045C244.023 48.4545 243.318 52.25 242.818 56.0909C242.341 59.9318 242.102 63.75 242.102 67.5455C242.102 72.6136 242.534 77.7159 243.398 82.8523C244.261 87.9886 245.489 92.9659 247.08 97.7841C248.693 102.602 250.602 107.068 252.807 111.182H248.92C245.352 104.477 242.614 97.4659 240.705 90.1477C238.818 82.8068 237.875 75.2727 237.875 67.5455Z" fill="black"/>
<path d="M270.147 19.1818V41H265.534V23.5604H265.407L260.41 26.6925V22.6016L265.811 19.1818H270.147ZM289.22 41V37.6761L296.986 30.4851C297.646 29.8459 298.2 29.2706 298.648 28.7592C299.102 28.2479 299.447 27.7472 299.681 27.2571C299.916 26.7599 300.033 26.2237 300.033 25.6484C300.033 25.0092 299.887 24.4588 299.596 23.9972C299.305 23.5284 298.907 23.1697 298.403 22.9212C297.899 22.6655 297.327 22.5376 296.688 22.5376C296.02 22.5376 295.438 22.6726 294.941 22.9425C294.443 23.2124 294.06 23.5994 293.79 24.1037C293.52 24.608 293.385 25.2081 293.385 25.9041H289.007C289.007 24.4766 289.33 23.2372 289.976 22.1861C290.622 21.1349 291.528 20.3217 292.693 19.7464C293.857 19.1712 295.2 18.8835 296.72 18.8835C298.282 18.8835 299.642 19.1605 300.8 19.7145C301.965 20.2614 302.87 21.0213 303.517 21.9943C304.163 22.9673 304.486 24.0824 304.486 25.3395C304.486 26.1634 304.323 26.9766 303.996 27.7791C303.676 28.5817 303.105 29.473 302.281 30.4531C301.457 31.4261 300.296 32.5945 298.797 33.9581L295.612 37.0795V37.2287H304.774V41H289.22ZM268.72 77.2983C267.129 77.2983 265.712 77.0249 264.469 76.478C263.233 75.924 262.257 75.1641 261.539 74.1982C260.829 73.2251 260.463 72.103 260.442 70.8317H265.087C265.115 71.3643 265.289 71.8331 265.609 72.2379C265.936 72.6357 266.369 72.9446 266.909 73.1648C267.449 73.3849 268.056 73.495 268.73 73.495C269.434 73.495 270.055 73.3707 270.595 73.1222C271.135 72.8736 271.557 72.5291 271.863 72.0888C272.168 71.6484 272.321 71.1406 272.321 70.5653C272.321 69.983 272.157 69.468 271.831 69.0206C271.511 68.5661 271.049 68.2109 270.446 67.9553C269.849 67.6996 269.139 67.5717 268.315 67.5717H266.28V64.1839H268.315C269.011 64.1839 269.625 64.0632 270.158 63.8217C270.698 63.5803 271.117 63.2464 271.415 62.8203C271.713 62.3871 271.863 61.8828 271.863 61.3075C271.863 60.7607 271.731 60.2812 271.468 59.8693C271.213 59.4503 270.85 59.1236 270.382 58.8892C269.92 58.6548 269.38 58.5376 268.762 58.5376C268.137 58.5376 267.566 58.6513 267.047 58.8786C266.529 59.0987 266.113 59.4148 265.801 59.8267C265.488 60.2386 265.321 60.7216 265.3 61.2756H260.879C260.9 60.0185 261.259 58.9105 261.955 57.9517C262.651 56.9929 263.588 56.2436 264.767 55.7038C265.953 55.157 267.292 54.8835 268.784 54.8835C270.289 54.8835 271.607 55.157 272.736 55.7038C273.865 56.2507 274.743 56.9893 275.368 57.9197C276 58.843 276.312 59.88 276.305 61.0305C276.312 62.2521 275.932 63.2713 275.165 64.0881C274.405 64.9048 273.414 65.4233 272.193 65.6435V65.8139C273.798 66.0199 275.02 66.5774 275.858 67.4865C276.703 68.3885 277.122 69.5178 277.115 70.8743C277.122 72.1172 276.763 73.2216 276.039 74.1875C275.321 75.1534 274.331 75.9134 273.066 76.4673C271.802 77.0213 270.353 77.2983 268.72 77.2983ZM287.044 73.1648V69.532L296.152 55.1818H299.284V60.2102H297.431L291.689 69.2976V69.468H304.632V73.1648H287.044ZM297.516 77V72.0568L297.601 70.4482V55.1818H301.926V77H297.516ZM268.624 113.298C267.118 113.298 265.776 113.021 264.597 112.467C263.425 111.913 262.495 111.15 261.806 110.177C261.117 109.204 260.758 108.089 260.73 106.832H265.204C265.254 107.677 265.609 108.362 266.27 108.888C266.93 109.413 267.715 109.676 268.624 109.676C269.348 109.676 269.988 109.516 270.542 109.197C271.103 108.87 271.539 108.419 271.852 107.844C272.172 107.261 272.331 106.594 272.331 105.841C272.331 105.074 272.168 104.399 271.841 103.817C271.522 103.234 271.078 102.78 270.51 102.453C269.941 102.126 269.292 101.96 268.56 101.952C267.921 101.952 267.299 102.084 266.696 102.347C266.099 102.609 265.634 102.968 265.3 103.423L261.199 102.688L262.232 91.1818H275.57V94.9531H266.035L265.471 100.418H265.598C265.982 99.8786 266.561 99.4311 267.335 99.076C268.109 98.7209 268.975 98.5433 269.934 98.5433C271.248 98.5433 272.42 98.8523 273.45 99.4702C274.48 100.088 275.293 100.937 275.89 102.016C276.486 103.089 276.781 104.325 276.774 105.724C276.781 107.194 276.44 108.501 275.751 109.644C275.069 110.781 274.114 111.675 272.885 112.329C271.664 112.975 270.243 113.298 268.624 113.298ZM295.308 113.298C294.186 113.291 293.103 113.103 292.059 112.734C291.022 112.364 290.091 111.764 289.268 110.933C288.444 110.102 287.79 109.001 287.307 107.631C286.831 106.26 286.594 104.577 286.594 102.581C286.601 100.749 286.81 99.1115 287.222 97.6697C287.641 96.2209 288.238 94.9922 289.012 93.9837C289.793 92.9751 290.727 92.2081 291.814 91.6825C292.9 91.1499 294.118 90.8835 295.468 90.8835C296.924 90.8835 298.209 91.1676 299.324 91.7358C300.439 92.2969 301.334 93.0604 302.009 94.0263C302.691 94.9922 303.103 96.0753 303.245 97.2756H298.696C298.518 96.5156 298.145 95.919 297.577 95.4858C297.009 95.0526 296.306 94.8359 295.468 94.8359C294.047 94.8359 292.968 95.4538 292.229 96.6896C291.498 97.9254 291.125 99.6051 291.111 101.729H291.26C291.586 101.082 292.027 100.532 292.581 100.077C293.142 99.6158 293.778 99.2642 294.488 99.0227C295.205 98.7741 295.961 98.6499 296.757 98.6499C298.05 98.6499 299.2 98.9553 300.209 99.5661C301.217 100.17 302.013 101.001 302.595 102.059C303.177 103.117 303.469 104.328 303.469 105.692C303.469 107.169 303.124 108.483 302.435 109.634C301.753 110.784 300.798 111.686 299.569 112.339C298.348 112.986 296.927 113.305 295.308 113.298ZM295.287 109.676C295.997 109.676 296.633 109.506 297.194 109.165C297.755 108.824 298.195 108.362 298.515 107.78C298.834 107.197 298.994 106.544 298.994 105.82C298.994 105.095 298.834 104.445 298.515 103.87C298.202 103.295 297.769 102.837 297.215 102.496C296.661 102.155 296.029 101.984 295.319 101.984C294.786 101.984 294.292 102.084 293.838 102.283C293.39 102.482 292.996 102.759 292.655 103.114C292.322 103.469 292.059 103.881 291.867 104.349C291.675 104.811 291.579 105.305 291.579 105.83C291.579 106.533 291.739 107.176 292.059 107.759C292.385 108.341 292.826 108.806 293.38 109.154C293.941 109.502 294.577 109.676 295.287 109.676Z" fill="black"/>
</svg>
